<svg width="24" height="24" viewBox="0 0 24 24" fill="none" xmlns="http://www.w3.org/2000/svg">
<path d="M14.5755 1.21899C13.2419 1.21898 12.1667 1.21896 11.3213 1.33263C10.4435 1.45065 9.70433 1.70313 9.11733 2.29014C8.60538 2.80207 8.34671 3.43118 8.21092 4.17039C8.07898 4.88871 8.05374 5.76778 8.04786 6.82252C8.04562 7.22647 8.37126 7.55575 8.77522 7.55801C9.17918 7.56026 9.50847 7.23461 9.51071 6.83067C9.51665 5.76425 9.54435 5.00836 9.64972 4.43468C9.75125 3.88191 9.91432 3.56196 10.1517 3.32453C10.4216 3.05463 10.8006 2.87865 11.5162 2.78244C12.2529 2.6834 13.2292 2.68185 14.629 2.68185H15.6043C17.0042 2.68185 17.9805 2.6834 18.7172 2.78244C19.4328 2.87865 19.8117 3.05463 20.0816 3.32453C20.3516 3.59444 20.5275 3.9734 20.6238 4.68899C20.7228 5.42564 20.7243 6.40196 20.7243 7.80183V15.6037C20.7243 17.0036 20.7228 17.9799 20.6238 18.7165C20.5275 19.4322 20.3516 19.8111 20.0816 20.081C19.8117 20.3509 19.4328 20.5269 18.7172 20.6231C17.9805 20.7221 17.0042 20.7237 15.6043 20.7237H14.629C13.2292 20.7237 12.2529 20.7221 11.5162 20.6231C10.8006 20.5269 10.4216 20.3509 10.1517 20.081C9.91432 19.8435 9.75125 19.5237 9.64972 18.9709C9.54435 18.3972 9.51665 17.6413 9.51071 16.5748C9.50847 16.1709 9.17918 15.8453 8.77522 15.8475C8.37126 15.8498 8.04562 16.1791 8.04786 16.583C8.05374 17.6377 8.07898 18.5168 8.21092 19.2351C8.34671 19.9743 8.60538 20.6034 9.11733 21.1154C9.70433 21.7024 10.4435 21.9549 11.3213 22.0729C12.1667 22.1865 13.2419 22.1865 14.5755 22.1865H15.6578C16.9916 22.1865 18.0666 22.1865 18.9121 22.0729C19.7899 21.9549 20.529 21.7024 21.1161 21.1154C21.7031 20.5283 21.9556 19.7893 22.0736 18.9115C22.1873 18.066 22.1872 16.991 22.1872 15.6572V7.74831C22.1872 6.41459 22.1873 5.33957 22.0736 4.49408C21.9556 3.61626 21.7031 2.87716 21.1161 2.29014C20.529 1.70313 19.7899 1.45065 18.9121 1.33263C18.0666 1.21896 16.9916 1.21898 15.6578 1.21899H14.5755Z" fill="black"/>
<path d="M1.95116 10.9704C1.54719 10.9704 1.21973 11.2979 1.21973 11.7018C1.21973 12.1057 1.54719 12.4332 1.95116 12.4332H13.6273L11.7152 14.0722C11.4085 14.335 11.373 14.7968 11.6358 15.1035C11.8988 15.4102 12.3605 15.4457 12.6673 15.1829L16.0806 12.2572C16.2427 12.1182 16.336 11.9154 16.336 11.7018C16.336 11.4883 16.2427 11.2855 16.0806 11.1465L12.6673 8.22077C12.3605 7.95789 11.8988 7.99341 11.6358 8.30011C11.373 8.60682 11.4085 9.06856 11.7152 9.33146L13.6273 10.9704H1.95116Z" fill="black"/>
</svg>
