<svg width="97" height="97" viewBox="0 0 97 97" fill="none" xmlns="http://www.w3.org/2000/svg">
<g clip-path="url(#clip0_2049_833)">
<path d="M82.3627 20.9161L69.0708 86.9591C68.4372 90.107 65.3761 92.1424 62.2282 91.5088L19.0823 82.8253C15.9344 82.1917 13.8865 79.1281 14.5201 75.9801L27.812 9.93716C28.4455 6.78937 31.5216 4.74389 34.6696 5.37745L77.8154 14.061C80.9633 14.6948 82.9962 17.7683 82.3627 20.9161Z" fill="#ADD4F5"/>
<path opacity="0.35" d="M69.652 29.367L57.3431 90.5258L19.0814 82.8252C15.9335 82.1917 13.8857 79.128 14.5192 75.9801L26.8281 14.8213L65.0898 22.5219C68.2377 23.1554 70.2856 26.2191 69.652 29.367Z" fill="white"/>
<path d="M63.4701 34.1684C62.775 37.6221 60.655 40.4255 57.834 42.0902C55.3969 43.5275 52.4391 44.1076 49.4405 43.5041C46.4499 42.9022 43.9387 41.2214 42.2474 38.9532C40.2981 36.3285 39.4194 32.9217 40.1145 29.4679C41.4115 23.0236 47.6982 18.8433 54.1427 20.1403C60.5952 21.439 64.7671 27.7242 63.4701 34.1684Z" fill="#37DEB5"/>
<path d="M56.7446 31.4148C56.2237 34.0029 53.7032 35.6789 51.1242 35.1599C48.5361 34.639 46.86 32.1185 47.3809 29.5302C47.9 26.9512 50.4205 25.2753 53.0087 25.7962C55.5877 26.3153 57.2636 28.8358 56.7446 31.4148Z" fill="#FBC00B"/>
<path d="M57.8333 42.0899C55.3963 43.5272 52.4384 44.1073 49.4398 43.5038C46.4492 42.9019 43.938 41.2211 42.2467 38.9529C44.0791 36.0662 47.5681 34.4431 51.1275 35.1595C54.6869 35.8758 57.2684 38.7207 57.8333 42.0899Z" fill="#FBC00B"/>
<path d="M18.8309 84.0746L61.9768 92.7582C65.806 93.5288 69.5485 91.0404 70.3193 87.2105L83.6113 21.1674C84.3834 17.3309 81.8961 13.5827 78.0668 12.812L34.921 4.12843C31.0845 3.35629 27.3348 5.84904 26.5626 9.68568L23.1912 26.437C23.0524 27.1268 23.4991 27.7988 24.1889 27.9376C24.8787 28.0764 25.5507 27.6296 25.6895 26.9399L29.0609 10.1885C29.5557 7.72987 31.9589 6.1318 34.4182 6.62675L77.564 15.3103C80.016 15.8038 81.6078 18.2058 81.113 20.6646L67.8211 86.7075C67.3276 89.1595 64.9315 90.7531 62.4796 90.2597L19.3338 81.5761C16.8745 81.0811 15.2755 78.6835 15.769 76.2315L24.2489 34.0976C24.3878 33.4078 23.941 32.7358 23.2512 32.597C22.5614 32.4582 21.8894 32.905 21.7506 33.5947L13.2707 75.7288C12.4997 79.5586 14.9945 83.3024 18.8309 84.0746Z" fill="black"/>
<path d="M64.7191 34.42C66.1536 27.2922 61.5214 20.3258 54.3938 18.8913C47.2662 17.4567 40.2996 22.0889 38.8651 29.2166C37.4515 36.2401 41.9436 43.2951 49.1888 44.7533C56.4159 46.2078 63.3002 41.4699 64.7191 34.42ZM43.855 38.9063C45.5374 36.8752 48.2507 35.8832 50.8711 36.4084C50.8717 36.4085 50.8724 36.4088 50.8731 36.409C50.8748 36.4093 50.8765 36.4092 50.8782 36.4095C53.4984 36.9373 55.6134 38.9017 56.3726 41.4238C56.2261 41.4659 53.4041 43.0022 49.6914 42.2549C46.3091 41.5742 44.7452 39.6121 43.855 38.9063ZM48.6301 29.7813C49.0105 27.8912 50.862 26.6638 52.7576 27.0453C54.6473 27.4256 55.876 29.2728 55.4956 31.1631C55.1144 33.0571 53.2689 34.2884 51.381 33.9113C51.3805 33.9113 51.3802 33.9112 51.3797 33.9111C51.3778 33.9107 51.376 33.9108 51.3741 33.9105C49.4794 33.5278 48.2487 31.6763 48.6301 29.7813ZM53.8908 21.3895C59.6414 22.5469 63.3779 28.1667 62.2206 33.9171C61.7365 36.3227 60.4236 38.466 58.5555 40.013C57.8756 38.2509 56.7105 36.7268 55.2067 35.6215C56.5942 34.7717 57.6481 33.3843 57.9939 31.6657C58.6516 28.3982 56.5286 25.2046 53.2605 24.5468C49.9876 23.8881 46.7894 26.0108 46.1318 29.2783C45.7856 30.9985 46.2233 32.6873 47.1779 34.0085C45.3639 34.4466 43.6991 35.4004 42.3887 36.7604C41.2623 34.6058 40.8799 32.1208 41.3633 29.7192C42.5206 23.9689 48.1403 20.2322 53.8908 21.3895Z" fill="black"/>
<path d="M29.1646 46.445C29.0258 47.1348 29.4726 47.8067 30.1624 47.9455L65.4998 55.0576C66.1902 55.1965 66.8615 54.7496 67.0003 54.0598C67.1391 53.37 66.693 52.6982 66.0026 52.5593L30.6652 45.4472C29.9752 45.3083 29.3034 45.7552 29.1646 46.445Z" fill="black"/>
<path d="M28.3831 56.7805L63.7205 63.8925C64.4109 64.0315 65.0822 63.5846 65.221 62.8948C65.3598 62.205 64.9137 61.5332 64.2233 61.3942L28.8859 54.2822C28.1961 54.1433 27.5241 54.5901 27.3853 55.2799C27.2465 55.9697 27.6931 56.6416 28.3831 56.7805Z" fill="black"/>
<path d="M26.6057 65.615L61.9431 72.727C62.6335 72.866 63.3048 72.4191 63.4437 71.7293C63.5825 71.0395 63.1364 70.3677 62.4459 70.2287L27.1085 63.1166C26.4187 62.9778 25.7468 63.4246 25.608 64.1144C25.4691 64.8042 25.9158 65.4761 26.6057 65.615Z" fill="black"/>
<path d="M32.4581 73.3857C31.7677 73.2467 31.0964 73.6936 30.9576 74.3834C30.8187 75.0732 31.2649 75.745 31.9553 75.884L53.0348 80.1265C53.7252 80.2654 54.3965 79.8185 54.5354 79.1287C54.6742 78.4389 54.228 77.7671 53.5376 77.6282L32.4581 73.3857Z" fill="black"/>
</g>
<defs>
<clipPath id="clip0_2049_833">
<rect width="82.2692" height="82.2692" fill="white" transform="translate(16.2324) rotate(11.3794)"/>
</clipPath>
</defs>
</svg>
