<svg width="92" height="92" viewBox="0 0 92 92" fill="none" xmlns="http://www.w3.org/2000/svg">
<g clip-path="url(#clip0_2049_737)">
<mask id="mask0_2049_737" style="mask-type:luminance" maskUnits="userSpaceOnUse" x="0" y="-1" width="92" height="93">
<path d="M-0.000568768 8.99452L82.3688 -0.000189063L91.3635 82.3691L8.99414 91.3639L-0.000568768 8.99452Z" fill="white"/>
</mask>
<g mask="url(#mask0_2049_737)">
<path d="M67.6131 66.4171C67.4614 64.4373 65.6871 62.9733 63.7237 63.1877L63.7168 63.1884L63.7167 63.1871C63.8114 63.1768 63.9083 63.1661 64.0083 63.1551C65.914 62.9457 67.2884 61.2305 67.0793 59.3254C66.8694 57.4195 65.1558 56.0548 63.2505 56.2643L48.8941 57.8321C48.494 57.8758 48.1678 57.5158 48.251 57.122L49.0898 53.1437C49.8037 49.758 49.3703 47.5527 48.9522 43.7243C48.7063 41.4724 46.6813 39.8461 44.4293 40.092C42.3836 40.3154 40.82 42.02 40.7736 44.0773C40.7223 46.3536 40.9585 50.3654 37.6389 54.3426L35.2959 57.1495C33.9908 58.7132 32.1305 59.7102 30.1057 59.9313L26.6666 60.3068L29.1382 82.9407C30.0735 82.8383 31.9535 82.6326 31.9548 82.6325C36.9531 82.0834 37.0367 87.0837 43.2527 86.399L64.411 84.0886C66.3144 83.8807 67.6889 82.1694 67.481 80.2659L67.481 80.2657C67.2732 78.3624 65.5617 76.9879 63.6584 77.1958L64.2653 77.1295C66.1384 76.9249 67.5785 75.2939 67.4365 73.4151C67.288 71.4507 65.5453 70.0147 63.6029 70.2268L64.4411 70.1353C66.3158 69.9306 67.7571 68.2974 67.6131 66.4171Z" fill="#FFCDBF"/>
<path d="M63.9719 80.0671L42.8136 82.3776C36.5976 83.0622 36.5138 78.0618 31.5156 78.6109C31.5143 78.611 29.6343 78.8166 28.699 78.9193L29.1382 82.9412C30.0735 82.8386 31.9535 82.633 31.9548 82.6328C36.953 82.0838 37.0367 87.0842 43.2527 86.3995L64.411 84.089C66.3144 83.8812 67.6889 82.1697 67.481 80.2664L67.481 80.2661C67.399 79.5148 67.08 78.8481 66.61 78.3264C66.079 79.263 65.1237 79.9413 63.9719 80.0671Z" fill="#FFBEAB"/>
<path d="M25.4655 58.38L12.4126 59.8054C11.4278 59.9129 10.7167 60.7983 10.8243 61.7831L13.399 85.3614C13.5066 86.3462 14.392 87.0574 15.3768 86.9499L28.4297 85.5245C29.4145 85.417 30.1255 84.5314 30.018 83.5467L27.4433 59.9683C27.3357 58.9835 26.4503 58.2724 25.4655 58.38Z" fill="#54A0FF"/>
<path d="M18.2254 84.8346L15.6506 61.2562C15.5431 60.2715 16.2542 59.3858 17.2389 59.2783L12.4126 59.8054C11.4278 59.9129 10.7168 60.7985 10.8243 61.7832L13.399 85.3616C13.5066 86.3463 14.392 87.0574 15.3768 86.9499L20.2031 86.4229C19.2184 86.5304 18.3329 85.8193 18.2254 84.8346Z" fill="#338DEF"/>
<path d="M25.9746 26.2735C26.4108 25.7554 26.0535 24.9748 25.3703 24.9525L20.0923 24.7802C19.821 24.7714 19.572 24.6322 19.4266 24.4081L16.5986 20.0487C16.2324 19.4843 15.363 19.5792 15.1274 20.2094L13.3068 25.0764C13.2133 25.3265 13.0002 25.5162 12.7372 25.5833L7.62065 26.8908C6.95831 27.0599 6.7781 27.8993 7.31569 28.3111L11.4686 31.4912C11.682 31.6548 11.7994 31.9111 11.7822 32.1768L11.4481 37.3441C11.4048 38.0131 12.1628 38.4369 12.731 38.0612L17.1179 35.1597C17.3436 35.0105 17.629 34.9794 17.8815 35.0763L22.7914 36.9626C23.4271 37.2069 24.0758 36.6294 23.8893 35.9856L22.4477 31.0122C22.3737 30.7563 22.4328 30.4808 22.606 30.275L25.9746 26.2735Z" fill="#FECA57"/>
<path d="M17.3565 30.6289C17.3737 30.3633 17.2563 30.1071 17.0428 29.9435L12.89 26.7632C12.4783 26.4479 12.4888 25.883 12.813 25.5591C12.7881 25.568 12.763 25.5768 12.737 25.5833L7.62069 26.8907C6.95819 27.06 6.77814 27.8993 7.31573 28.3111L11.4685 31.4912C11.6821 31.6548 11.7994 31.9111 11.7822 32.1768L11.4482 37.3441C11.4048 38.0131 12.163 38.4369 12.731 38.0612L17.0612 35.1973L17.3565 30.6289Z" fill="#F4B537"/>
<path d="M13.1942 25.3428L18.3106 24.0356C18.5654 23.9705 18.7723 23.7899 18.8701 23.5514L16.5977 20.0485C16.2317 19.4842 15.3621 19.5791 15.1265 20.2092L13.3059 25.0763C13.2641 25.1885 13.1971 25.2875 13.1133 25.3697C13.1397 25.3601 13.166 25.35 13.1942 25.3428Z" fill="#F4B537"/>
<path d="M79.504 20.4283C79.94 19.9102 79.5829 19.1295 78.8996 19.1073L73.6215 18.9349C73.3503 18.9261 73.1012 18.787 72.9559 18.5629L70.128 14.2035C69.7617 13.639 68.8924 13.734 68.6566 14.3642L66.8362 19.2311C66.7425 19.4813 66.5296 19.671 66.2664 19.7381L61.15 21.0455C60.4877 21.2147 60.3073 22.0541 60.8451 22.4659L64.9978 25.646C65.2114 25.8095 65.3287 26.0658 65.3115 26.3316L64.9773 31.4989C64.9341 32.1679 65.6922 32.5917 66.2602 32.216L70.6473 29.3145C70.8729 29.1653 71.1583 29.1342 71.4108 29.2311L76.3206 31.1174C76.9563 31.3617 77.6052 30.7842 77.4185 30.1404L75.9771 25.1669C75.9029 24.9111 75.9622 24.6356 76.1354 24.4298L79.504 20.4283Z" fill="#FECA57"/>
<path d="M70.8857 24.7837C70.9029 24.5181 70.7856 24.2618 70.5722 24.0983L66.4192 20.918C66.0076 20.6027 66.018 20.0378 66.3423 19.7139C66.3174 19.7228 66.2923 19.7316 66.2665 19.7381L61.1501 21.0455C60.4876 21.2147 60.3074 22.0541 60.845 22.4659L64.9978 25.646C65.2115 25.8095 65.3287 26.0658 65.3115 26.3316L64.9774 31.4989C64.9341 32.1679 65.6923 32.5917 66.2602 32.216L70.5905 29.3521L70.8857 24.7837Z" fill="#F4B537"/>
<path d="M66.7233 19.4976L71.8397 18.1904C72.0945 18.1253 72.3014 17.9448 72.3993 17.7062L70.1268 14.2033C69.7608 13.639 68.8914 13.7339 68.6556 14.364L66.8352 19.2311C66.7932 19.3433 66.7262 19.4423 66.6426 19.5245C66.669 19.5149 66.6951 19.5048 66.7233 19.4976Z" fill="#F4B537"/>
<path d="M57.7996 16.3597C58.5048 15.5221 57.9273 14.2598 56.8224 14.2237L48.2883 13.9452C47.8496 13.9309 47.447 13.7058 47.2121 13.3435L42.6393 6.29465C42.0474 5.38219 40.6415 5.53571 40.2604 6.55442L37.3169 14.4241C37.1655 14.8285 36.8212 15.1352 36.3957 15.2439L28.1229 17.3577C27.0518 17.6314 26.7605 18.9885 27.6297 19.6542L34.3446 24.7964C34.6898 25.0607 34.8795 25.4753 34.8516 25.9047L34.3114 34.2599C34.2415 35.3415 35.4673 36.0269 36.3857 35.4195L43.4792 30.728C43.8439 30.4868 44.3055 30.4364 44.7136 30.5932L52.6527 33.6431C53.6804 34.038 54.7294 33.1043 54.4277 32.0632L52.0969 24.0215C51.9771 23.6082 52.0728 23.1625 52.3529 22.8299L57.7996 16.3597Z" fill="#FECA57"/>
<path d="M41.9705 13.6963C42.3959 13.5876 42.7403 13.2809 42.8916 12.8764L44.361 8.94808L42.6398 6.29475C42.0479 5.38229 40.642 5.53581 40.2611 6.55451L37.3174 14.4242C37.2327 14.6504 37.0861 14.8442 36.9004 14.9918L41.9705 13.6963Z" fill="#F4B537"/>
<path d="M39.8857 32.7122L40.4258 24.3571C40.4538 23.9274 40.2641 23.513 39.9188 23.2487L33.2041 18.1065C32.497 17.565 32.5578 16.5666 33.1811 16.0652L28.1228 17.3576C27.0519 17.6314 26.7604 18.9885 27.6298 19.6542L34.3445 24.7964C34.6897 25.0608 34.8795 25.4753 34.8516 25.9049L34.3115 34.2599C34.2414 35.3417 35.4672 36.0269 36.3856 35.4195L39.9151 33.0852C39.8885 32.9675 39.8772 32.8429 39.8857 32.7122Z" fill="#F4B537"/>
<path d="M67.6037 66.4185C67.4521 64.4387 65.6776 62.9747 63.7144 63.1891L63.7074 63.1898L63.7072 63.1885C63.802 63.1782 63.8988 63.1675 63.9989 63.1565C65.9045 62.9471 67.2791 61.2319 67.0699 59.3268C66.8601 57.4209 65.1465 56.0562 63.2412 56.2657L48.8846 57.8335C48.4845 57.8772 48.1585 57.5172 48.2415 57.1234L49.0803 53.1451C49.7944 49.7594 49.3608 47.5542 48.9427 43.7257C48.6968 41.4738 46.6718 39.8475 44.4199 40.0934C42.3741 40.3168 40.8107 42.0214 40.7643 44.0787C40.7128 46.355 40.9491 50.3668 37.6295 54.3441L35.2866 57.1509C33.9813 58.7147 32.121 59.7116 30.0964 59.9327L27.4615 60.2204L29.9331 82.8543C30.8684 82.7518 31.944 82.634 31.9455 82.6339C36.9438 82.0848 37.0274 87.0851 43.2433 86.4004L64.4016 84.09C66.3049 83.8821 67.6794 82.1708 67.4716 80.2673L67.4715 80.2671C67.2637 78.3638 65.5522 76.9893 63.6489 77.1972L64.2559 77.1309C66.129 76.9263 67.5691 75.2953 67.4271 73.4165C67.2785 71.4522 65.5359 70.0161 63.5934 70.2282L64.4316 70.1367C66.3063 69.932 67.7478 68.2988 67.6037 66.4185Z" stroke="black" stroke-width="2.42751" stroke-miterlimit="10" stroke-linecap="round" stroke-linejoin="round"/>
<path d="M63.9639 77.1639L59.7363 77.6256" stroke="black" stroke-width="2.42751" stroke-miterlimit="10" stroke-linecap="round" stroke-linejoin="round"/>
<path d="M63.3022 70.2615L58.9844 70.733" stroke="black" stroke-width="2.42751" stroke-miterlimit="10" stroke-linecap="round" stroke-linejoin="round"/>
<path d="M63.7081 63.1896L58.2266 63.7882" stroke="black" stroke-width="2.42751" stroke-miterlimit="10" stroke-linecap="round" stroke-linejoin="round"/>
<path d="M79.303 20.45C79.7291 19.933 79.3776 19.1517 78.7079 19.128L73.5361 18.944C73.2702 18.9346 73.0261 18.7949 72.8832 18.5706L70.1025 14.206C69.7426 13.6409 68.8909 13.7339 68.6614 14.3634L66.8884 19.2252C66.7972 19.4751 66.589 19.6642 66.3314 19.7308L61.3212 21.0266C60.6725 21.1943 60.4978 22.0331 61.0255 22.4459L65.1014 25.6344C65.311 25.7984 65.4265 26.0549 65.4103 26.3206L65.0943 31.4859C65.0533 32.1546 65.797 32.58 66.3526 32.2056L70.6449 29.3145C70.8655 29.1659 71.1451 29.1354 71.3928 29.2328L76.2077 31.1295C76.831 31.3751 77.4655 30.7992 77.2811 30.1551L75.8578 25.1797C75.7846 24.9238 75.842 24.6484 76.0113 24.4431L79.303 20.45Z" stroke="black" stroke-width="2.42751" stroke-miterlimit="10" stroke-linecap="round" stroke-linejoin="round"/>
<path d="M25.7737 26.2957C26.1999 25.7787 25.8483 24.9974 25.1787 24.9737L20.007 24.7897C19.7411 24.7803 19.4968 24.6406 19.3539 24.4163L16.5734 20.0517C16.2134 19.4866 15.3616 19.5796 15.1321 20.2091L13.3591 25.0709C13.2679 25.3208 13.0597 25.5099 12.8021 25.5765L7.79187 26.8723C7.14321 27.04 6.96847 27.8788 7.49624 28.2916L11.5723 31.4801C11.7818 31.6441 11.8972 31.9006 11.881 32.1663L11.565 37.3316C11.5242 38.0003 12.2679 38.4257 12.8235 38.0513L17.1156 35.1602C17.3362 35.0116 17.6158 34.9811 17.8635 35.0785L22.6784 36.9752C23.3017 37.2208 23.9362 36.6449 23.7519 36.0008L22.3286 31.0254C22.2553 30.7695 22.3127 30.4941 22.482 30.2888L25.7737 26.2957Z" stroke="black" stroke-width="2.42751" stroke-miterlimit="10" stroke-linecap="round" stroke-linejoin="round"/>
<path d="M24.7088 85.9312L28.42 85.526C29.4047 85.4185 30.1158 84.533 30.0083 83.5483L27.4335 59.9699C27.326 58.9852 26.4405 58.2739 25.4558 58.3814L12.4028 59.8068C11.4181 59.9143 10.707 60.8 10.8145 61.7847L13.3893 85.3631C13.4968 86.3478 14.3823 87.0589 15.367 86.9514L19.0781 86.5461" stroke="black" stroke-width="2.42751" stroke-miterlimit="10" stroke-linecap="round" stroke-linejoin="round"/>
<path d="M53.6642 21.0247L57.4813 16.3942C58.1705 15.5583 57.6018 14.2951 56.5192 14.2566L48.157 13.9593C47.727 13.9441 47.3321 13.7183 47.1011 13.3554L42.605 6.29834C42.023 5.38462 40.6459 5.535 40.2749 6.55279L37.408 14.4139C37.2605 14.8181 36.9239 15.1238 36.5073 15.2315L28.4063 17.3265C27.3574 17.5978 27.0749 18.954 27.9283 19.6214L34.5186 24.7772C34.8575 25.0422 35.0443 25.4569 35.0179 25.8863L34.5071 34.2383C34.4409 35.3197 35.6434 36.0074 36.542 35.4022L43.4819 30.7275C43.8387 30.4871 44.2908 30.4378 44.6911 30.5954L52.4765 33.6621C53.4844 34.0592 54.5101 33.1282 54.2121 32.0866L52.7075 26.827" stroke="black" stroke-width="2.42751" stroke-miterlimit="10" stroke-linecap="round" stroke-linejoin="round"/>
</g>
</g>
<defs>
<clipPath id="clip0_2049_737">
<rect width="82.859" height="82.859" fill="white" transform="translate(0 8.99471) rotate(-6.23199)"/>
</clipPath>
</defs>
</svg>
