<svg width="83" height="83" viewBox="0 0 83 83" fill="none" xmlns="http://www.w3.org/2000/svg">
<g clip-path="url(#clip0_1792_5618)">
<path d="M66.1569 64.3627L62.2402 54.8125" stroke="#FFC107" stroke-width="1.65421" stroke-miterlimit="10" stroke-linecap="round" stroke-linejoin="round"/>
<path d="M41.1504 71.1613L44.2754 78.7814C45.7227 82.3104 50.4484 82.8541 52.6443 79.744C54.9371 76.4968 58.8627 74.8545 62.7575 75.5131C66.4876 76.1439 69.4486 72.3846 68.0013 68.8555" stroke="#FFC107" stroke-width="1.65421" stroke-miterlimit="10" stroke-linecap="round" stroke-linejoin="round"/>
<path d="M43.1972 65.8719L37.9028 78.7817C36.4556 82.3106 31.7298 82.8543 29.534 79.7443C27.2412 76.4971 23.3156 74.8547 19.4209 75.5134C15.6908 76.1441 12.7298 72.3848 14.1771 68.8557L19.9363 54.8125" stroke="#FFC107" stroke-width="1.65421" stroke-miterlimit="10" stroke-linecap="round" stroke-linejoin="round"/>
<path d="M73.19 33.6377C73.19 31.7639 72.4815 30.0577 71.3205 28.7768C69.808 27.1082 69.2023 24.7729 69.6806 22.5627C70.0464 20.8721 69.8138 19.044 68.8893 17.4268C67.9637 15.8074 66.5097 14.6889 64.8743 14.1645C62.7376 13.4794 61.0479 11.7727 60.3696 9.61471C59.8503 7.96297 58.7429 6.49442 57.1396 5.55954C55.5385 4.62595 53.7285 4.39089 52.0545 4.76034C49.8662 5.24343 47.5539 4.63163 45.9019 3.10407C44.6337 1.93137 42.9444 1.21582 41.0891 1.21582C39.2339 1.21582 37.5446 1.93137 36.2764 3.10407C34.6244 4.63163 32.3121 5.24343 30.1238 4.76034C28.4499 4.39089 26.6399 4.62579 25.0387 5.55954C23.4354 6.49442 22.328 7.96297 21.8087 9.61471C21.1304 11.7727 19.4406 13.4794 17.304 14.1645C15.6686 14.6889 14.2146 15.8074 13.289 17.4268C12.3646 19.0438 12.1319 20.8719 12.4977 22.5625C12.976 24.7727 12.3703 27.1081 10.8578 28.7767C9.69675 30.0577 8.98828 31.7639 8.98828 33.6377C8.98828 35.5115 9.69675 37.2177 10.8578 38.4985C12.3703 40.1671 12.976 42.5026 12.4977 44.7127C12.1319 46.4033 12.3645 48.2314 13.289 49.8485C14.2146 51.4678 15.6686 52.5863 17.304 53.1108C19.4406 53.7958 21.1304 55.5025 21.8087 57.6605C22.328 59.3122 23.4353 60.7808 25.0387 61.7157C26.6397 62.6493 28.4498 62.8843 30.1238 62.5149C32.3121 62.0318 34.6244 62.6436 36.2764 64.1712C37.5447 65.3438 39.2339 66.0594 41.0891 66.0594C42.9444 66.0594 44.6337 65.3438 45.9019 64.1712C47.5539 62.6436 49.8662 62.0318 52.0545 62.5149C53.7284 62.8843 55.5384 62.6494 57.1396 61.7157C58.7429 60.7808 59.8503 59.3122 60.3696 57.6605C61.0479 55.5025 62.7376 53.7958 64.8743 53.1108C66.5097 52.5863 67.9637 51.4679 68.8893 49.8485C69.8136 48.2314 70.0464 46.4033 69.6806 44.7125C69.2023 42.5023 69.808 40.167 71.3205 38.4984C72.4815 37.2177 73.19 35.5115 73.19 33.6377Z" stroke="#FFC107" stroke-width="1.65421" stroke-miterlimit="10" stroke-linecap="round" stroke-linejoin="round"/>
<path d="M27.7602 16.7376C31.4192 13.788 36.0533 12.0229 41.088 12.0229C52.8885 12.0229 62.4885 21.7192 62.4885 33.6375C62.4885 45.5558 52.8885 55.252 41.088 55.252C29.2877 55.252 19.6875 45.5558 19.6875 33.6375C19.6875 28.5524 21.4351 23.872 24.3554 20.1764" stroke="#FFC107" stroke-width="1.65421" stroke-miterlimit="10" stroke-linecap="round" stroke-linejoin="round"/>
<path d="M36.75 42.3722C37.5349 43.1649 38.6194 43.6553 39.8171 43.6553H49.5936C51.9891 43.6553 53.931 41.6939 53.931 39.2745V31.471C53.931 29.0515 51.9891 27.0902 49.5936 27.0902H45.3148L47.6864 23.6338C48.2429 22.823 48.211 21.7156 47.5553 20.9843C46.7753 20.1144 45.4631 20.0616 44.6187 20.8313C44.6187 20.8313 39.4827 25.5123 36.9111 27.856" stroke="#FFC107" stroke-width="1.65421" stroke-miterlimit="10" stroke-linecap="round" stroke-linejoin="round"/>
<path d="M30.8184 43.6559H34.3527C35.7723 43.6559 36.923 42.4935 36.923 41.0598V28.7283C36.923 27.2945 35.7722 26.1323 34.3527 26.1323H30.8184C29.3987 26.1323 28.248 27.2946 28.248 28.7283V41.0598C28.248 42.4935 29.3989 43.6559 30.8184 43.6559Z" stroke="#FFC107" stroke-width="1.65421" stroke-miterlimit="10" stroke-linecap="round" stroke-linejoin="round"/>
</g>
<defs>
<clipPath id="clip0_1792_5618">
<rect width="82.1782" height="83" fill="white"/>
</clipPath>
</defs>
</svg>
