<svg width="87" height="87" viewBox="0 0 87 87" fill="none" xmlns="http://www.w3.org/2000/svg">
<rect width="86.8711" height="86.8711" rx="43.4356" fill="white"/>
<rect x="0.241309" y="0.241309" width="86.3885" height="86.3885" rx="43.1942" stroke="#003A9B" stroke-opacity="0.5" stroke-width="0.482617"/>
<path fill-rule="evenodd" clip-rule="evenodd" d="M42.5577 58.81V44.7138C42.9702 44.7531 43.373 44.7727 43.7659 44.7727C45.7404 44.7727 47.5871 44.2521 49.1588 43.3484V58.8198C49.1588 60.1361 48.8543 61.1185 48.2354 61.7668C47.6166 62.4151 46.8209 62.7393 45.8288 62.7393C44.8661 62.7393 44.0901 62.4151 43.481 61.7471C42.8916 61.0693 42.5577 60.1165 42.5577 58.81ZM42.597 25.038C46.6834 23.6039 51.3592 23.6824 54.8464 26.6294C55.4947 27.2286 56.2413 27.9653 56.5262 28.8592C56.8896 29.9594 55.2983 28.7512 55.0625 28.5842C53.923 27.8573 52.7836 27.2482 51.4967 26.8258C44.6205 24.763 38.1078 28.486 34.0606 34.3013C32.4005 36.8553 31.2905 39.5468 30.3868 42.5134C30.2984 42.8376 30.21 43.26 30.0233 43.5448C29.8465 43.869 29.9546 42.6804 29.9546 42.6215C30.1019 41.3936 30.3573 40.2148 30.6618 39.0262C32.538 32.7197 36.6638 27.4545 42.597 25.038ZM50.5242 36.3936C50.5242 39.0753 48.3533 41.256 45.6716 41.256C42.9899 41.256 40.819 39.0851 40.819 36.3936C40.819 33.702 42.9899 31.5311 45.6716 31.5311C48.3533 31.5311 50.5242 33.702 50.5242 36.3936Z" fill="#003A9B"/>
</svg>
