<svg width="87" height="87" viewBox="0 0 87 87" fill="none" xmlns="http://www.w3.org/2000/svg">
<rect width="86.8711" height="86.8711" rx="43.4356" fill="white"/>
<rect x="0.241309" y="0.241309" width="86.3885" height="86.3885" rx="43.1942" stroke="#FF9991" stroke-opacity="0.5" stroke-width="0.482617"/>
<g clip-path="url(#clip0_1800_1499)">
<path d="M41.1353 42.0635L26.166 59.5869C26.7105 61.4398 28.4404 62.7399 30.374 62.7399C31.2156 62.7399 31.9524 62.5295 32.5836 62.1087L50.9961 51.5918L41.1353 42.0635Z" fill="#EA4335"/>
<path d="M58.7832 39.598L50.8913 35.0732L42.4746 43.3851L50.9969 51.5922L58.888 47.1731C60.256 46.4363 61.2032 44.9635 61.2032 43.3851C61.0976 41.8068 60.1512 40.334 58.7832 39.598Z" fill="#FBBC04"/>
<path d="M41.101 44.7522L50.8933 35.0731L32.6911 24.7621C32.0599 24.3413 31.2175 24.1309 30.376 24.1309C28.3775 24.1309 26.5888 25.4988 26.168 27.2876L41.101 44.7522Z" fill="#34A853"/>
<path d="M26.1654 27.2881C26.0605 27.6033 26.0605 28.0249 26.0605 28.4449V58.4317C26.0605 58.8517 26.0605 59.1677 26.1661 59.5885L42.4755 43.3855L26.1654 27.2881Z" fill="#4285F4"/>
</g>
<defs>
<clipPath id="clip0_1800_1499">
<rect width="35.1419" height="38.6094" fill="white" transform="translate(26.0605 24.1309)"/>
</clipPath>
</defs>
</svg>
