<svg width="89" height="89" viewBox="0 0 89 89" fill="none" xmlns="http://www.w3.org/2000/svg">
<path d="M68.1562 7.25917L61.5336 85.149L2.21537 80.1054L8.83804 2.21558L68.1562 7.25917Z" fill="#FFF3DA" stroke="white" stroke-width="0.884615"/>
<path d="M52.8384 77.3682L43.4058 83.1004L45.5139 72.2664L52.8384 77.3682Z" fill="#8AA8BD" stroke="white" stroke-width="0.884615"/>
<path d="M81.7507 36.2704L53.5355 76.7751L45.8239 71.4032L74.039 30.8986L81.7507 36.2704Z" fill="#66DFF6" stroke="white" stroke-width="0.884615"/>
<path d="M76.2638 27.7089C77.7471 25.5795 80.6757 25.0552 82.8054 26.5382C84.935 28.0218 85.4592 30.9512 83.976 33.0809L82.2582 35.5448L74.5459 30.1729L76.2638 27.7089Z" fill="#FF7D97" stroke="white" stroke-width="0.884615"/>
<path d="M20.2577 27.698L52.599 30.4478C53.2397 30.5023 53.7155 31.0657 53.6612 31.7064C53.6067 32.3472 53.0424 32.823 52.4017 32.7686L20.0604 30.0187C19.4198 29.964 18.9447 29.3999 18.9992 28.7592C19.0539 28.1187 19.6172 27.6437 20.2577 27.698Z" fill="black" stroke="white" stroke-width="0.884615"/>
<path d="M19.494 36.6638L30.1684 37.5714C30.8088 37.626 31.2839 38.1893 31.2296 38.8299C31.1752 39.4706 30.6117 39.9464 29.9711 39.8921L19.2967 38.9845C18.6562 38.9299 18.181 38.3658 18.2355 37.7251C18.2902 37.0846 18.8536 36.6096 19.494 36.6638Z" fill="black" stroke="white" stroke-width="0.884615"/>
<path d="M39.9471 38.4031L51.8359 39.4139C52.4764 39.4686 52.9514 40.0319 52.8971 40.6724C52.8427 41.3131 52.2791 41.7889 51.6386 41.7346L39.7498 40.7238C39.1093 40.6691 38.6342 40.105 38.6886 39.4643C38.7433 38.8238 39.3067 38.3488 39.9471 38.4031Z" fill="black" stroke="white" stroke-width="0.884615"/>
<path d="M21.0194 18.7322L53.3607 21.482C54.0015 21.5365 54.4772 22.0999 54.423 22.7406C54.3685 23.3814 53.8041 23.8572 53.1634 23.8027L20.8221 21.0529C20.1815 20.9982 19.7064 20.4341 19.7609 19.7934C19.8156 19.1529 20.379 18.6779 21.0194 18.7322Z" fill="black" stroke="white" stroke-width="0.884615"/>
<path d="M18.7323 45.6296L51.0736 48.3795C51.7142 48.434 52.1901 48.9974 52.1358 49.6381C52.0814 50.2789 51.5171 50.7547 50.8763 50.7002L18.535 47.9504C17.8944 47.8957 17.4193 47.3316 17.4738 46.6909C17.5285 46.0504 18.0919 45.5754 18.7323 45.6296Z" fill="black" stroke="white" stroke-width="0.884615"/>
<path d="M17.9706 54.5954L26.2162 55.2965C26.8568 55.351 27.3327 55.9144 27.2784 56.5551C27.224 57.1959 26.6596 57.6717 26.0189 57.6173L17.7733 56.9162C17.1327 56.8615 16.6576 56.2974 16.7121 55.6567C16.7667 55.0162 17.3301 54.5412 17.9706 54.5954Z" fill="black" stroke="white" stroke-width="0.884615"/>
<path d="M33.4198 55.9094L43.4267 56.7603C44.0673 56.8147 44.5432 57.3782 44.4889 58.0188C44.4344 58.6597 43.8702 59.1355 43.2293 59.081L33.2225 58.2301C32.5819 58.1755 32.1068 57.6114 32.1613 56.9707C32.216 56.3302 32.7794 55.8552 33.4198 55.9094Z" fill="black" stroke="white" stroke-width="0.884615"/>
<path d="M17.2069 63.5618L31.2967 64.7598C31.9372 64.8143 32.4122 65.3777 32.358 66.0183C32.3035 66.659 31.74 67.1348 31.0994 67.0805L17.0096 65.8825C16.369 65.8278 15.8939 65.2637 15.9484 64.623C16.0031 63.9825 16.5665 63.5075 17.2069 63.5618Z" fill="black" stroke="white" stroke-width="0.884615"/>
<path d="M8.53308 0.576891L68.7329 5.69545C69.3734 5.74999 69.8484 6.31332 69.7941 6.95394L69.2496 13.3586C69.195 13.9993 68.6317 14.4742 67.9911 14.4198C67.3504 14.3654 66.8744 13.802 66.9288 13.1612L67.3747 7.91747L9.49661 2.99632L2.9963 79.447L41.8376 82.7496L41.9139 82.3591L44.0662 71.2937C44.0971 71.1347 44.1612 70.984 44.2538 70.8509L64.4274 41.8895L64.4954 41.7924L64.5055 41.6737L64.5057 41.66L65.7037 27.5702C65.7584 26.9296 66.3226 26.4546 66.9632 26.509C67.6037 26.5636 68.0787 27.1269 68.0244 27.7675L67.1569 37.9709L68.1002 36.6163L74.9455 26.7908C76.9329 23.9378 80.8713 23.2329 83.7244 25.2203C86.5772 27.2076 87.2818 31.1461 85.2949 33.9992L65.0878 63.0087L65.0197 63.1058L63.0965 85.7254C63.042 86.3662 62.4786 86.842 61.8379 86.7876L1.63812 81.6691C0.997589 81.6144 0.522473 81.0503 0.576949 80.4096L7.27458 1.63815C7.32925 0.997608 7.8925 0.522629 8.53308 0.576891ZM61.414 68.2818L54.6031 78.0593C54.5333 78.1594 54.4489 78.248 54.3525 78.3213L54.2526 78.3892L47.5938 82.4363L46.4353 83.1405L60.8744 84.3682L62.3572 66.9282L61.414 68.2818ZM45.8815 74.1609L44.6189 80.6534L44.4277 81.6349L45.2824 81.1156L50.9345 77.6807L51.5153 77.3283L50.9573 76.9398L46.5687 73.8822L46.0108 73.4937L45.8815 74.1609ZM73.9682 32.2677L47.0832 70.8632L46.8308 71.2269L47.1935 71.4792L52.995 75.5204L53.3578 75.7727L53.6111 75.4101L80.4952 36.8146L80.7486 36.4509L80.3858 36.1986L74.5843 32.1574L74.2216 31.9051L73.9682 32.2677ZM82.3937 27.131C80.5942 25.8776 78.1099 26.3218 76.8563 28.1215L75.8047 29.6306L75.5523 29.9943L75.915 30.2467L81.7165 34.2879L82.0793 34.5402L82.3326 34.1776L83.3832 32.6684C84.6368 30.8685 84.1933 28.3849 82.3937 27.131Z" fill="black" stroke="white" stroke-width="0.884615"/>
<path d="M67.576 19.3044C67.8813 19.3304 68.1704 19.4803 68.3675 19.7138C68.5643 19.9472 68.664 20.2591 68.6383 20.563C68.6124 20.8669 68.4615 21.1573 68.228 21.3543C67.9944 21.5513 67.6828 21.651 67.3787 21.6252C67.0748 21.5992 66.7843 21.4483 66.5874 21.2148C66.3905 20.9812 66.2916 20.6709 66.3175 20.3657C66.3435 20.0619 66.4935 19.7713 66.7269 19.5743C66.9605 19.3773 67.2708 19.2786 67.576 19.3044Z" fill="black" stroke="white" stroke-width="0.884615"/>
</svg>
