<svg width="93" height="93" viewBox="0 0 93 93" fill="none" xmlns="http://www.w3.org/2000/svg">
<g clip-path="url(#clip0_2049_814)">
<path d="M68.3814 43.3004C56.1922 44.9429 44.9732 36.41 43.3008 24.2249C43.2228 23.6509 43.1906 23.0844 43.1547 22.515L17.5952 25.9909C16.6574 26.1193 16.0013 26.9836 16.1296 27.9216C16.144 28.0259 16.1678 28.1287 16.2009 28.2286L24.9912 54.7088C25.2507 55.4913 26.0304 55.9781 26.8475 55.8678L73.4966 49.5237C77.7796 48.9417 80.9589 45.2613 80.912 40.9391L80.8723 37.1875C77.4735 40.5142 73.0936 42.6576 68.3814 43.3004Z" fill="#FFC107"/>
<path d="M73.9241 84.0596C78.6139 83.4218 81.8986 79.103 81.2608 74.4133C80.6231 69.7236 76.3043 66.4389 71.6145 67.0766C66.9248 67.7144 63.6401 72.0332 64.2779 76.7229C64.9156 81.4127 69.2344 84.6974 73.9241 84.0596Z" fill="#455A64"/>
<path d="M39.9574 88.6788C44.6471 88.041 47.9318 83.7222 47.294 79.0325C46.6563 74.3427 42.3375 71.058 37.6477 71.6958C32.958 72.3336 29.6733 76.6524 30.3111 81.3421C30.9488 86.0318 35.2676 89.3165 39.9574 88.6788Z" fill="#455A64"/>
<path d="M77.9453 62.756L38.7449 68.087C33.0814 68.8452 27.666 65.5144 25.7883 60.1176L11.8813 19.8488L3.08413 21.0451C2.14619 21.1727 1.28235 20.5157 1.1548 19.5778C1.02724 18.6398 1.68425 17.776 2.62219 17.6484L12.812 16.2627C13.6193 16.1527 14.3921 16.626 14.6611 17.3949L29.0294 58.9953C30.3701 62.8501 34.2375 65.2302 38.283 64.6903L77.4833 59.3592C78.4213 59.2317 79.2851 59.8887 79.4127 60.8266C79.5402 61.7646 78.8832 62.6284 77.9453 62.756Z" fill="#455A64"/>
<path d="M67.9188 39.9037C78.2362 38.5005 85.4627 28.9992 84.0595 18.6817C82.6564 8.36431 73.155 1.13784 62.8376 2.54096C52.5202 3.94409 45.2937 13.4455 46.6968 23.7629C48.1 34.0803 57.6013 41.3068 67.9188 39.9037Z" fill="#4CAF50"/>
<path d="M63.1362 30.1757C62.6855 30.2378 62.2287 30.1183 61.8663 29.8433L54.1492 23.9739C53.4059 23.3879 53.2783 22.3101 53.8643 21.5667C54.4361 20.8416 55.4794 20.6997 56.2239 21.2458L62.5785 26.0759L73.2783 12.0077C73.8382 11.2445 74.9107 11.0797 75.6741 11.6394C76.4375 12.1992 76.6022 13.2719 76.0424 14.0352C76.0306 14.0513 76.0187 14.067 76.0064 14.0826L64.2676 29.5167C63.9927 29.8775 63.5858 30.1144 63.1362 30.1757Z" fill="#FAFAFA"/>
<path d="M73.9241 84.0596C69.2344 84.6974 64.9156 81.4127 64.2779 76.7229C63.6401 72.0332 66.9248 67.7144 71.6145 67.0766C76.3043 66.4389 80.623 69.7234 81.2608 74.4133C81.8986 79.1032 78.6139 83.4218 73.9241 84.0596ZM72.0765 70.4732C69.2626 70.8559 67.2917 73.4472 67.6744 76.261C68.0571 79.0749 70.6484 81.0457 73.4622 80.6631C76.2761 80.2804 78.2469 77.6891 77.8643 74.8752C77.4816 72.0614 74.8903 70.0905 72.0765 70.4732Z" fill="black"/>
<path d="M39.9574 88.6788C35.2676 89.3165 30.9488 86.0318 30.3111 81.3421C29.6733 76.6524 32.958 72.3336 37.6477 71.6958C42.3375 71.058 46.6563 74.3427 47.294 79.0325C47.9318 83.7222 44.6472 88.041 39.9574 88.6788ZM38.1097 75.0923C35.2958 75.475 33.325 78.0663 33.7076 80.8802C34.0903 83.694 36.6816 85.6649 39.4954 85.2822C42.3093 84.8995 44.2801 82.3082 43.8975 79.4944C43.5148 76.6806 40.9235 74.7097 38.1097 75.0923Z" fill="black"/>
<path d="M77.9453 62.756L38.7449 68.087C33.0814 68.8452 27.666 65.5144 25.7883 60.1176L11.8813 19.8488L3.08413 21.0451C2.14619 21.1727 1.28235 20.5157 1.1548 19.5778C1.02724 18.6398 1.68425 17.776 2.62219 17.6484L12.812 16.2627C13.6193 16.1527 14.3921 16.626 14.6611 17.3949L29.0294 58.9953C30.3701 62.8501 34.2375 65.2302 38.283 64.6903L77.4833 59.3592C78.4213 59.2317 79.2851 59.8887 79.4127 60.8266C79.5402 61.7646 78.8832 62.6284 77.9453 62.756Z" fill="black"/>
<path d="M73.4953 49.5234L26.8461 55.8675C25.9082 55.9951 25.0443 55.3381 24.9168 54.4001C24.7892 53.4622 25.4462 52.5983 26.3842 52.4708L73.0333 46.1267C75.6037 45.7781 77.5121 43.5696 77.4839 40.9757C77.4512 40.0298 78.1918 39.2365 79.1378 39.2038C80.0837 39.1712 80.877 39.9117 80.9097 40.8577C80.9106 40.8846 80.9109 40.9117 80.9105 40.9387C80.9575 45.2608 77.7783 48.9414 73.4953 49.5234Z" fill="black"/>
<path d="M41.833 26.1538L18.0568 29.3873C17.1188 29.5148 16.255 28.8578 16.1274 27.9199C15.9999 26.9819 16.6569 26.1183 17.5948 25.9907L41.3711 22.7572C42.3091 22.6297 43.1729 23.2867 43.3005 24.2246C43.428 25.1626 42.771 26.0263 41.833 26.1538Z" fill="black"/>
<path d="M67.9188 39.9038C57.6014 41.3069 48.1 34.0804 46.6969 23.7631C45.2937 13.4457 52.52 3.9441 62.8376 2.54096C73.1551 1.13782 82.6564 8.36435 84.0595 18.6817C85.4507 28.9962 78.23 38.49 67.9188 39.9038ZM63.2995 5.93753C54.858 7.08554 48.9454 14.8595 50.0934 23.301C51.2414 31.7425 59.0153 37.6551 67.4568 36.5071C75.8983 35.3591 81.811 27.5852 80.663 19.1437C79.515 10.7022 71.741 4.78952 63.2995 5.93753Z" fill="black"/>
</g>
<rect x="0.497877" y="11.4651" width="81.3846" height="81.3846" transform="rotate(-7.74446 0.497877 11.4651)" stroke="#898989" stroke-opacity="0.1" stroke-width="0.884615"/>
<defs>
<clipPath id="clip0_2049_814">
<rect y="11.0864" width="82.2692" height="82.2692" transform="rotate(-7.74446 0 11.0864)" fill="white"/>
</clipPath>
</defs>
</svg>
