<svg xmlns="http://www.w3.org/2000/svg" width="46" height="52" fill="none" xmlns:v="https://vecta.io/nano"><path d="M33.428 11.449c-1.646-1.498-3.589-2.625-5.7-3.307s-4.341-.904-6.543-.651-4.326.976-6.23 2.121-3.546 2.684-4.816 4.518S8 18.047 7.589 20.246a15.93 15.93 0 0 0 .165 6.634 15.85 15.85 0 0 0 2.852 5.979 15.68 15.68 0 0 0 5.035 4.268v9.302c0 .492.194.965.539 1.313a1.83 1.83 0 0 0 1.301.544h1.84v1.857c0 .493.194.965.539 1.313A1.83 1.83 0 0 0 21.16 52h3.68a1.83 1.83 0 0 0 1.301-.544c.345-.348.539-.821.539-1.313v-1.857h1.84a1.83 1.83 0 0 0 1.301-.544c.345-.348.539-.821.539-1.313v-9.302c2.22-1.194 4.122-2.911 5.544-5.006a15.86 15.86 0 0 0 2.623-7.026 15.91 15.91 0 0 0-.893-7.454c-.888-2.376-2.331-4.5-4.206-6.193zM28.52 40.857v1.857H17.48v-1.857h11.04zm-3.68 9.286h-3.68v-1.857h3.68v1.857zm.92-3.714h-8.28v-1.857h11.04v1.857h-2.76zm3.276-10.704c-.155.077-.286.196-.378.344s-.139.319-.139.494V39h-4.6v-4.259l2.491-2.513c.173-.174.27-.411.27-.657s-.097-.483-.27-.657-.407-.272-.651-.272-.478.098-.651.272L23 33.044l-2.109-2.13c-.173-.174-.407-.272-.651-.272s-.478.098-.651.272-.27.411-.27.657.097.483.27.657l2.491 2.513V39h-4.6v-2.437c0-.174-.049-.344-.14-.491s-.222-.266-.376-.342a13.85 13.85 0 0 1-6.239-6.157c-1.365-2.68-1.831-5.734-1.329-8.704a13.96 13.96 0 0 1 4.114-7.767c2.168-2.071 4.943-3.377 7.909-3.72a14.18 14.18 0 0 1 1.6-.091 13.57 13.57 0 0 1 9.182 3.542 13.92 13.92 0 0 1 3.756 5.585c.779 2.145 1.023 4.45.71 6.712s-1.172 4.412-2.503 6.26a13.82 13.82 0 0 1-5.127 4.334h.001z" fill="#fc0"/><path d="M23 5.571c.244 0 .478-.098.651-.272s.27-.41.27-.657V.929c0-.246-.097-.482-.27-.657S23.244 0 23 0s-.478.098-.651.272-.269.41-.269.657v3.714c0 .246.097.482.269.657s.407.272.651.272z" fill="#000"/><path d="M9.339 10.739c.17.177.402.279.646.283s.48-.089.655-.261.277-.406.281-.652-.089-.484-.258-.661l-.023-.022-2.602-2.627a.92.92 0 0 0-.295-.214c-.111-.051-.232-.079-.354-.082a.91.91 0 0 0-.358.063.92.92 0 0 0-.306.197.93.93 0 0 0-.206.302c-.048.113-.074.235-.075.359s.022.246.069.36a.93.93 0 0 0 .201.305l.023.023 2.602 2.627z" fill="#fc0"/><path d="M4.6 22.286H.92c-.244 0-.478.098-.651.272s-.269.41-.269.657.097.482.269.657.407.272.651.272H4.6c.244 0 .478-.098.651-.272s.269-.41.269-.657-.097-.483-.269-.657-.407-.272-.651-.272z" fill="#000"/><path d="M9.339 35.69l-2.602 2.627a.93.93 0 0 0-.212.298.94.94 0 0 0-.081.357c-.003.123.018.246.062.361a.93.93 0 0 0 .196.309.92.92 0 0 0 .299.208.91.91 0 0 0 .712.006.92.92 0 0 0 .302-.203l.023-.023 2.602-2.627c.165-.175.256-.409.253-.651s-.1-.473-.269-.645a.91.91 0 0 0-.639-.272c-.24-.003-.472.089-.645.255zM37.963 6.799L35.36 9.426a.93.93 0 0 0-.205.298c-.048.112-.074.232-.076.354a.95.95 0 0 0 .064.357.93.93 0 0 0 .194.305.92.92 0 0 0 .295.207c.111.049.23.075.351.077s.241-.02.353-.065a.92.92 0 0 0 .302-.196l.022-.023 2.602-2.627a.93.93 0 0 0 .212-.298c.05-.112.078-.234.081-.357s-.018-.246-.062-.361a.93.93 0 0 0-.196-.309.92.92 0 0 0-.299-.208c-.112-.049-.233-.074-.355-.075a.91.91 0 0 0-.357.069.92.92 0 0 0-.302.203l-.023.023zM36.661 35.69c-.174-.167-.406-.258-.645-.255a.92.92 0 0 0-.639.272.93.93 0 0 0-.269.645c-.003.242.088.476.253.651l2.602 2.627c.174.167.406.258.645.255a.92.92 0 0 0 .639-.272.93.93 0 0 0 .016-1.296l-2.602-2.627z" fill="#fc0"/><path d="M45.08 22.286H41.4c-.244 0-.478.098-.651.272s-.269.41-.269.657.097.482.269.657.407.272.651.272h3.68c.244 0 .478-.098.651-.272s.27-.41.27-.657-.097-.483-.27-.657-.407-.272-.651-.272z" fill="#000"/></svg>