<svg xmlns="http://www.w3.org/2000/svg" width="44" height="40" fill="none" xmlns:v="https://vecta.io/nano"><g clip-path="url(#A)"><g fill="#fc0"><path d="M21.905 11.09c1.423 0 2.787-.712 3.841-2.003.962-1.18 1.514-2.667 1.514-4.083C27.26 2.151 24.958 0 21.905 0S16.55 2.148 16.55 5.003c0 1.416.552 2.904 1.514 4.083 1.053 1.293 2.418 2.003 3.841 2.003zm0-9.549c2.203 0 3.801 1.456 3.801 3.462 0 2.522-2.08 4.546-3.801 4.546-2.106 0-3.801-2.487-3.801-4.546 0-2.002 1.599-3.462 3.801-3.462zm-6.336 16.944l-.545 7.714a.78.78 0 0 0 .038.299.77.77 0 0 0 .15.261c.067.076.148.139.24.184a.78.78 0 0 0 .293.079h.055a.78.78 0 0 0 .529-.207.77.77 0 0 0 .245-.509l.545-7.707a.77.77 0 0 0-.188-.559.78.78 0 0 0-.832-.225.78.78 0 0 0-.263.149.77.77 0 0 0-.186.238c-.046.091-.073.189-.08.29v-.005z"/><path d="M32.439 27.021a.8.8 0 0 0 .542-.28.79.79 0 0 0 .184-.578l-.941-7.799c-.223-3.518-2.389-6.341-5.774-6.854-1.19-.181-3.351-.318-4.481-.319-1.542.027-3.082.132-4.613.317-1.587.216-3.041.997-4.089 2.199-1.101 1.262-1.594 2.875-1.694 4.661-.113 1.961-.861 7.804-.861 7.804-.025.203.032.407.159.568a.78.78 0 0 0 1.09.132.77.77 0 0 0 .292-.514l.868-7.907c.154-2.808 1.829-5.064 4.445-5.417a43.12 43.12 0 0 1 4.399-.303c1.052 0 3.142.133 4.247.301a5.22 5.22 0 0 1 3.137 1.702c.862.983 1.236 2.302 1.318 3.722.119 1.984.954 7.891.954 7.891.03.192.13.367.281.491a.81.81 0 0 0 .538.183zm-5.049-9.25a.78.78 0 0 0-.293.079c-.091.045-.173.108-.24.184a.77.77 0 0 0-.189.559v.006l.546 7.713a.77.77 0 0 0 .245.51.78.78 0 0 0 .529.208h.056a.78.78 0 0 0 .531-.264.77.77 0 0 0 .189-.559l-.546-7.714a.77.77 0 0 0-.263-.53c-.155-.135-.358-.204-.564-.191h-.002zm-.529 16.226l3.735-3.613a.77.77 0 0 0 .213-.367.76.76 0 0 0-.015-.423.77.77 0 0 0-.238-.351.78.78 0 0 0-.389-.173l-5.162-.747-2.308-4.637c-.064-.129-.163-.238-.286-.314a.78.78 0 0 0-.82 0c-.123.076-.222.185-.287.314l-2.308 4.64-5.162.747a.78.78 0 0 0-.389.174.77.77 0 0 0-.238.351.76.76 0 0 0-.015.423.77.77 0 0 0 .212.367L17.138 34l-.881 5.097a.76.76 0 0 0 .046.422.77.77 0 0 0 .264.334.78.78 0 0 0 .82.057L22 37.502l4.613 2.408a.78.78 0 0 0 1.039-.305c.066-.116.1-.246.1-.379a.8.8 0 0 0-.011-.129l-.878-5.099zm-5.223 1.952l-3.585 1.868.684-3.961c.021-.123.012-.249-.027-.368a.77.77 0 0 0-.196-.314l-2.9-2.802 4.008-.578a.78.78 0 0 0 .345-.139.77.77 0 0 0 .24-.282l1.789-3.604 1.789 3.604a.77.77 0 0 0 .24.282.78.78 0 0 0 .345.139l4.009.578-2.901 2.802a.77.77 0 0 0-.196.314c-.039.119-.048.245-.027.368l.684 3.961-3.585-1.868a.76.76 0 0 0-.716 0z"/></g><g fill="#000"><path d="M43.334 31.413l-3.774-.544-1.688-3.392c-.064-.129-.163-.238-.286-.314a.78.78 0 0 0-.82 0c-.123.076-.222.185-.286.314l-1.688 3.392-3.774.544a.78.78 0 0 0-.389.174.77.77 0 0 0-.238.351.76.76 0 0 0-.015.423.77.77 0 0 0 .212.367l2.73 2.641-.645 3.728a.76.76 0 0 0 .046.422.77.77 0 0 0 .264.334.78.78 0 0 0 .82.056l3.375-1.761 3.376 1.761a.78.78 0 0 0 1.039-.305c.066-.116.1-.246.1-.379a.74.74 0 0 0-.011-.129l-.645-3.728 2.73-2.641a.77.77 0 0 0 .213-.367.76.76 0 0 0-.015-.423.77.77 0 0 0-.238-.351.78.78 0 0 0-.389-.173h-.001zm-6.519 5.184L34.47 37.82l.448-2.59c.021-.123.012-.249-.027-.368a.77.77 0 0 0-.196-.314l-1.897-1.834 2.621-.374a.78.78 0 0 0 .345-.139.77.77 0 0 0 .24-.283l1.172-2.355 1.172 2.355a.78.78 0 0 0 .585.422l2.62.374-1.896 1.834c-.09.087-.158.195-.197.313a.76.76 0 0 0-.027.368l.452 2.59-2.344-1.223a.77.77 0 0 0-.727 0zm-23.834-5.184l-3.774-.544-1.688-3.392c-.064-.129-.163-.238-.286-.314a.78.78 0 0 0-.82 0c-.123.076-.222.185-.286.314l-1.688 3.392-3.774.544a.78.78 0 0 0-.389.174.77.77 0 0 0-.238.351.76.76 0 0 0-.015.423.77.77 0 0 0 .212.367l2.73 2.641-.64 3.728a.76.76 0 0 0 .046.422.77.77 0 0 0 .264.334.78.78 0 0 0 .82.056l3.376-1.761 3.375 1.761a.78.78 0 0 0 1.039-.305c.066-.116.1-.246.1-.379a.74.74 0 0 0-.011-.129l-.645-3.728 2.73-2.641a.77.77 0 0 0 .213-.367.76.76 0 0 0-.015-.423.77.77 0 0 0-.238-.351.78.78 0 0 0-.389-.173h-.006zm-6.514 5.184L4.114 37.82l.447-2.59a.76.76 0 0 0-.223-.681l-1.891-1.834 2.62-.374a.78.78 0 0 0 .585-.422l1.172-2.355 1.172 2.355a.77.77 0 0 0 .24.283.78.78 0 0 0 .345.139l2.621.374-1.897 1.834a.77.77 0 0 0-.196.314c-.039.119-.048.245-.027.368l.448 2.59-2.345-1.223a.69.69 0 0 0-.717 0z"/></g></g><defs><clipPath id="A"><path fill="#fff" d="M0 0h44v40H0z"/></clipPath></defs></svg>