<svg xmlns="http://www.w3.org/2000/svg" width="51" height="51" fill="none" xmlns:v="https://vecta.io/nano"><g clip-path="url(#A)"><g fill="#fc0"><path d="M41.425 44.419l-1.909-5.714a5.76 5.76 0 0 0-1.694-2.529 5.78 5.78 0 0 0-2.749-1.315l-5.51-1v-.426a8.31 8.31 0 0 0 2.458-2.178h1.664c.656 0 1.285-.26 1.749-.723s.724-1.09.724-1.745v-9.871a10.68 10.68 0 0 0-3.139-7.561 10.73 10.73 0 0 0-15.158 0 10.68 10.68 0 0 0-3.139 7.561v5.758a3.29 3.29 0 0 0 .742 2.077c.479.587 1.145.991 1.887 1.146a8.23 8.23 0 0 0 1.384 3.195 8.26 8.26 0 0 0 2.583 2.341v.426l-5.506 1c-1.018.185-1.967.639-2.749 1.315s-1.367 1.549-1.694 2.529l-.33.988-2.812-2.802a.82.82 0 0 1-.179-.897.82.82 0 0 1 .179-.267l3.257-3.248-6.112-6.098-3.678 3.672a5.75 5.75 0 0 0-1.69 4.071 5.75 5.75 0 0 0 1.69 4.071l11.141 11.117a5.78 5.78 0 0 0 8.136.025l4.019-3.671-1.255-1.247h17.691zM34.511 28.79a.82.82 0 0 1-.242.582c-.155.154-.364.241-.583.241h-.694a8.18 8.18 0 0 0 .538-1.713 3.3 3.3 0 0 0 .98-.39v1.28zm-.825-2.696V23.26a1.63 1.63 0 0 1 .603 2.236 1.64 1.64 0 0 1-.603.598zm-16.489 0a1.63 1.63 0 0 1-.603-2.236 1.64 1.64 0 0 1 .603-.598v2.834zm0-5.53v.94a3.25 3.25 0 0 0-.825.34v-2.925a9.04 9.04 0 0 1 2.656-6.398 9.08 9.08 0 0 1 12.826 0 9.04 9.04 0 0 1 2.656 6.398v2.925a3.2 3.2 0 0 0-.825-.34v-.94h-.825a9.09 9.09 0 0 1-3.495-.689 9.07 9.07 0 0 1-2.96-1.979l-.966-.963-.966.963a9.08 9.08 0 0 1-2.96 1.978 9.09 9.09 0 0 1-3.495.689h-.825zm1.649 5.758v-4.144a10.7 10.7 0 0 0 6.596-2.924 10.69 10.69 0 0 0 6.596 2.924v4.144a6.52 6.52 0 0 1-.892 3.29h-5.703v1.645h4.348a6.59 6.59 0 0 1-3.379 1.572 6.6 6.6 0 0 1-3.692-.51 6.58 6.58 0 0 1-2.823-2.428 6.56 6.56 0 0 1-1.05-3.569zm9.069 7.846v.039l-2.474 2.468-2.473-2.468v-.039a8.25 8.25 0 0 0 4.947 0zm-14.988 5.057a4.11 4.11 0 0 1 1.21-1.807c.558-.483 1.236-.808 1.964-.94l5.763-1.045L25.44 39l3.575-3.567 5.761 1.045c.727.132 1.405.457 1.964.94s.976 1.108 1.209 1.807l1.189 3.547H22.085l-3.211-3.204-3.568 3.22c-.157.15-.366.234-.583.234s-.426-.084-.583-.234l-1.8-1.796.588-1.769zM5.37 28.707l3.781 3.772-.896.894-3.78-3.773.895-.893zm14.461 19.445c-.773.771-1.821 1.204-2.915 1.204s-2.142-.433-2.915-1.204L2.856 37.034a4.11 4.11 0 0 1-1.208-2.908 4.11 4.11 0 0 1 1.208-2.908l.453-.452 3.78 3.773-.029.03c-.464.463-.724 1.091-.724 1.745a2.47 2.47 0 0 0 .724 1.745l5.912 5.899a2.46 2.46 0 0 0 .804.535c.301.123.623.186.948.185a2.43 2.43 0 0 0 1.719-.694l.062-.056 3.799 3.79-.472.436zm1.69-1.542l-3.79-3.782 1.089-.982 3.783 3.775-1.083.989zM48.527 0H36.984c-.656 0-1.285.26-1.749.723s-.724 1.09-.724 1.745v6.581a2.47 2.47 0 0 0 .724 1.745c.463.463 1.093.723 1.749.723h2.202l-.853 4.961 7.956-4.961h2.237c.656 0 1.285-.26 1.749-.723S51 9.703 51 9.048v-6.58a2.47 2.47 0 0 0-.724-1.745C49.813.26 49.183 0 48.527 0zm.825 9.048a.82.82 0 0 1-.242.582c-.155.154-.364.241-.583.241h-2.711l-5.236 3.265.562-3.265h-4.157c-.219 0-.428-.087-.583-.241a.82.82 0 0 1-.242-.582v-6.58a.82.82 0 0 1 .242-.582c.155-.154.364-.241.583-.241h11.543c.219 0 .428.087.583.241a.82.82 0 0 1 .242.582v6.581z"/></g><path d="M47.702 3.29h-9.894v1.645h9.894V3.29z" fill="#000"/><g fill="#fc0"><path d="M44.404 6.581h-6.596v1.645h6.596V6.581zm3.298 0h-1.649v1.645h1.649V6.581zM25.441 2.468a23.1 23.1 0 0 0-14.345 4.994 23.01 23.01 0 0 0-8.122 12.811l-1.56-2.598L0 18.52l2.898 4.82 4.829-2.891-.848-1.411-2.234 1.337a21.37 21.37 0 0 1 3.737-7.804c1.765-2.32 3.987-4.257 6.529-5.69a21.48 21.48 0 0 1 8.253-2.646 21.49 21.49 0 0 1 8.629.831l.489-1.571c-2.215-.684-4.521-1.03-6.84-1.028z"/></g><path d="M50.599 18.214l-4.829-2.893-2.897 4.818 1.414.846 1.443-2.399c1.172 3.427 1.452 7.095.816 10.66a21.38 21.38 0 0 1-4.453 9.724l1.284 1.028c2.446-3.012 4.091-6.591 4.782-10.406a22.98 22.98 0 0 0-.831-11.418l2.423 1.451.848-1.411z" fill="#000"/></g><defs><clipPath id="A"><path fill="#fff" d="M0 0h51v51H0z"/></clipPath></defs></svg>