<svg xmlns="http://www.w3.org/2000/svg" width="53" height="53" fill="none" xmlns:v="https://vecta.io/nano"><g clip-path="url(#A)"><g fill="#fc0"><path d="M21.201 53a21.21 21.21 0 0 1-21.2-21.2 21.21 21.21 0 0 1 21.2-21.2c.234 0 .459.093.625.259s.259.39.259.625-.093.459-.259.625-.39.259-.625.259c-3.844 0-7.601 1.14-10.797 3.275s-5.687 5.171-7.157 8.721-1.856 7.458-1.106 11.228 2.601 7.232 5.318 9.95 6.18 4.569 9.95 5.319 7.677.365 11.228-1.106a19.43 19.43 0 0 0 8.721-7.157c2.135-3.196 3.275-6.953 3.275-10.797 0-.234.093-.459.259-.625s.39-.259.625-.259.459.093.625.259.259.39.259.625c-.013 11.704-9.496 21.187-21.2 21.2z"/><path d="M14.311 45.692c-.13 0-.265 0-.41-.015-2.601-.184-5.933-2.018-6.745-4.454-.961-2.885-4.911-7.755-6.667-8.627-.21-.105-.369-.289-.443-.511s-.057-.465.048-.675.289-.369.511-.443.465-.057.675.048c2.334 1.164 6.499 6.486 7.555 9.648.552 1.664 3.247 3.114 5.19 3.252.67.051 1.185-.076 1.305-.319.296-.592 0-1.75-.298-2.871-.462-1.775-1.037-3.984.464-5.485 2.149-2.149 2.371-2.473 1.016-3.829-.742-.743-2.925-1.248-4.682-1.656-2.407-.558-4.146-.961-4.668-2.069a1.54 1.54 0 0 1-.14-.685c.006-.236.068-.467.178-.676.635-1.259 2.298-1.622 3.898-1.973 1.889-.412 3.126-.753 3.126-1.693 0-2.14-3.516-5.436-4.748-6.421-.183-.146-.301-.36-.327-.593s.042-.467.188-.65.36-.301.593-.327.467.042.65.188c.552.442 5.41 4.428 5.41 7.802 0 2.429-2.502 2.981-4.514 3.423-1.006.221-2.242.489-2.618.931 1.08.477 2.213.821 3.375 1.026 2.177.505 4.429 1.025 5.53 2.126 2.65 2.657.954 4.357-1.016 6.328-.732.732-.477 1.975 0 3.791.375 1.435.762 2.923.17 4.107a2.64 2.64 0 0 1-1.106 1.045c-.463.232-.985.322-1.5.258zm15.595 5.188a6.6 6.6 0 0 1-.978-.4 3.55 3.55 0 0 1-1.23-.876c-.342-.377-.601-.822-.757-1.307-.101-.479-.098-.975.011-1.452a3.39 3.39 0 0 1 .619-1.314c1.887-2.825 1.887-5.693 1.887-9.668h1.767c0 4.123 0 7.378-2.18 10.648a1.74 1.74 0 0 0-.336.629 1.76 1.76 0 0 0-.056.711c.206.478.591.856 1.073 1.053a4.99 4.99 0 0 0 .712.29l-.532 1.686z"/></g><path d="M32.684 28.267a7.95 7.95 0 0 1-6.31-3.109 7.95 7.95 0 0 1-1.373-6.899 7.95 7.95 0 0 1 4.639-5.288 7.95 7.95 0 0 1 7.019.464c.103.054.194.127.268.216s.131.192.165.303.047.227.037.343-.043.228-.097.331-.127.194-.216.268-.192.131-.303.165a.88.88 0 0 1-.674-.06c-.022-.011-.043-.024-.064-.037-1.299-.75-2.827-1.003-4.298-.71s-2.786 1.11-3.7 2.3-1.363 2.672-1.265 4.169.737 2.907 1.798 3.968 2.471 1.7 3.968 1.798 2.979-.351 4.169-1.265 2.008-2.228 2.3-3.7.04-2.999-.71-4.298c-.11-.202-.136-.44-.074-.661s.209-.41.408-.525.436-.148.659-.091.415.198.536.394a7.95 7.95 0 0 1 0 7.949 7.95 7.95 0 0 1-6.884 3.976z" fill="#000"/><g fill="#fc0"><path d="M32.684 32.683c-1.931.001-3.836-.451-5.562-1.319s-3.224-2.128-4.375-3.679-1.922-3.351-2.253-5.254a12.36 12.36 0 0 1 3.23-10.644c1.332-1.398 2.974-2.466 4.792-3.116s3.765-.865 5.682-.628a12.36 12.36 0 0 1 5.357 1.994.88.88 0 0 1 .375.563c.045.23-.002.468-.132.663a.88.88 0 0 1-.562.375.89.89 0 0 1-.663-.132c-2.189-1.464-4.845-2.061-7.45-1.675a10.61 10.61 0 0 0-5.947 17.994 10.61 10.61 0 0 0 16.319-13.397c-.135-.192-.188-.429-.148-.66s.17-.436.361-.571.429-.188.66-.148a.88.88 0 0 1 .571.362l.023.035a12.36 12.36 0 0 1-10.278 19.238zm0-11.483c-.175 0-.346-.052-.491-.149a.89.89 0 0 1-.326-.396c-.067-.161-.084-.339-.05-.511s.118-.329.242-.452l8.575-8.574V6.183a.89.89 0 0 1 .067-.338.88.88 0 0 1 .191-.287l5.3-5.3a.88.88 0 0 1 .453-.242c.172-.034.349-.017.511.05s.299.18.397.326a.88.88 0 0 1 .149.491V5.3h4.417c.175 0 .346.052.491.149s.259.235.326.397.084.339.05.511-.118.329-.242.452l-5.3 5.3a.88.88 0 0 1-.625.258h-4.934l-8.574 8.575a.87.87 0 0 1-.287.191c-.108.044-.222.067-.338.067zM43.65 10.6h2.802l3.533-3.533h-2.802L43.65 10.6zm-1.249-4.051v2.802l3.533-3.533V3.015l-3.533 3.533z"/></g></g><defs><clipPath id="A"><path fill="#fff" d="M0 0h53v53H0z"/></clipPath></defs></svg>