<svg xmlns="http://www.w3.org/2000/svg" width="42" height="44" fill="none" xmlns:v="https://vecta.io/nano"><g clip-path="url(#A)"><g fill="#fc0"><path d="M35.052 26.079a2.99 2.99 0 0 0-.958-.625c-.358-.146-.744-.221-1.133-.222h-8.977c1.237-2.896 1.237-6.149 0-9.045.003-.025.003-.051 0-.076-.254-.439-.63-.801-1.085-1.045s-.971-.361-1.491-.337a2.86 2.86 0 0 0-1.451.472 2.73 2.73 0 0 0-.978 1.139.63.63 0 0 0-.061.228l-.21 2.894c-.314 1.672-1.247 3.176-2.625 4.231-.551.186-1.557.846-4.182 3.266v-.034a1.39 1.39 0 0 0-.106-.577 1.43 1.43 0 0 0-.336-.487c-.145-.138-.319-.246-.509-.316a1.52 1.52 0 0 0-.598-.092H2.896a1.54 1.54 0 0 0-1.05.415 1.41 1.41 0 0 0-.437 1.015V41.31c.002.381.16.745.438 1.015s.655.422 1.049.424h7.455c.394-.001.772-.153 1.05-.423a1.45 1.45 0 0 0 .438-1.015v-.085c1.643.248 3.169.974 4.375 2.082.492.449 1.143.698 1.82.694H29.68a3.11 3.11 0 0 0 1.593-.449 2.87 2.87 0 0 0 1.095-1.196 2.75 2.75 0 0 0 .252-1.579 2.78 2.78 0 0 0-.656-1.464c.467-.256.858-.624 1.135-1.069a2.96 2.96 0 0 0 .449-1.469 2.79 2.79 0 0 0-.621-1.751c.476-.262.874-.638 1.157-1.091a3.03 3.03 0 0 0 .461-1.498 2.81 2.81 0 0 0-.551-1.692 2.95 2.95 0 0 0 1.186-.803 2.82 2.82 0 0 0 .648-1.252 2.76 2.76 0 0 0-.046-1.399 2.83 2.83 0 0 0-.729-1.209zm-24.631 15.23H2.887h-.044c-.005-.014-.005-.028 0-.042V26.925v-.042h.044 7.464c.003.014.003.028 0 .042V41.31c.011-.006.023-.009.035-.009s.024.003.035.009zm23.625-12.176c-.288.279-.678.437-1.085.44h-2.485a.7.7 0 0 0-.271.052.69.69 0 0 0-.228.151.7.7 0 0 0-.154.221.66.66 0 0 0 0 .523.68.68 0 0 0 .382.372.7.7 0 0 0 .271.052h1.103c.407.003.797.161 1.085.44a1.47 1.47 0 0 1 .33.49 1.44 1.44 0 0 1 .108.576c-.038.407-.218.79-.511 1.085a1.88 1.88 0 0 1-1.099.539c-.3-.094-.613-.143-.927-.144a.75.75 0 0 0-.508.203.69.69 0 0 0 0 .973.75.75 0 0 0 .508.203 1.63 1.63 0 0 1 .534.085h.052c.283.112.524.303.691.55a1.42 1.42 0 0 1 .263.846 1.77 1.77 0 0 1-.526 1.071 1.88 1.88 0 0 1-1.102.52 3.03 3.03 0 0 0-.779-.102.7.7 0 0 0-.271.052.68.68 0 0 0-.228.151c-.066.063-.119.138-.154.221s-.054.172-.054.262a.65.65 0 0 0 .054.261.69.69 0 0 0 .154.221c.066.063.142.117.228.151a.72.72 0 0 0 .271.052 1.51 1.51 0 0 1 .438.068h.053c.344.112.636.338.824.639a1.44 1.44 0 0 1 .2 1.003 1.48 1.48 0 0 1-.525.889c-.274.23-.626.356-.989.355h-11.62a1.44 1.44 0 0 1-.464-.076 1.33 1.33 0 0 1-.394-.245c-1.472-1.349-3.345-2.216-5.355-2.479v-11l.122-.119c3.5-3.275 4.375-3.698 4.541-3.748a.75.75 0 0 0 .289-.135c1.724-1.268 2.892-3.117 3.273-5.178.004-.025.004-.051 0-.076l.219-2.775c.111-.208.281-.382.49-.499a1.4 1.4 0 0 1 1.383 0 1.39 1.39 0 0 1 .516.482c.593 1.419.858 2.946.778 4.475a10.26 10.26 0 0 1-1.242 4.376c-.061.103-.088.221-.079.338.001.116.034.23.096.33s.157.184.262.245a.72.72 0 0 0 .35.093h10.097a1.57 1.57 0 0 1 .859.246 1.49 1.49 0 0 1 .569.669c.117.273.146.573.085.863a1.47 1.47 0 0 1-.429.761v-.017zm-26.031-.051v.085a.68.68 0 0 1-.123.38.71.71 0 0 1-.319.252.74.74 0 0 1-.409.041.73.73 0 0 1-.366-.183.7.7 0 0 1-.21-.491v-.085a.68.68 0 0 1 .131-.376.72.72 0 0 1 .323-.245.74.74 0 0 1 .409-.033c.137.028.262.093.361.189.127.124.2.291.201.465zM29.418 5.889a.67.67 0 0 0-.236-.322.74.74 0 0 0-.376-.152l-5.11-.491-2.039-4.51a.69.69 0 0 0-.263-.305A.71.71 0 0 0 21 0c-.14-.002-.277.037-.394.11a.75.75 0 0 0-.262.305l-2.03 4.51-5.11.491a.75.75 0 0 0-.382.149.71.71 0 0 0-.239.325.69.69 0 0 0 0 .398.79.79 0 0 0 .219.338l3.85 3.266-1.129 4.832a.65.65 0 0 0 .079.355.63.63 0 0 0 .245.313c.111.082.245.129.385.135s.275-.024.394-.093l4.419-2.538 4.375 2.538a.72.72 0 0 0 .779-.043c.111-.081.203-.187.254-.313a.73.73 0 0 0 0-.389l-1.094-4.798 3.85-3.275a.73.73 0 0 0 .219-.338.68.68 0 0 0-.009-.389zm-5.32 3.266a.69.69 0 0 0-.21.305.69.69 0 0 0 0 .355l.875 3.681-3.395-1.946a.79.79 0 0 0-.367-.093.76.76 0 0 0-.359.093l-3.36 1.921.875-3.681c.019-.118.006-.239-.038-.35a.68.68 0 0 0-.215-.284L14.98 6.617l3.885-.347a.89.89 0 0 0 .35-.127.76.76 0 0 0 .236-.288L21 2.386l1.549 3.452a.76.76 0 0 0 .236.288c.108.067.231.111.359.127l3.885.364-2.931 2.538z"/></g><g fill="#000"><path d="M41.965 9.917a.71.71 0 0 0-.228-.322.8.8 0 0 0-.385-.152l-3.596-.288-1.435-3.241c-.058-.12-.148-.223-.262-.296a.75.75 0 0 0-.394-.118.71.71 0 0 0-.394.118.68.68 0 0 0-.263.296l-1.435 3.241-3.596.33c-.141.008-.275.058-.385.144s-.192.2-.236.33-.039.262 0 .389a.74.74 0 0 0 .219.338l2.713 2.302-.788 3.385a.66.66 0 0 0 0 .389.72.72 0 0 0 .245.313.77.77 0 0 0 .385.127.69.69 0 0 0 .394-.093l3.115-1.777 3.115 1.777a.69.69 0 0 0 .394.093c.139-.007.274-.054.385-.135a.63.63 0 0 0 .245-.313.66.66 0 0 0 0-.389l-.796-3.385 2.782-2.335a.69.69 0 0 0 .212-.335c.036-.129.032-.265-.01-.393zm-4.183 2.276a.68.68 0 0 0-.201.296c-.035.119-.035.245 0 .364l.508 2.225-2.065-1.176a.73.73 0 0 0-.359-.093.79.79 0 0 0-.367.093l-2.056 1.176.525-2.251c.035-.119.035-.245 0-.364a.72.72 0 0 0-.21-.296l-1.75-1.523 2.38-.22a.76.76 0 0 0 .359-.127c.081-.085.14-.186.175-.296l.945-2.115.936 2.115a.7.7 0 0 0 .236.288.76.76 0 0 0 .35.127l2.38.22-1.785 1.557zM12.644 9.917c-.042-.129-.123-.242-.232-.326a.72.72 0 0 0-.38-.148l-3.605-.288-1.435-3.241c-.055-.122-.146-.225-.263-.296a.71.71 0 0 0-.394-.118.69.69 0 0 0-.359.118c-.118.069-.21.173-.263.296L4.226 9.155.63 9.485c-.14.009-.275.06-.385.144s-.186.201-.228.33a.59.59 0 0 0 0 .389c.036.132.112.249.219.338l2.712 2.302-.788 3.385a.66.66 0 0 0 0 .389.74.74 0 0 0 .254.313.77.77 0 0 0 .385.127.73.73 0 0 0 .394-.093L6.3 15.332 9.476 17.1a.73.73 0 0 0 .394.093.68.68 0 0 0 .385-.135.7.7 0 0 0 .254-.313.66.66 0 0 0 0-.389l-.787-3.385 2.712-2.31a.66.66 0 0 0 .219-.33.68.68 0 0 0-.009-.415zm-4.182 2.276c-.093.084-.162.188-.201.305a.64.64 0 0 0 0 .364l.499 2.217-2.056-1.176a.79.79 0 0 0-.367-.093.76.76 0 0 0-.359.093L3.92 15.079l.516-2.251a.58.58 0 0 0 0-.364.63.63 0 0 0-.21-.271L2.432 10.67l2.38-.22a.76.76 0 0 0 .35-.127.7.7 0 0 0 .228-.322l.945-2.115.954 2.115a.69.69 0 0 0 .234.286c.103.073.225.118.352.129l2.38.22-1.794 1.557z"/></g></g><defs><clipPath id="A"><path fill="#fff" d="M0 0h42v44H0z"/></clipPath></defs></svg>