<svg xmlns="http://www.w3.org/2000/svg" width="48" height="48" fill="none" xmlns:v="https://vecta.io/nano"><g clip-path="url(#A)"><g fill="#fc0"><path d="M33.143 48H5.714a5.72 5.72 0 0 1-4.038-1.676A5.72 5.72 0 0 1 0 42.286V5.714A5.72 5.72 0 0 1 5.714 0h17.669c.761 0 1.514.152 2.216.446s1.338.725 1.872 1.268l9.759 9.988c1.046 1.069 1.631 2.505 1.629 4.001v8.511c0 .303-.12.594-.335.808s-.505.335-.808.335-.594-.12-.808-.335-.335-.505-.335-.808v-8.511a3.43 3.43 0 0 0-.978-2.4l-9.759-9.989c-.32-.326-.701-.584-1.122-.761s-.873-.268-1.329-.268H5.714a3.43 3.43 0 0 0-3.429 3.429v36.572a3.43 3.43 0 0 0 3.429 3.428h27.429a3.29 3.29 0 0 0 1.258-.246c.139-.057.288-.086.438-.086s.299.03.437.088.264.142.37.249.19.233.247.372.086.288.086.438-.03.299-.088.437-.142.264-.249.37-.233.19-.372.247c-.675.277-1.397.419-2.127.417z"/><path d="M37.246 14.857h-7.532a5.72 5.72 0 0 1-4.038-1.676C24.605 12.11 24.002 10.657 24 9.142V1.5c.009-.297.134-.579.347-.786s.499-.323.796-.323.583.116.796.323.338.489.347.786v7.646a3.43 3.43 0 0 0 3.428 3.428h7.532a1.14 1.14 0 0 1 .808.335c.214.215.335.505.335.808a1.14 1.14 0 0 1-.335.808c-.215.214-.505.335-.808.335v-.003zm-1.817 32.976c-.451.001-.891-.132-1.266-.383L30.492 45a17.11 17.11 0 0 1-5.61-6.17 17.1 17.1 0 0 1-2.026-8.089v-1.954a2.29 2.29 0 0 1 .497-1.416c.32-.403.765-.687 1.265-.806a34.21 34.21 0 0 0 9.572-4.319c.369-.238.799-.365 1.238-.365s.869.127 1.238.365a34.23 34.23 0 0 0 9.572 4.319 2.29 2.29 0 0 1 1.265.806c.319.403.494.902.496 1.416v1.956a17.11 17.11 0 0 1-2.024 8.092 17.1 17.1 0 0 1-5.61 6.172l-3.67 2.447a2.27 2.27 0 0 1-1.267.379zm0-23.668a36.47 36.47 0 0 1-10.259 4.619l-.027 1.959a14.83 14.83 0 0 0 1.754 7.013c1.154 2.157 2.825 3.995 4.862 5.349l3.67 2.443 3.67-2.447a14.83 14.83 0 0 0 4.861-5.348 14.82 14.82 0 0 0 1.755-7.01v-1.956a36.54 36.54 0 0 1-10.286-4.62v-.001zm-1.143 13.549a1.14 1.14 0 0 1-.808-.335l-2.285-2.285c-.214-.214-.335-.505-.335-.808a1.14 1.14 0 0 1 1.95-.808l1.477 1.477 3.764-3.763a1.14 1.14 0 0 1 1.616 0c.214.215.335.505.335.808a1.14 1.14 0 0 1-.335.808l-4.572 4.571a1.14 1.14 0 0 1-.808.335zM17.143 11.429H8a1.14 1.14 0 0 1-.808-.335c-.214-.215-.335-.505-.335-.808a1.14 1.14 0 0 1 .335-.808c.215-.214.505-.335.808-.335h9.143a1.14 1.14 0 0 1 .808.335c.214.215.335.505.335.808a1.14 1.14 0 0 1-.335.808c-.215.214-.505.335-.808.335z"/></g><g fill="#000"><path d="M24 18.286H8a1.14 1.14 0 0 1-.808-.335c-.214-.215-.335-.505-.335-.808a1.14 1.14 0 0 1 .335-.808C7.407 16.121 7.697 16 8 16h16c.303 0 .594.121.808.335s.335.505.335.808a1.14 1.14 0 0 1-.335.808c-.215.214-.505.335-.808.335zm2.285 6.857H8a1.14 1.14 0 0 1-.808-.335c-.214-.215-.335-.505-.335-.808a1.14 1.14 0 0 1 .335-.808c.215-.214.505-.335.808-.335h18.285a1.14 1.14 0 0 1 .808.335c.214.215.335.505.335.808a1.14 1.14 0 0 1-.335.808c-.215.214-.505.335-.808.335z"/></g><g fill="#fc0"><use href="#B"/><path d="M19.428 38.858H8c-.303 0-.594-.12-.808-.335s-.335-.505-.335-.808.12-.594.335-.808.505-.335.808-.335h11.428c.303 0 .594.12.808.335s.335.505.335.808-.12.594-.335.808-.505.335-.808.335z"/></g></g><defs><clipPath id="A"><path fill="#fff" d="M0 0h48v48H0z"/></clipPath><path id="B" d="M19.428 32H8c-.303 0-.594-.12-.808-.335s-.335-.505-.335-.808.12-.594.335-.808.505-.335.808-.335h11.428c.303 0 .594.12.808.335s.335.505.335.808-.12.594-.335.808-.505.335-.808.335z"/></defs></svg>