<svg width="20" height="17" viewBox="0 0 20 17" fill="none" xmlns="http://www.w3.org/2000/svg">
<path fill-rule="evenodd" clip-rule="evenodd" d="M10.2579 0.00436927C8.64951 -0.0491937 7.02452 0.38962 5.62157 1.32609C4.04587 2.37899 2.94468 3.93383 2.43747 5.67198C2.2974 5.65488 2.12967 5.66243 1.93051 5.71876C1.18691 5.92974 0.627647 6.53905 0.376177 7.07568C0.0500218 7.77502 -0.0875319 8.69992 0.0575658 9.65475C0.201658 10.6066 0.603757 11.3911 1.1067 11.8782C1.61114 12.3656 2.18072 12.524 2.74653 12.4051C3.58895 12.2253 4.00664 12.0907 3.8887 11.3059L3.31761 7.50142C3.43279 5.44239 4.49876 3.50407 6.28168 2.3121C8.66812 0.718039 11.7969 0.820135 14.0732 2.56759C15.6567 3.78169 16.5761 5.60082 16.6822 7.51047L16.2829 10.1718C15.3922 12.6093 13.184 14.2976 10.6288 14.5373H8.92739C8.48832 14.5373 8.13476 14.8908 8.13476 15.3294V15.7473C8.13476 16.1862 8.48832 16.5397 8.92739 16.5397H11.0727C11.5115 16.5397 11.8635 16.1862 11.8635 15.7473V15.5288C13.7903 15.0586 15.4721 13.8744 16.5673 12.223L17.2545 12.4053C17.8138 12.5504 18.3902 12.3656 18.8944 11.8785C19.3973 11.3911 19.7992 10.6068 19.9435 9.655C20.0891 8.70018 19.9475 7.77678 19.6251 7.07593C19.3015 6.37509 18.8194 5.92999 18.2629 5.77031C18.0298 5.70317 17.7768 5.67852 17.5598 5.67198C17.1011 4.1003 16.1569 2.67095 14.7959 1.62735C13.4579 0.600603 11.8663 0.0571778 10.2579 0.00436927Z" fill="#FFC107"/>
<path fill-rule="evenodd" clip-rule="evenodd" d="M12.7701 6.84892C13.3372 6.84892 13.7969 7.30861 13.7981 7.87718C13.7969 8.44424 13.3372 8.90518 12.7701 8.90518C12.2016 8.90518 11.7406 8.44424 11.7406 7.87718C11.7406 7.30886 12.2018 6.84892 12.7701 6.84892ZM10.0015 6.84892C10.5698 6.84892 11.0295 7.30861 11.0295 7.87718C11.0295 8.44424 10.5698 8.90518 10.0015 8.90518C9.43263 8.90518 8.97294 8.44424 8.97294 7.87718C8.97294 7.30886 9.43263 6.84892 10.0015 6.84892ZM7.23378 6.84892C7.80084 6.84892 8.26179 7.30861 8.26179 7.87718C8.26179 8.44424 7.80084 8.90518 7.23378 8.90518C6.66546 8.90518 6.20552 8.44424 6.20552 7.87718C6.20552 7.30886 6.66546 6.84892 7.23378 6.84892ZM10.0015 2.43262C6.98634 2.43262 4.55664 4.78235 4.55664 7.87718C4.55664 9.36361 5.11867 10.6773 6.03427 11.6412L5.70938 13.0977C5.60225 13.577 5.93469 13.8994 6.36546 13.6595L7.78777 12.8661C8.46372 13.1595 9.21134 13.3217 10.0015 13.3217C13.0176 13.3217 15.4458 10.9735 15.4458 7.87718C15.4458 4.78235 13.0176 2.43262 10.0015 2.43262Z" fill="#FFC107"/>
</svg>
