<svg width="70" height="70" viewBox="0 0 70 70" fill="none" xmlns="http://www.w3.org/2000/svg">
<g clip-path="url(#clip0_2910_3247)">
<path d="M11.2561 57.266C11.3733 57.2283 11.4913 57.1918 11.6126 57.1617L13.407 56.7386C13.4438 56.7297 10.6833 52.7386 10.2519 52.2957C6.35893 48.2983 2.1875 44.7936 2.1875 38.7476V15.2654C2.18861 14.4085 2.5298 13.587 3.13612 12.9815C3.74244 12.376 4.56431 12.0358 5.42122 12.0358C6.27813 12.0358 7.1 12.376 7.70632 12.9815C8.31264 13.587 8.65382 14.4085 8.65494 15.2654V32.8068C7.94839 33.8246 7.61468 35.0551 7.71013 36.2905C7.80557 37.5258 8.32433 38.6904 9.17884 39.5877L16.6845 47.3703C16.7842 47.4737 16.9033 47.5564 17.0349 47.6137C17.1666 47.6711 17.3083 47.702 17.4519 47.7046C17.5955 47.7072 17.7382 47.6815 17.8718 47.6289C18.0055 47.5764 18.1275 47.498 18.2309 47.3983C18.3342 47.2986 18.417 47.1795 18.4743 47.0479C18.5317 46.9162 18.5625 46.7745 18.5651 46.6309C18.5677 46.4873 18.542 46.3446 18.4895 46.211C18.4369 46.0773 18.3586 45.9553 18.2589 45.8519L10.7532 38.0694C10.1859 37.4741 9.87178 36.6819 9.87693 35.8596C9.88208 35.0373 10.2061 34.249 10.7809 33.6609C11.3886 33.0709 12.2044 32.7442 13.0513 32.7516C13.8983 32.759 14.7083 33.1 15.3056 33.7005L27.9002 46.8885C29.4151 48.4698 30.3562 50.5132 30.5731 52.6922C31.2825 52.4842 32.0298 52.4394 32.759 52.5609C32.5105 49.8648 31.3553 47.3326 29.4821 45.3777C29.4821 45.3777 16.9026 32.2056 16.8874 32.1897C16.113 31.4118 15.1238 30.8829 14.0468 30.6708C12.9699 30.4586 11.8541 30.5729 10.8424 30.999V15.2654C10.841 13.8285 10.2692 12.451 9.25268 11.4355C8.23616 10.42 6.85807 9.84961 5.42122 9.84961C3.98437 9.84961 2.60628 10.42 1.58976 11.4355C0.573244 12.451 0.00144386 13.8285 0 15.2654L0 38.7476C0 45.6643 4.96513 50.0612 9.45442 54.6001C10.2149 55.3695 10.8258 56.2735 11.2561 57.266Z" fill="url(#paint0_linear_2910_3247)"/>
<path d="M64.58 9.84375C63.1427 9.84538 61.7647 10.4171 60.7484 11.4334C59.7321 12.4497 59.1604 13.8277 59.1587 15.265V30.9986C58.1471 30.5725 57.0313 30.4582 55.9543 30.6703C54.8773 30.8825 53.8882 31.4114 53.1137 32.1892C53.0986 32.2051 40.5191 45.3773 40.5191 45.3773C38.6459 47.3322 37.4907 49.8644 37.2422 52.5605C37.9714 52.4389 38.7186 52.4838 39.428 52.6917C39.645 50.5127 40.5861 48.4694 42.1009 46.8881L54.6956 33.7001C55.2929 33.0995 56.1029 32.7586 56.9498 32.7512C57.7968 32.7437 58.6126 33.0704 59.2203 33.6605C59.795 34.2486 60.1191 35.0368 60.1243 35.8591C60.1294 36.6814 59.8152 37.4736 59.2479 38.0689L51.7423 45.8515C51.6426 45.9549 51.5642 46.0769 51.5117 46.2106C51.4591 46.3442 51.4334 46.4869 51.436 46.6305C51.4386 46.7741 51.4695 46.9158 51.5269 47.0474C51.5842 47.1791 51.6669 47.2982 51.7703 47.3979C51.8737 47.4976 51.9957 47.5759 52.1294 47.6285C52.263 47.681 52.4057 47.7067 52.5493 47.7041C52.6929 47.7015 52.8346 47.6707 52.9662 47.6133C53.0979 47.5559 53.217 47.4732 53.3167 47.3698L60.8223 39.5873C61.6768 38.69 62.1956 37.5254 62.291 36.29C62.3865 35.0547 62.0528 33.8242 61.3462 32.8063V15.265C61.3474 14.4081 61.6885 13.5866 62.2949 12.9811C62.9012 12.3756 63.7231 12.0355 64.58 12.0355C65.4369 12.0355 66.2587 12.3756 66.8651 12.9811C67.4714 13.5866 67.8126 14.4081 67.8137 15.265V38.7472C67.8137 44.7932 63.6422 48.298 59.7493 52.2953C59.3179 52.7382 56.5574 56.7293 56.5942 56.7382L58.3886 57.1613C58.5099 57.1915 58.6279 57.2279 58.7451 57.2657C59.1754 56.2731 59.7863 55.3691 60.5468 54.5997C65.036 50.0608 70.0012 45.6638 70.0012 38.7472V15.2649C69.9995 13.8277 69.4279 12.4497 68.4115 11.4334C67.3952 10.4171 66.0173 9.84538 64.58 9.84375Z" fill="url(#paint1_linear_2910_3247)"/>
<path d="M31.2627 54.7767L12.1012 59.2938C11.4634 59.4444 10.8945 59.8043 10.4853 60.3162C10.0761 60.8281 9.8502 61.4623 9.84375 62.1176V67.0851C9.85655 67.8698 10.18 68.6173 10.7431 69.1637C11.3063 69.7102 12.0632 70.0111 12.8478 70.0003H31.9959C32.5217 70.0006 33.0386 69.865 33.4966 69.6068C33.1089 68.9402 32.8673 60.0041 32.8209 57.4797C32.8408 56.6364 33.0731 55.8117 33.4962 55.082C32.8184 54.6975 32.0188 54.5883 31.2627 54.7767Z" fill="url(#paint2_linear_2910_3247)"/>
<path d="M60.1562 67.0844V62.1169C60.1491 61.4594 59.9214 60.8234 59.5096 60.3108C59.0978 59.7982 58.5259 59.4387 57.8854 59.2899C57.8854 59.2899 38.7916 54.789 38.7502 54.7793C36.9637 54.3581 35 55.7132 35 57.603V67.0844C35.0128 67.869 35.3362 68.6166 35.8994 69.163C36.4625 69.7095 37.2194 70.0104 38.0041 69.9996H57.1522C57.9368 70.0104 58.6937 69.7095 59.2569 69.1631C59.82 68.6166 60.1434 67.8691 60.1562 67.0844Z" fill="url(#paint3_linear_2910_3247)"/>
<path d="M52.0712 23.6486C52.6198 23.6481 53.1458 23.4299 53.5338 23.042C53.9218 22.654 54.14 22.128 54.1406 21.5794V16.7019C54.14 16.1532 53.9218 15.6272 53.5338 15.2393C53.1458 14.8514 52.6198 14.6332 52.0712 14.6326H51.5889C51.2067 13.2222 50.6443 11.8669 49.9157 10.6002L50.2591 10.2568C50.6464 9.86844 50.8639 9.34231 50.8639 8.79379C50.8639 8.24527 50.6464 7.71914 50.2591 7.33074L46.8102 3.88153C46.4216 3.49425 45.8954 3.2768 45.3468 3.27685C44.7982 3.2769 44.272 3.49444 43.8835 3.8818L43.5406 4.22469C42.2738 3.49614 40.9185 2.93386 39.508 2.55176V2.06921C39.5073 1.52057 39.2891 0.994582 38.9011 0.606658C38.5132 0.218735 37.9872 0.000558712 37.4385 0H32.5615C32.0128 0.000552923 31.4868 0.218727 31.0989 0.606651C30.7109 0.994575 30.4926 1.52056 30.492 2.06921V2.55172C29.0815 2.93382 27.7261 3.4961 26.4594 4.22465L26.1165 3.88152C25.7279 3.49424 25.2017 3.27679 24.6531 3.27684C24.1045 3.27689 23.5783 3.49443 23.1898 3.88179L19.7404 7.331C19.3532 7.71954 19.1359 8.24569 19.136 8.79417C19.1361 9.34264 19.3536 9.86872 19.7409 10.2571L20.0843 10.6002C19.3557 11.8669 18.7933 13.2222 18.4111 14.6326H17.9288C17.3802 14.6332 16.8542 14.8514 16.4662 15.2393C16.0782 15.6272 15.86 16.1532 15.8594 16.7019V21.5794C15.86 22.128 16.0782 22.654 16.4662 23.042C16.8542 23.4299 17.3802 23.6481 17.9288 23.6486H18.4111C18.7933 25.059 19.3557 26.4143 20.0843 27.681L19.7409 28.0244C19.3536 28.4128 19.1361 28.9389 19.1361 29.4875C19.1361 30.036 19.3536 30.5621 19.7409 30.9505L23.1898 34.3997C23.5784 34.787 24.1046 35.0045 24.6532 35.0044C25.2018 35.0044 25.728 34.7868 26.1165 34.3995L26.4594 34.0566C27.7261 34.7851 29.0815 35.3474 30.492 35.7295V36.212C30.4926 36.7607 30.7109 37.2867 31.0989 37.6746C31.4868 38.0625 32.0128 38.2807 32.5615 38.2812H37.4385C37.9872 38.2807 38.5132 38.0625 38.9011 37.6746C39.2891 37.2867 39.5074 36.7607 39.508 36.212V35.7295C40.9185 35.3474 42.2739 34.7852 43.5406 34.0566L43.8835 34.3997C44.2721 34.787 44.7983 35.0045 45.3469 35.0044C45.8955 35.0044 46.4217 34.7868 46.8102 34.3995L50.2596 30.9502C50.6468 30.5617 50.8641 30.0356 50.864 29.4871C50.8639 28.9386 50.6464 28.4125 50.2591 28.0241L49.9157 27.681C50.6443 26.4143 51.2067 25.059 51.5889 23.6486H52.0712ZM32.6795 36.0938V36.0751C32.6917 36.081 32.7037 36.0879 32.7159 36.0938H32.6795ZM37.3205 36.0938H37.2841C37.2963 36.0879 37.3083 36.081 37.3205 36.0751V36.0938ZM35 27.8906C33.2694 27.8906 31.5777 27.3774 30.1388 26.416C28.6998 25.4545 27.5783 24.088 26.9161 22.4891C26.2538 20.8903 26.0805 19.1309 26.4181 17.4336C26.7557 15.7363 27.5891 14.1771 28.8128 12.9534C30.0365 11.7297 31.5956 10.8964 33.293 10.5588C34.9903 10.2211 36.7496 10.3944 38.3485 11.0567C39.9473 11.7189 41.3139 12.8405 42.2754 14.2794C43.2368 15.7183 43.75 17.41 43.75 19.1406C43.7473 21.4605 42.8246 23.6845 41.1843 25.3249C39.5439 26.9652 37.3198 27.888 35 27.8906Z" fill="url(#paint4_linear_2910_3247)"/>
<path d="M34.4531 13.125C33.0032 13.1267 31.6132 13.7034 30.588 14.7286C29.5627 15.7538 28.986 17.1439 28.9844 18.5938C28.9844 18.8838 29.0996 19.162 29.3047 19.3671C29.5098 19.5723 29.788 19.6875 30.0781 19.6875C30.3682 19.6875 30.6464 19.5723 30.8515 19.3671C31.0566 19.162 31.1719 18.8838 31.1719 18.5938C31.1728 17.7238 31.5188 16.8898 32.134 16.2746C32.7491 15.6595 33.5832 15.3134 34.4531 15.3125C34.7432 15.3125 35.0214 15.1973 35.2265 14.9921C35.4316 14.787 35.5469 14.5088 35.5469 14.2188C35.5469 13.9287 35.4316 13.6505 35.2265 13.4454C35.0214 13.2402 34.7432 13.125 34.4531 13.125Z" fill="url(#paint5_linear_2910_3247)"/>
</g>
<defs>
<linearGradient id="paint0_linear_2910_3247" x1="16.3795" y1="9.84961" x2="16.3795" y2="57.266" gradientUnits="userSpaceOnUse">
<stop stop-color="#FFC107"/>
<stop offset="1" stop-color="#E49D56"/>
</linearGradient>
<linearGradient id="paint1_linear_2910_3247" x1="53.6217" y1="9.84375" x2="53.6217" y2="57.2657" gradientUnits="userSpaceOnUse">
<stop stop-color="#FFC107"/>
<stop offset="1" stop-color="#E49D56"/>
</linearGradient>
<linearGradient id="paint2_linear_2910_3247" x1="21.6702" y1="54.6865" x2="21.6702" y2="70.0006" gradientUnits="userSpaceOnUse">
<stop stop-color="#FFC107"/>
<stop offset="1" stop-color="#E49D56"/>
</linearGradient>
<linearGradient id="paint3_linear_2910_3247" x1="47.5781" y1="54.7021" x2="47.5781" y2="69.9999" gradientUnits="userSpaceOnUse">
<stop stop-color="#FFC107"/>
<stop offset="1" stop-color="#E49D56"/>
</linearGradient>
<linearGradient id="paint4_linear_2910_3247" x1="35" y1="0" x2="35" y2="38.2812" gradientUnits="userSpaceOnUse">
<stop stop-color="#FFC107"/>
<stop offset="1" stop-color="#E49D56"/>
</linearGradient>
<linearGradient id="paint5_linear_2910_3247" x1="32.2656" y1="13.125" x2="32.2656" y2="19.6875" gradientUnits="userSpaceOnUse">
<stop stop-color="#FFC107"/>
<stop offset="1" stop-color="#E49D56"/>
</linearGradient>
<clipPath id="clip0_2910_3247">
<rect width="70" height="70" fill="white"/>
</clipPath>
</defs>
</svg>
