<svg width="53" height="70" viewBox="0 0 53 70" fill="none" xmlns="http://www.w3.org/2000/svg">
<path d="M52.1844 11.6693L42.1844 0.419313C42.0671 0.287448 41.9232 0.181912 41.7621 0.109643C41.6011 0.0373737 41.4265 7.55774e-06 41.25 0H1.25C0.918479 0 0.600537 0.131696 0.366117 0.366117C0.131696 0.600537 0 0.918479 0 1.25V68.75C0 69.0815 0.131696 69.3995 0.366117 69.6339C0.600537 69.8683 0.918479 70 1.25 70H51.25C51.5815 70 51.8995 69.8683 52.1339 69.6339C52.3683 69.3995 52.5 69.0815 52.5 68.75V12.5C52.5 12.1938 52.3878 11.8983 52.1844 11.6693ZM50 67.5H2.5V2.5H40V13.75C40 14.0815 40.1317 14.3995 40.3661 14.6339C40.6005 14.8683 40.9185 15 41.25 15H50V67.5ZM7.5 18.75V8.75C7.5 8.41848 7.6317 8.10054 7.86612 7.86612C8.10054 7.6317 8.41848 7.5 8.75 7.5H33.75C34.0815 7.5 34.3995 7.6317 34.6339 7.86612C34.8683 8.10054 35 8.41848 35 8.75V18.75C35 19.0815 34.8683 19.3995 34.6339 19.6339C34.3995 19.8683 34.0815 20 33.75 20H8.75C8.41848 20 8.10054 19.8683 7.86612 19.6339C7.6317 19.3995 7.5 19.0815 7.5 18.75ZM7.5 25C7.5 24.6685 7.6317 24.3505 7.86612 24.1161C8.10054 23.8817 8.41848 23.75 8.75 23.75H20C20.3315 23.75 20.6495 23.8817 20.8839 24.1161C21.1183 24.3505 21.25 24.6685 21.25 25C21.25 25.3315 21.1183 25.6495 20.8839 25.8839C20.6495 26.1183 20.3315 26.25 20 26.25H8.75C8.41848 26.25 8.10054 26.1183 7.86612 25.8839C7.6317 25.6495 7.5 25.3315 7.5 25ZM8.75 28.75H43.75C44.0815 28.75 44.3995 28.8817 44.6339 29.1161C44.8683 29.3505 45 29.6685 45 30C45 30.3315 44.8683 30.6495 44.6339 30.8839C44.3995 31.1183 44.0815 31.25 43.75 31.25H8.75C8.41848 31.25 8.10054 31.1183 7.86612 30.8839C7.6317 30.6495 7.5 30.3315 7.5 30C7.5 29.6685 7.6317 29.3505 7.86612 29.1161C8.10054 28.8817 8.41848 28.75 8.75 28.75ZM45 35C45 35.3315 44.8683 35.6495 44.6339 35.8839C44.3995 36.1183 44.0815 36.25 43.75 36.25H8.75C8.41848 36.25 8.10054 36.1183 7.86612 35.8839C7.6317 35.6495 7.5 35.3315 7.5 35C7.5 34.6685 7.6317 34.3505 7.86612 34.1161C8.10054 33.8817 8.41848 33.75 8.75 33.75H43.75C44.0815 33.75 44.3995 33.8817 44.6339 34.1161C44.8683 34.3505 45 34.6685 45 35ZM35 43.75C33.0222 43.75 31.0888 44.3365 29.4443 45.4353C27.7998 46.5341 26.5181 48.0959 25.7612 49.9232C25.0043 51.7504 24.8063 53.7611 25.1921 55.7009C25.578 57.6407 26.5304 59.4225 27.9289 60.8211C29.3275 62.2196 31.1093 63.172 33.0491 63.5579C34.9889 63.9437 36.9996 63.7457 38.8268 62.9888C40.6541 62.2319 42.2159 60.9502 43.3147 59.3057C44.4135 57.6612 45 55.7278 45 53.75C44.997 51.0988 43.9424 48.557 42.0677 46.6823C40.193 44.8076 37.6512 43.753 35 43.75ZM35 61.25C33.5166 61.25 32.0666 60.8101 30.8332 59.986C29.5999 59.1619 28.6386 57.9906 28.0709 56.6201C27.5032 55.2497 27.3547 53.7417 27.6441 52.2868C27.9335 50.832 28.6478 49.4956 29.6967 48.4467C30.7456 47.3978 32.082 46.6835 33.5368 46.3941C34.9917 46.1047 36.4997 46.2532 37.8701 46.8209C39.2406 47.3886 40.4119 48.3499 41.236 49.5832C42.0601 50.8166 42.5 52.2666 42.5 53.75C42.4978 55.7385 41.707 57.6449 40.3009 59.0509C38.8949 60.457 36.9885 61.2478 35 61.25ZM28.8763 55H41.1236C40.8355 56.4115 40.0687 57.6801 38.9528 58.5912C37.8369 59.5024 36.4406 60 35 60C33.5594 60 32.163 59.5024 31.0472 58.5912C29.9313 57.6801 29.1644 56.4115 28.8763 55ZM41.1236 52.5H28.8763C29.1644 51.0885 29.9313 49.8199 31.0472 48.9088C32.163 47.9976 33.5594 47.5 35 47.5C36.4406 47.5 37.8369 47.9976 38.9528 48.9088C40.0687 49.8199 40.8355 51.0885 41.1236 52.5ZM18.75 62.5C18.75 62.8315 18.6183 63.1495 18.3839 63.3839C18.1495 63.6183 17.8315 63.75 17.5 63.75H8.75C8.41848 63.75 8.10054 63.6183 7.86612 63.3839C7.6317 63.1495 7.5 62.8315 7.5 62.5C7.5 62.1685 7.6317 61.8505 7.86612 61.6161C8.10054 61.3817 8.41848 61.25 8.75 61.25H17.5C17.8315 61.25 18.1495 61.3817 18.3839 61.6161C18.6183 61.8505 18.75 62.1685 18.75 62.5Z" fill="url(#paint0_linear_2910_3179)"/>
<defs>
<linearGradient id="paint0_linear_2910_3179" x1="26.25" y1="0" x2="26.25" y2="70" gradientUnits="userSpaceOnUse">
<stop stop-color="#FFC107"/>
<stop offset="1" stop-color="#E49D56"/>
</linearGradient>
</defs>
</svg>
