<svg width="70" height="70" viewBox="0 0 70 70" fill="none" xmlns="http://www.w3.org/2000/svg">
<path d="M60.879 9.12101C50.273 -1.59112 32.773 -1.59112 22.1669 9.12101C11.4548 19.8331 11.4548 37.2271 22.1669 47.9392C32.879 58.6513 50.273 58.6513 60.9851 47.9392C71.5911 37.121 71.5912 19.7271 60.879 9.12101ZM59.3942 46.3483C49.5305 56.2119 33.5154 56.2119 23.6518 46.3483C13.7881 36.4846 13.7881 20.4695 23.6518 10.6059C33.5154 0.742217 49.5305 0.742217 59.3942 10.6059C69.2578 20.4695 69.2578 36.4846 59.3942 46.3483Z" fill="url(#paint0_linear_2910_3262)"/>
<path d="M26.4096 53.8783L13.5762 66.8177C10.7126 69.6813 6.04593 69.6813 3.28835 66.8177C0.424716 63.9541 0.424716 59.2874 3.28835 56.4238L16.1217 43.4844C17.3944 45.6056 18.8793 47.5147 20.6823 49.3177C22.3793 51.1207 24.2883 52.7116 26.4096 53.8783Z" fill="url(#paint1_linear_2910_3262)"/>
<path d="M41.4697 25.5596C39.8788 25.5596 38.5 26.8323 38.5 28.5293C38.5 30.1202 39.7727 31.499 41.4697 31.499C43.0606 31.499 44.4394 30.2262 44.4394 28.5293C44.4394 26.8323 43.1667 25.5596 41.4697 25.5596Z" fill="url(#paint2_linear_2910_3262)"/>
<path d="M59.6051 27.7871C59.2869 27.3628 51.4384 17.8174 41.4688 17.8174C31.4991 17.8174 23.6506 27.4689 23.3324 27.7871C23.0142 28.2113 23.0142 28.7416 23.3324 29.1659C23.6506 29.5901 31.4991 39.1356 41.4688 39.1356C51.4384 39.1356 59.2869 29.5901 59.6051 29.1659C59.9233 28.7416 59.9233 28.2113 59.6051 27.7871ZM41.4688 33.5144C38.7112 33.5144 36.3778 31.2871 36.3778 28.4234C36.3778 25.6659 38.6051 23.3325 41.4688 23.3325C44.2263 23.3325 46.5597 25.5598 46.5597 28.4234C46.5597 31.2871 44.3324 33.5144 41.4688 33.5144Z" fill="url(#paint3_linear_2910_3262)"/>
<path d="M41.4669 41.8936C40.8305 41.8936 40.4062 42.3178 40.4062 42.9542V45.4996C40.4062 46.136 40.8305 46.5602 41.4669 46.5602C42.1032 46.5602 42.5275 46.136 42.5275 45.4996V42.9542C42.5275 42.4239 42.1032 41.8936 41.4669 41.8936Z" fill="url(#paint4_linear_2910_3262)"/>
<path d="M51.7562 39.4539C51.3319 39.0297 50.6955 39.0297 50.2713 39.4539C49.8471 39.8782 49.8471 40.5145 50.2713 40.9388L52.0743 42.7418C52.4986 43.166 53.1349 43.166 53.5592 42.7418C53.9834 42.3176 53.9834 41.6812 53.5592 41.257L51.7562 39.4539Z" fill="url(#paint5_linear_2910_3262)"/>
<path d="M51.7562 17.4996L53.5592 15.6966C53.9834 15.2723 53.9834 14.636 53.5592 14.2117C53.1349 13.7875 52.4986 13.7875 52.0743 14.2117L50.2713 16.0148C49.8471 16.439 49.8471 17.0754 50.2713 17.4996C50.5895 17.9239 51.3319 17.9239 51.7562 17.4996Z" fill="url(#paint6_linear_2910_3262)"/>
<path d="M41.4669 15.0602C42.1032 15.0602 42.5275 14.636 42.5275 13.9996V11.4542C42.5275 10.8178 42.1032 10.3936 41.4669 10.3936C40.8305 10.3936 40.4062 10.8178 40.4062 11.4542V13.9996C40.4062 14.5299 40.9366 15.0602 41.4669 15.0602Z" fill="url(#paint7_linear_2910_3262)"/>
<path d="M31.2853 17.4996C31.7095 17.9239 32.3459 17.9239 32.7701 17.4996C33.1944 17.0754 33.1944 16.439 32.7701 16.0148L30.9671 14.2117C30.5429 13.7875 29.9065 13.7875 29.4822 14.2117C29.058 14.636 29.058 15.2723 29.4822 15.6966L31.2853 17.4996Z" fill="url(#paint8_linear_2910_3262)"/>
<path d="M31.2853 39.4539L29.4822 41.257C29.058 41.6812 29.058 42.3176 29.4822 42.7418C29.9065 43.166 30.5429 43.166 30.9671 42.7418L32.7701 40.9388C33.1944 40.5145 33.1944 39.8782 32.7701 39.4539C32.4519 39.0297 31.7095 39.0297 31.2853 39.4539Z" fill="url(#paint9_linear_2910_3262)"/>
<defs>
<linearGradient id="paint0_linear_2910_3262" x1="41.5296" y1="1.08691" x2="41.5296" y2="55.9733" gradientUnits="userSpaceOnUse">
<stop stop-color="#FFC107"/>
<stop offset="1" stop-color="#E49D56"/>
</linearGradient>
<linearGradient id="paint1_linear_2910_3262" x1="13.7751" y1="43.4844" x2="13.7751" y2="68.9654" gradientUnits="userSpaceOnUse">
<stop stop-color="#FFC107"/>
<stop offset="1" stop-color="#E49D56"/>
</linearGradient>
<linearGradient id="paint2_linear_2910_3262" x1="41.4697" y1="25.5596" x2="41.4697" y2="31.499" gradientUnits="userSpaceOnUse">
<stop stop-color="#FFC107"/>
<stop offset="1" stop-color="#E49D56"/>
</linearGradient>
<linearGradient id="paint3_linear_2910_3262" x1="41.4688" y1="17.8174" x2="41.4688" y2="39.1356" gradientUnits="userSpaceOnUse">
<stop stop-color="#FFC107"/>
<stop offset="1" stop-color="#E49D56"/>
</linearGradient>
<linearGradient id="paint4_linear_2910_3262" x1="41.4669" y1="41.8936" x2="41.4669" y2="46.5602" gradientUnits="userSpaceOnUse">
<stop stop-color="#FFC107"/>
<stop offset="1" stop-color="#E49D56"/>
</linearGradient>
<linearGradient id="paint5_linear_2910_3262" x1="51.9152" y1="39.1357" x2="51.9152" y2="43.06" gradientUnits="userSpaceOnUse">
<stop stop-color="#FFC107"/>
<stop offset="1" stop-color="#E49D56"/>
</linearGradient>
<linearGradient id="paint6_linear_2910_3262" x1="51.9152" y1="13.8936" x2="51.9152" y2="17.8178" gradientUnits="userSpaceOnUse">
<stop stop-color="#FFC107"/>
<stop offset="1" stop-color="#E49D56"/>
</linearGradient>
<linearGradient id="paint7_linear_2910_3262" x1="41.4669" y1="10.3936" x2="41.4669" y2="15.0602" gradientUnits="userSpaceOnUse">
<stop stop-color="#FFC107"/>
<stop offset="1" stop-color="#E49D56"/>
</linearGradient>
<linearGradient id="paint8_linear_2910_3262" x1="31.1262" y1="13.8936" x2="31.1262" y2="17.8178" gradientUnits="userSpaceOnUse">
<stop stop-color="#FFC107"/>
<stop offset="1" stop-color="#E49D56"/>
</linearGradient>
<linearGradient id="paint9_linear_2910_3262" x1="31.1262" y1="39.1357" x2="31.1262" y2="43.06" gradientUnits="userSpaceOnUse">
<stop stop-color="#FFC107"/>
<stop offset="1" stop-color="#E49D56"/>
</linearGradient>
</defs>
</svg>
