<svg width="70" height="70" viewBox="0 0 70 70" fill="none" xmlns="http://www.w3.org/2000/svg">
<path d="M67.4641 13.3438C67.4644 12.2026 67.0119 11.108 66.2061 10.3001C65.4002 9.49219 64.3067 9.03698 63.1656 9.03438H53.0375C52.9583 8.31739 52.6179 7.65465 52.0813 7.17254C51.5447 6.69042 50.8495 6.42266 50.1281 6.42031H49.4172C49.2433 6.41938 49.075 6.35931 48.9398 6.24998C48.8046 6.14065 48.7107 5.98857 48.6734 5.81875L48.4219 4.55C48.2859 3.88407 47.9245 3.28541 47.3984 2.85503C46.8724 2.42464 46.214 2.18887 45.5344 2.1875H35.1109C34.4332 2.19138 33.7773 2.42829 33.2536 2.85847C32.7298 3.28864 32.3699 3.8859 32.2344 4.55L31.9828 5.81875C31.9456 5.98857 31.8516 6.14065 31.7164 6.24998C31.5813 6.35931 31.4129 6.41938 31.2391 6.42031H30.5172C29.7975 6.42462 29.1046 6.69334 28.5701 7.17534C28.0357 7.65733 27.6971 8.31897 27.6187 9.03438H17.4797C16.3403 9.03929 15.2493 9.49559 14.4457 10.3033C13.642 11.111 13.1913 12.2043 13.1922 13.3438V16.7344H6.36719C5.35191 16.7344 4.37821 17.1377 3.66029 17.8556C2.94238 18.5735 2.53906 19.5472 2.53906 20.5625V36.6734C2.53964 37.6895 2.94279 38.664 3.66027 39.3836C4.37774 40.1031 5.35108 40.509 6.36719 40.5125H13.1922V63.5141C13.1916 64.6524 13.6428 65.7444 14.4467 66.5503C15.2505 67.3562 16.3414 67.8102 17.4797 67.8125H63.1656C64.3056 67.8122 65.3987 67.3592 66.2048 66.5532C67.0108 65.7471 67.4638 64.654 67.4641 63.5141V13.3438ZM29.7734 9.3625C29.7724 9.26403 29.7909 9.16634 29.8278 9.07503C29.8647 8.98373 29.9192 8.90061 29.9884 8.83048C30.0575 8.76034 30.1398 8.70456 30.2305 8.66635C30.3213 8.62813 30.4187 8.60824 30.5172 8.60781H31.2391C31.9187 8.60644 32.5771 8.37067 33.1031 7.94029C33.6292 7.5099 33.9906 6.91124 34.1266 6.24531L34.3781 4.97656C34.4122 4.80717 34.5037 4.65475 34.6373 4.54512C34.7708 4.4355 34.9382 4.37539 35.1109 4.375H45.5344C45.7089 4.37348 45.8785 4.43266 46.0141 4.54239C46.1498 4.65213 46.2431 4.80561 46.2781 4.97656L46.5297 6.24531C46.6656 6.91124 47.0271 7.5099 47.5531 7.94029C48.0791 8.37067 48.7375 8.60644 49.4172 8.60781H50.1281C50.3282 8.6081 50.52 8.68771 50.6614 8.82917C50.8029 8.97064 50.8825 9.16243 50.8828 9.3625V12.1516C50.8825 12.3516 50.8029 12.5434 50.6614 12.6849C50.52 12.8264 50.3282 12.906 50.1281 12.9062H30.5172C30.4187 12.9058 30.3213 12.8859 30.2305 12.8477C30.1398 12.8095 30.0575 12.7537 29.9884 12.6836C29.9192 12.6134 29.8647 12.5303 29.8278 12.439C29.7909 12.3477 29.7724 12.25 29.7734 12.1516V9.3625ZM24.9281 31.7188L25.4641 34.8141C25.4741 34.8637 25.4691 34.9153 25.4496 34.9621C25.4301 35.0089 25.3971 35.0487 25.3547 35.0766C25.3147 35.1077 25.2664 35.1265 25.2158 35.1303C25.1652 35.1342 25.1146 35.1231 25.0703 35.0984L22.2813 33.6328C21.9281 33.4496 21.5361 33.3539 21.1383 33.3539C20.7404 33.3539 20.3484 33.4496 19.9953 33.6328L17.2063 35.0984C17.1619 35.1231 17.1113 35.1342 17.0608 35.1303C17.0102 35.1265 16.9619 35.1077 16.9219 35.0766C16.8786 35.0496 16.8448 35.0099 16.8252 34.9628C16.8056 34.9158 16.8012 34.8638 16.8125 34.8141L17.3484 31.7078C17.4136 31.3146 17.383 30.9114 17.2593 30.5326C17.1355 30.1537 16.9222 29.8102 16.6375 29.5312L14.3844 27.3438C14.3474 27.3076 14.3215 27.2616 14.3099 27.2112C14.2982 27.1608 14.3013 27.1081 14.3188 27.0594C14.3315 27.0095 14.3593 26.9649 14.3985 26.9316C14.4377 26.8983 14.4863 26.878 14.5375 26.8734L17.6437 26.425C18.0391 26.3671 18.4146 26.2145 18.7384 25.9803C19.0621 25.7461 19.3245 25.4371 19.5031 25.0797L20.8922 22.2578C20.9118 22.2107 20.9454 22.1708 20.9884 22.1435C21.0315 22.1161 21.0819 22.1025 21.1328 22.1047C21.1855 22.1009 21.238 22.1136 21.2831 22.141C21.3282 22.1685 21.3636 22.2093 21.3844 22.2578L22.7734 25.0797C22.9521 25.4371 23.2145 25.7461 23.5382 25.9803C23.8619 26.2145 24.2374 26.3671 24.6328 26.425L27.7391 26.8734C27.7903 26.878 27.8389 26.8983 27.878 26.9316C27.9172 26.9649 27.9451 27.0095 27.9578 27.0594C27.9753 27.1081 27.9783 27.1608 27.9667 27.2112C27.9551 27.2616 27.9292 27.3076 27.8922 27.3438L25.6391 29.5312C25.3534 29.8119 25.1397 30.1572 25.0159 30.538C24.8922 30.9188 24.8621 31.3238 24.9281 31.7188ZM65.2766 63.5141C65.2763 64.0738 65.0538 64.6106 64.658 65.0064C64.2621 65.4022 63.7254 65.6247 63.1656 65.625H17.4797C16.9216 65.6224 16.3874 65.3988 15.9938 65.0032C15.6002 64.6076 15.3794 64.0721 15.3797 63.5141V40.5125H35.9094C36.9255 40.509 37.8988 40.1031 38.6163 39.3836C39.3338 38.664 39.7369 37.6895 39.7375 36.6734V20.5625C39.7375 19.5472 39.3342 18.5735 38.6163 17.8556C37.8984 17.1377 36.9247 16.7344 35.9094 16.7344H15.3797V13.3438C15.3771 12.784 15.5968 12.2461 15.9905 11.8482C16.3843 11.4503 16.9199 11.2251 17.4797 11.2219H27.5859V12.1516C27.5856 12.9301 27.894 13.6769 28.4435 14.2285C28.993 14.78 29.7387 15.0911 30.5172 15.0938H50.1281C50.9084 15.0935 51.6565 14.7834 52.2082 14.2317C52.7599 13.68 53.07 12.9318 53.0703 12.1516V11.2219H63.1656C63.4436 11.2223 63.7188 11.2776 63.9755 11.3845C64.2321 11.4914 64.4651 11.6479 64.6612 11.845C64.8573 12.0421 65.0126 12.2759 65.1181 12.5331C65.2237 12.7903 65.2776 13.0657 65.2766 13.3438V63.5141Z" fill="url(#paint0_linear_2910_3255)"/>
<path d="M33.0523 42.6348C31.9703 42.6348 30.9327 43.0646 30.1676 43.8297C29.4025 44.5948 28.9727 45.6325 28.9727 46.7145V56.766C28.9727 57.3011 29.078 57.8308 29.2828 58.3252C29.4875 58.8195 29.7876 59.2686 30.166 59.6469C30.5443 60.0253 30.9934 60.3254 31.4877 60.5301C31.982 60.7348 32.5118 60.8402 33.0469 60.8402C33.5819 60.8402 34.1117 60.7348 34.606 60.5301C35.1003 60.3254 35.5495 60.0253 35.9278 59.6469C36.3061 59.2686 36.6062 58.8195 36.811 58.3252C37.0157 57.8308 37.1211 57.3011 37.1211 56.766V46.7145C37.1217 45.6342 36.6935 44.5978 35.9307 43.8329C35.1678 43.068 34.1326 42.6371 33.0523 42.6348Z" fill="url(#paint1_linear_2910_3255)"/>
<path d="M44.5492 32.6377C43.4689 32.64 42.4337 33.0709 41.6709 33.8358C40.908 34.6007 40.4799 35.6371 40.4805 36.7174V56.7658C40.4805 57.8464 40.9097 58.8827 41.6738 59.6467C42.4378 60.4108 43.4741 60.84 44.5547 60.84C45.6352 60.84 46.6715 60.4108 47.4356 59.6467C48.1997 58.8827 48.6289 57.8464 48.6289 56.7658V36.7174C48.6272 35.6359 48.1968 34.5992 47.4321 33.8345C46.6674 33.0698 45.6307 32.6394 44.5492 32.6377Z" fill="url(#paint2_linear_2910_3255)"/>
<path d="M56.0562 20.9014C54.976 20.9008 53.9396 21.3289 53.1747 22.0918C52.4098 22.8546 51.9789 23.8898 51.9766 24.9701V56.7654C51.9766 57.846 52.4058 58.8823 53.1699 59.6463C53.9339 60.4104 54.9702 60.8396 56.0508 60.8396C57.1313 60.8396 58.1676 60.4104 58.9317 59.6463C59.6958 58.8823 60.125 57.846 60.125 56.7654V24.9701C60.1233 23.8916 59.694 22.8577 58.9314 22.095C58.1687 21.3323 57.1348 20.9031 56.0562 20.9014Z" fill="url(#paint3_linear_2910_3255)"/>
<defs>
<linearGradient id="paint0_linear_2910_3255" x1="35.0016" y1="2.1875" x2="35.0016" y2="67.8125" gradientUnits="userSpaceOnUse">
<stop stop-color="#FFC107"/>
<stop offset="1" stop-color="#E49D56"/>
</linearGradient>
<linearGradient id="paint1_linear_2910_3255" x1="33.0469" y1="42.6348" x2="33.0469" y2="60.8402" gradientUnits="userSpaceOnUse">
<stop stop-color="#FFC107"/>
<stop offset="1" stop-color="#E49D56"/>
</linearGradient>
<linearGradient id="paint2_linear_2910_3255" x1="44.5547" y1="32.6377" x2="44.5547" y2="60.84" gradientUnits="userSpaceOnUse">
<stop stop-color="#FFC107"/>
<stop offset="1" stop-color="#E49D56"/>
</linearGradient>
<linearGradient id="paint3_linear_2910_3255" x1="56.0508" y1="20.9014" x2="56.0508" y2="60.8396" gradientUnits="userSpaceOnUse">
<stop stop-color="#FFC107"/>
<stop offset="1" stop-color="#E49D56"/>
</linearGradient>
</defs>
</svg>
