<svg width="21" height="22" viewBox="0 0 21 22" fill="none" xmlns="http://www.w3.org/2000/svg">
<path d="M20.7563 13.2253C20.2994 12.5172 19.8424 11.8345 19.3854 11.1264C19.2839 10.9747 19.2839 10.8736 19.3854 10.7218C19.8424 10.0391 20.274 9.35633 20.7309 8.67357C21.2641 7.86437 20.9848 7.08046 20.0709 6.75173C19.3093 6.47356 18.5477 6.17012 17.7861 5.89196C17.6337 5.84138 17.5576 5.74023 17.5576 5.56322C17.5322 4.72874 17.4814 3.89425 17.4306 3.08506C17.3799 2.2 16.6944 1.69425 15.8313 1.92184C15.0189 2.12414 14.2065 2.35172 13.4195 2.57931C13.2418 2.62989 13.1402 2.57931 13.0133 2.45288C12.5056 1.7954 11.9724 1.16322 11.4647 0.531035C10.9062 -0.177012 10.043 -0.177012 9.45913 0.531035C8.9514 1.16322 8.41827 1.7954 7.93592 2.42759C7.80898 2.6046 7.68205 2.62989 7.47895 2.57931C6.69195 2.35173 5.90496 2.14943 5.34645 1.9977C4.25481 1.74483 3.59475 2.17471 3.54397 3.08506C3.4932 3.91954 3.44243 4.75403 3.41704 5.61379C3.41704 5.7908 3.34088 5.86667 3.18856 5.94253C2.40156 6.24598 1.61457 6.54943 0.827568 6.85288C0.0151858 7.18161 -0.238684 7.96552 0.243667 8.69885C0.700633 9.4069 1.1576 10.0897 1.61456 10.7977C1.71611 10.9494 1.71611 11.0506 1.61456 11.2276C1.13221 11.9356 0.675245 12.6437 0.218278 13.377C-0.213299 14.0598 0.0659551 14.869 0.827564 15.1724C1.61456 15.4759 2.42694 15.7793 3.21394 16.0828C3.39164 16.1333 3.44242 16.2345 3.44242 16.4115C3.46781 17.2207 3.56935 18.0046 3.56935 18.8138C3.56935 19.623 4.28019 20.3563 5.27028 20.0529C6.05728 19.8 6.84427 19.623 7.63127 19.3954C7.78359 19.3448 7.88514 19.3701 7.98668 19.5218C8.51981 20.1793 9.02755 20.8115 9.56067 21.469C10.1446 22.177 10.9823 22.177 11.5409 21.469C12.074 20.8115 12.5817 20.1793 13.1148 19.5218C13.2164 19.3954 13.2926 19.3448 13.4703 19.3954C14.2826 19.623 15.095 19.8253 15.9074 20.0529C16.7452 20.2805 17.456 19.7747 17.4814 18.9149C17.5322 18.0805 17.583 17.246 17.6083 16.3862C17.6083 16.1839 17.7099 16.108 17.8622 16.0575C18.6238 15.7793 19.4108 15.4759 20.1724 15.1724C20.9848 14.7678 21.2387 13.9586 20.7563 13.2253ZM14.6888 9.07817L9.61146 14.1356C9.48452 14.2621 9.30682 14.3632 9.12911 14.3885C9.07833 14.3885 9.00217 14.4138 8.9514 14.4138C8.72292 14.4138 8.46905 14.3127 8.29134 14.1356L6.20961 12.0621C5.85419 11.708 5.85419 11.1264 6.20961 10.7724C6.56502 10.4184 7.14892 10.4184 7.50434 10.7724L8.92601 12.1885L13.3433 7.78851C13.6988 7.43449 14.2827 7.43449 14.6381 7.78851C15.0443 8.14253 15.0443 8.72414 14.6888 9.07817Z" fill="url(#paint0_linear_2890_4153)"/>
<defs>
<linearGradient id="paint0_linear_2890_4153" x1="10.5" y1="0" x2="10.5" y2="22" gradientUnits="userSpaceOnUse">
<stop stop-color="#FFC107"/>
<stop offset="1" stop-color="#E49D56"/>
</linearGradient>
</defs>
</svg>
