<svg width="38" height="38" viewBox="0 0 38 38" fill="none" xmlns="http://www.w3.org/2000/svg">
<path fill-rule="evenodd" clip-rule="evenodd" d="M19.0255 5.24553L20.2469 8.46245C20.2836 8.55919 20.3691 8.62124 20.4724 8.62631L23.9092 8.79381C24.0169 8.79904 24.1055 8.86684 24.1389 8.96934C24.1721 9.07184 24.1403 9.17881 24.0563 9.24631L21.3743 11.402C21.2937 11.4667 21.261 11.5673 21.2882 11.667L22.1909 14.9874C22.2191 15.0914 22.1821 15.1967 22.0949 15.26C22.0077 15.3233 21.8962 15.3261 21.8059 15.2671L18.927 13.3825C18.8405 13.3258 18.7348 13.3258 18.6483 13.3825L15.7694 15.2671C15.6792 15.3261 15.5676 15.3233 15.4805 15.26C15.3933 15.1967 15.3563 15.0914 15.3845 14.9874L16.2872 11.667C16.3144 11.5673 16.2817 11.4667 16.2011 11.402L13.5191 9.24631C13.4351 9.17881 13.4032 9.07184 13.4365 8.96934C13.4698 8.86684 13.5585 8.79912 13.6661 8.79381L17.103 8.62631C17.2063 8.62131 17.2918 8.55919 17.3284 8.46245L18.5498 5.24553C18.588 5.14477 18.6799 5.08144 18.7877 5.08144C18.8955 5.08144 18.9873 5.14477 19.0255 5.24553ZM12.3693 4.2335L14.5189 6.16915C14.7673 6.39271 15.15 6.37256 15.3735 6.12415C15.5971 5.87575 15.5769 5.4931 15.3285 5.26955L13.1789 3.33389C12.9305 3.11033 12.5478 3.13048 12.3243 3.37889C12.1007 3.6273 12.1208 4.00994 12.3693 4.2335ZM24.3964 3.33389L22.2341 5.28083C21.9857 5.50439 21.9656 5.88704 22.1891 6.13544C22.4127 6.38385 22.7953 6.404 23.0437 6.18044L25.206 4.2335C25.4544 4.00994 25.4745 3.6273 25.251 3.37889C25.0273 3.13048 24.6448 3.11033 24.3964 3.33389ZM19.3937 2.83019C19.3937 3.16488 19.1223 3.43624 18.7877 3.43624C18.453 3.43624 18.1816 3.16488 18.1816 2.83019V0.606052C18.1816 0.27136 18.453 0 18.7877 0C19.1223 0 19.3937 0.27136 19.3937 0.606052V2.83019ZM18.7877 17.2116C21.136 17.2116 23.0398 19.1154 23.0398 21.4637C23.0398 23.8121 21.136 25.7158 18.7877 25.7158C16.4393 25.7158 14.5356 23.8121 14.5356 21.4637C14.5356 19.1153 16.4393 17.2116 18.7877 17.2116ZM27.149 33.9784C26.6975 29.7593 23.1265 26.4734 18.7877 26.4734C14.4488 26.4734 10.8777 29.7593 10.4262 33.9784V35.6783C10.4262 36.9161 11.4358 37.9257 12.6737 37.9257H24.9016C26.1394 37.9257 27.149 36.9161 27.149 35.6783V33.9784ZM31.4957 20.2995C33.2525 20.2995 34.6767 21.7238 34.6767 23.4806C34.6767 25.2374 33.2525 26.6617 31.4957 26.6617C29.7388 26.6617 28.3146 25.2374 28.3146 23.4806C28.3145 21.7238 29.7387 20.2995 31.4957 20.2995ZM6.07966 20.2995C7.83653 20.2995 9.26075 21.7238 9.26075 23.4806C9.26075 25.2374 7.83653 26.6617 6.07966 26.6617C4.32279 26.6617 2.89857 25.2374 2.89857 23.4806C2.89857 21.7238 4.32279 20.2995 6.07966 20.2995ZM6.07958 27.5114C7.93349 27.5114 9.60006 28.3132 10.7516 29.589C9.93892 30.8194 9.40006 32.2513 9.22643 33.8032H1.44215C0.970413 33.8032 0.56451 33.5981 0.28459 33.2185C0.00466997 32.8388 -0.0711623 32.3904 0.0683812 31.9397C0.862688 29.3746 3.25364 27.5114 6.07958 27.5114ZM31.4956 27.5114C34.3217 27.5114 36.7125 29.3746 37.5068 31.9397C37.6463 32.3904 37.5705 32.8387 37.2906 33.2185C37.0106 33.5982 36.6048 33.8032 36.133 33.8032H28.3487C28.1751 32.2513 27.6362 30.8195 26.8236 29.589C27.9752 28.3132 29.6417 27.5114 31.4956 27.5114ZM5.60201 5.24553L6.82336 8.46245C6.8601 8.55919 6.94555 8.62124 7.04889 8.62631L10.4857 8.79381C10.5934 8.79904 10.682 8.86684 10.7153 8.96934C10.7486 9.07184 10.7168 9.17881 10.6328 9.24631L7.95077 11.402C7.87016 11.4667 7.83751 11.5673 7.86463 11.667L8.76735 14.9874C8.7956 15.0914 8.75856 15.1967 8.67136 15.26C8.58417 15.3233 8.47265 15.3261 8.38243 15.2671L5.50345 13.3825C5.41694 13.3258 5.31126 13.3258 5.22475 13.3825L2.34585 15.2671C2.2557 15.3261 2.14411 15.3233 2.05699 15.26C1.96979 15.1967 1.93275 15.0914 1.96101 14.9874L2.86372 11.667C2.89084 11.5673 2.85819 11.4667 2.77758 11.402L0.0955777 9.24623C0.0115637 9.17873 -0.0203297 9.07176 0.0130032 8.96926C0.0462603 8.86677 0.134971 8.79904 0.242621 8.79374L3.67947 8.62624C3.7828 8.62124 3.86825 8.55912 3.90492 8.46238L5.12634 5.24553C5.16459 5.14477 5.25641 5.08144 5.36421 5.08144C5.47201 5.08144 5.56376 5.14477 5.60201 5.24553ZM32.4089 5.24553L33.6302 8.46245C33.667 8.55919 33.7524 8.62124 33.8558 8.62631L37.2926 8.79381C37.4003 8.79904 37.4889 8.86684 37.5222 8.96934C37.5555 9.07184 37.5237 9.17881 37.4397 9.24631L34.7576 11.402C34.677 11.4667 34.6444 11.5673 34.6715 11.667L35.5742 14.9874C35.6025 15.0914 35.5654 15.1967 35.4783 15.26C35.3911 15.3233 35.2796 15.3261 35.1894 15.2671L32.3104 13.3825C32.2239 13.3258 32.1182 13.3258 32.0317 13.3825L29.1528 15.2671C29.0627 15.3261 28.9511 15.3233 28.8639 15.26C28.7767 15.1967 28.7396 15.0914 28.7679 14.9874L29.6706 11.667C29.6977 11.5673 29.6651 11.4667 29.5845 11.402L26.9025 9.24631C26.8184 9.17881 26.7866 9.07184 26.8199 8.96934C26.8531 8.86684 26.9419 8.79912 27.0495 8.79381L30.4863 8.62631C30.5897 8.62131 30.6751 8.55919 30.7118 8.46245L31.9331 5.24553C31.9714 5.14477 32.0632 5.08144 32.171 5.08144C32.2788 5.08144 32.3706 5.14477 32.4089 5.24553Z" fill="url(#paint0_linear_2238_4616)"/>
<defs>
<linearGradient id="paint0_linear_2238_4616" x1="0" y1="18.9629" x2="37.575" y2="18.9629" gradientUnits="userSpaceOnUse">
<stop stop-color="#FFE26E"/>
<stop offset="1" stop-color="#FFCD05"/>
</linearGradient>
</defs>
</svg>
