<svg width="270" height="230" viewBox="0 0 270 230" fill="none" xmlns="http://www.w3.org/2000/svg">
<path d="M197.547 40.5854H82.4655C78.0598 40.5854 74.4883 44.157 74.4883 48.5626V221.826C74.4883 226.232 78.0598 229.803 82.4655 229.803H197.547C201.953 229.803 205.524 226.232 205.524 221.826V48.5626C205.524 44.157 201.953 40.5854 197.547 40.5854Z" fill="#050505"/>
<path d="M197.541 229.999H82.4592C77.952 229.999 74.2852 226.332 74.2852 221.825V48.5617C74.2852 44.0545 77.952 40.3877 82.4592 40.3877H197.541C202.048 40.3877 205.715 44.0545 205.715 48.5617V221.825C205.715 226.332 202.048 229.999 197.541 229.999ZM82.4592 40.7817C78.1692 40.7817 74.6788 44.272 74.6788 48.562V221.825C74.6788 226.115 78.1692 229.606 82.4592 229.606H197.541C201.831 229.606 205.321 226.115 205.321 221.825V48.5617C205.321 44.2717 201.831 40.7814 197.541 40.7814H82.4592V40.7817Z" fill="#050505"/>
<path d="M200.119 37.2383H80.9258V218.222H200.119V37.2383Z" fill="#FCFCFC"/>
<path d="M200.112 218.419H80.9195C80.8107 218.419 80.7227 218.33 80.7227 218.222V37.2383C80.7227 37.1296 80.8107 37.0415 80.9195 37.0415H200.112C200.221 37.0415 200.309 37.1296 200.309 37.2383V218.222C200.309 218.33 200.221 218.419 200.112 218.419ZM81.1163 218.025H199.915V37.4352H81.1163V218.025Z" fill="#050505"/>
<path d="M200.119 37.2383H80.9258V53.2019H200.119V37.2383Z" fill="#FCFCFC"/>
<path d="M200.112 53.3988H80.9195C80.8107 53.3988 80.7227 53.3107 80.7227 53.202V37.2383C80.7227 37.1296 80.8107 37.0415 80.9195 37.0415H200.112C200.221 37.0415 200.309 37.1296 200.309 37.2383V53.202C200.309 53.3107 200.221 53.3988 200.112 53.3988ZM81.1163 53.0048H199.915V37.4349H81.1163V53.0048Z" fill="#050505"/>
<path d="M93.6264 45.2154C93.6264 46.5326 92.5597 47.6064 91.2425 47.6064C89.9254 47.6064 88.8516 46.5326 88.8516 45.2154C88.8516 43.8983 89.9254 42.8315 91.2425 42.8315C92.5597 42.8315 93.6264 43.898 93.6264 45.2154Z" fill="#050505"/>
<path d="M91.2441 47.8041C89.8172 47.8041 88.6562 46.6431 88.6562 45.216C88.6562 43.7888 89.8172 42.6353 91.2441 42.6353C92.6709 42.6353 93.8248 43.7928 93.8248 45.216C93.8248 46.6391 92.6669 47.8041 91.2441 47.8041ZM91.2441 43.0292C90.0341 43.0292 89.0499 44.01 89.0499 45.2163C89.0499 46.4225 90.0341 47.4107 91.2441 47.4107C92.454 47.4107 93.4311 46.4266 93.4311 45.2163C93.4311 44.006 92.45 43.0292 91.2441 43.0292Z" fill="#050505"/>
<path d="M101.337 45.2154C101.337 46.5326 100.271 47.6064 98.9535 47.6064C97.6363 47.6064 96.5625 46.5326 96.5625 45.2154C96.5625 43.8983 97.6363 42.8315 98.9535 42.8315C100.271 42.8315 101.337 43.898 101.337 45.2154Z" fill="#050505"/>
<path d="M98.955 47.8041C97.5282 47.8041 96.3672 46.6431 96.3672 45.216C96.3672 43.7888 97.5282 42.6353 98.955 42.6353C100.382 42.6353 101.536 43.7928 101.536 45.216C101.536 46.6391 100.378 47.8041 98.955 47.8041ZM98.955 43.0292C97.745 43.0292 96.7609 44.01 96.7609 45.2163C96.7609 46.4225 97.745 47.4107 98.955 47.4107C100.165 47.4107 101.142 46.4266 101.142 45.2163C101.142 44.006 100.161 43.0292 98.955 43.0292Z" fill="#050505"/>
<path d="M109.048 45.2154C109.048 46.5326 107.982 47.6064 106.664 47.6064C105.347 47.6064 104.273 46.5326 104.273 45.2154C104.273 43.8983 105.347 42.8315 106.664 42.8315C107.982 42.8315 109.048 43.898 109.048 45.2154Z" fill="#050505"/>
<path d="M106.666 47.8041C105.239 47.8041 104.078 46.6431 104.078 45.216C104.078 43.7888 105.239 42.6353 106.666 42.6353C108.093 42.6353 109.247 43.7928 109.247 45.216C109.247 46.6391 108.089 47.8041 106.666 47.8041ZM106.666 43.0292C105.456 43.0292 104.472 44.01 104.472 45.2163C104.472 46.4225 105.456 47.4107 106.666 47.4107C107.877 47.4107 108.853 46.4266 108.853 45.2163C108.853 44.006 107.872 43.0292 106.666 43.0292Z" fill="#050505"/>
<path d="M121.844 69.5479H94.3008V94.9022H121.844V69.5479Z" fill="#FCFCFC"/>
<path d="M121.846 95.0996H94.3023C94.1936 95.0996 94.1055 95.0115 94.1055 94.9028V69.5484C94.1055 69.4397 94.1936 69.3516 94.3023 69.3516H121.846C121.955 69.3516 122.043 69.4397 122.043 69.5484V94.9028C122.043 95.0115 121.955 95.0996 121.846 95.0996ZM94.4991 94.7059H121.649V69.7452H94.4991V94.7059Z" fill="#050505"/>
<path d="M121.847 112.668H94.3008V138.024H121.847V112.668Z" fill="#050505"/>
<path d="M121.849 138.221H94.3023C94.1936 138.221 94.1055 138.133 94.1055 138.024V112.669C94.1055 112.56 94.1936 112.472 94.3023 112.472H121.849C121.957 112.472 122.046 112.56 122.046 112.669V138.024C122.046 138.133 121.957 138.221 121.849 138.221ZM94.4994 137.828H121.652V112.865H94.4994V137.828Z" fill="#050505"/>
<path d="M121.847 156.179H94.3008V181.535H121.847V156.179Z" fill="#FCFCFC"/>
<path d="M121.849 181.732H94.3023C94.1936 181.732 94.1055 181.644 94.1055 181.535V156.179C94.1055 156.071 94.1936 155.982 94.3023 155.982H121.849C121.957 155.982 122.046 156.071 122.046 156.179V181.535C122.046 181.644 121.957 181.732 121.849 181.732ZM94.4994 181.338H121.652V156.376H94.4994V181.338Z" fill="#050505"/>
<path d="M175.753 75.504H129.607C129.498 75.504 129.41 75.4159 129.41 75.3072C129.41 75.1984 129.498 75.1104 129.607 75.1104H175.753C175.862 75.1104 175.95 75.1984 175.95 75.3072C175.95 75.4159 175.862 75.504 175.753 75.504Z" fill="#050505"/>
<path d="M156.252 87.7301H129.607C129.498 87.7301 129.41 87.642 129.41 87.5333C129.41 87.4245 129.498 87.3364 129.607 87.3364H156.252C156.361 87.3364 156.449 87.4245 156.449 87.5333C156.449 87.642 156.361 87.7301 156.252 87.7301Z" fill="#050505"/>
<path d="M186.148 119.608H129.318C129.209 119.608 129.121 119.519 129.121 119.411C129.121 119.302 129.209 119.214 129.318 119.214H186.148C186.256 119.214 186.344 119.302 186.344 119.411C186.344 119.519 186.256 119.608 186.148 119.608Z" fill="#050505"/>
<path d="M155.963 131.834H129.318C129.209 131.834 129.121 131.746 129.121 131.637C129.121 131.529 129.209 131.44 129.318 131.44H155.963C156.072 131.44 156.16 131.529 156.16 131.637C156.16 131.746 156.072 131.834 155.963 131.834Z" fill="#050505"/>
<path d="M186.148 162.792H129.318C129.209 162.792 129.121 162.704 129.121 162.595C129.121 162.487 129.209 162.398 129.318 162.398H186.148C186.256 162.398 186.344 162.487 186.344 162.595C186.344 162.704 186.256 162.792 186.148 162.792Z" fill="#050505"/>
<path d="M155.963 175.019H129.318C129.209 175.019 129.121 174.931 129.121 174.822C129.121 174.713 129.209 174.625 129.318 174.625H155.963C156.072 174.625 156.16 174.713 156.16 174.822C156.16 174.931 156.072 175.019 155.963 175.019Z" fill="#050505"/>
<path d="M256.636 214.152H190.602V229.803H256.636V214.152Z" fill="#FCFCFC"/>
<path d="M256.634 230H190.599C190.49 230 190.402 229.911 190.402 229.803V214.152C190.402 214.044 190.49 213.956 190.599 213.956H256.634C256.742 213.956 256.83 214.044 256.83 214.152V229.803C256.83 229.911 256.742 230 256.634 230ZM190.796 229.606H256.437V214.349H190.796V229.606Z" fill="#050505"/>
<path d="M205.17 229.999C205.061 229.999 204.973 229.911 204.973 229.803V221.978C204.973 221.869 205.061 221.781 205.17 221.781C205.278 221.781 205.366 221.869 205.366 221.978V229.803C205.366 229.911 205.278 229.999 205.17 229.999Z" fill="#050505"/>
<path d="M210.685 229.999C210.576 229.999 210.488 229.911 210.488 229.802V217.046C210.488 216.937 210.576 216.849 210.685 216.849C210.794 216.849 210.882 216.937 210.882 217.046V229.802C210.882 229.911 210.794 229.999 210.685 229.999Z" fill="#050505"/>
<path d="M243.002 230C242.893 230 242.805 229.912 242.805 229.803V218.564C242.805 218.455 242.893 218.367 243.002 218.367C243.11 218.367 243.198 218.455 243.198 218.564V229.803C243.198 229.912 243.11 230 243.002 230Z" fill="#050505"/>
<path d="M230.697 229.999C230.588 229.999 230.5 229.911 230.5 229.802V214.33C230.5 214.221 230.588 214.133 230.697 214.133C230.806 214.133 230.894 214.221 230.894 214.33V229.802C230.894 229.911 230.806 229.999 230.697 229.999Z" fill="#050505"/>
<path d="M262.284 198.431H196.25V214.081H262.284V198.431Z" fill="#FCFCFC"/>
<path d="M262.286 214.278H196.252C196.143 214.278 196.055 214.19 196.055 214.081V198.431C196.055 198.322 196.143 198.234 196.252 198.234H262.286C262.395 198.234 262.483 198.322 262.483 198.431V214.081C262.483 214.19 262.395 214.278 262.286 214.278ZM196.448 213.885H262.089V198.628H196.448V213.885Z" fill="#050505"/>
<path d="M210.822 214.278C210.713 214.278 210.625 214.19 210.625 214.081V206.256C210.625 206.148 210.713 206.06 210.822 206.06C210.931 206.06 211.019 206.148 211.019 206.256V214.081C211.019 214.19 210.931 214.278 210.822 214.278Z" fill="#050505"/>
<path d="M216.337 214.278C216.229 214.278 216.141 214.19 216.141 214.082V201.325C216.141 201.217 216.229 201.128 216.337 201.128C216.446 201.128 216.534 201.217 216.534 201.325V214.082C216.534 214.19 216.446 214.278 216.337 214.278Z" fill="#050505"/>
<path d="M248.654 214.278C248.545 214.278 248.457 214.19 248.457 214.082V202.842C248.457 202.734 248.545 202.646 248.654 202.646C248.763 202.646 248.851 202.734 248.851 202.842V214.082C248.851 214.19 248.763 214.278 248.654 214.278Z" fill="#050505"/>
<path d="M236.353 214.278C236.244 214.278 236.156 214.19 236.156 214.081V198.609C236.156 198.5 236.244 198.412 236.353 198.412C236.462 198.412 236.55 198.5 236.55 198.609V214.081C236.55 214.19 236.462 214.278 236.353 214.278Z" fill="#050505"/>
<path d="M205.306 214.278C205.197 214.278 205.109 214.19 205.109 214.082V201.325C205.109 201.217 205.197 201.128 205.306 201.128C205.415 201.128 205.503 201.217 205.503 201.325V214.082C205.503 214.19 205.415 214.278 205.306 214.278Z" fill="#050505"/>
<path d="M252.488 182.781H186.453V198.431H252.488V182.781Z" fill="#050505"/>
<path d="M252.489 198.628H186.455C186.346 198.628 186.258 198.539 186.258 198.431V182.78C186.258 182.672 186.346 182.583 186.455 182.583H252.489C252.598 182.583 252.686 182.672 252.686 182.78V198.431C252.686 198.539 252.598 198.628 252.489 198.628ZM186.651 198.234H252.292V182.977H186.651V198.234Z" fill="#050505"/>
<path d="M201.021 198.628C200.912 198.628 200.824 198.54 200.824 198.431V190.606C200.824 190.497 200.912 190.409 201.021 190.409C201.13 190.409 201.218 190.497 201.218 190.606V198.431C201.218 198.54 201.13 198.628 201.021 198.628Z" fill="#FCFCFC"/>
<path d="M206.537 198.628C206.428 198.628 206.34 198.54 206.34 198.431V185.675C206.34 185.566 206.428 185.478 206.537 185.478C206.645 185.478 206.734 185.566 206.734 185.675V198.431C206.734 198.54 206.645 198.628 206.537 198.628Z" fill="#FCFCFC"/>
<path d="M238.853 198.627C238.744 198.627 238.656 198.539 238.656 198.43V187.191C238.656 187.082 238.744 186.994 238.853 186.994C238.962 186.994 239.05 187.082 239.05 187.191V198.43C239.05 198.539 238.962 198.627 238.853 198.627Z" fill="#FCFCFC"/>
<path d="M226.556 198.628C226.447 198.628 226.359 198.54 226.359 198.431V182.959C226.359 182.85 226.447 182.762 226.556 182.762C226.665 182.762 226.753 182.85 226.753 182.959V198.431C226.753 198.54 226.665 198.628 226.556 198.628Z" fill="#FCFCFC"/>
<path d="M268.691 167.06H202.656V182.71H268.691V167.06Z" fill="#FCFCFC"/>
<path d="M268.692 182.906H202.658C202.549 182.906 202.461 182.818 202.461 182.709V167.059C202.461 166.95 202.549 166.862 202.658 166.862H268.692C268.801 166.862 268.889 166.95 268.889 167.059V182.709C268.889 182.818 268.801 182.906 268.692 182.906ZM202.855 182.513H268.495V167.256H202.855V182.513Z" fill="#050505"/>
<path d="M217.228 182.907C217.119 182.907 217.031 182.819 217.031 182.71V174.885C217.031 174.776 217.119 174.688 217.228 174.688C217.337 174.688 217.425 174.776 217.425 174.885V182.71C217.425 182.819 217.337 182.907 217.228 182.907Z" fill="#050505"/>
<path d="M222.74 182.906C222.631 182.906 222.543 182.818 222.543 182.71V169.953C222.543 169.844 222.631 169.756 222.74 169.756C222.849 169.756 222.937 169.844 222.937 169.953V182.71C222.937 182.818 222.849 182.906 222.74 182.906Z" fill="#050505"/>
<path d="M255.056 182.906C254.947 182.906 254.859 182.818 254.859 182.709V171.47C254.859 171.362 254.947 171.273 255.056 171.273C255.165 171.273 255.253 171.362 255.253 171.47V182.709C255.253 182.818 255.165 182.906 255.056 182.906Z" fill="#050505"/>
<path d="M242.759 182.907C242.651 182.907 242.562 182.818 242.562 182.71V167.237C242.562 167.129 242.651 167.041 242.759 167.041C242.868 167.041 242.956 167.129 242.956 167.237V182.71C242.956 182.818 242.868 182.907 242.759 182.907Z" fill="#050505"/>
<path d="M211.712 182.906C211.604 182.906 211.516 182.818 211.516 182.71V169.953C211.516 169.844 211.604 169.756 211.712 169.756C211.821 169.756 211.909 169.844 211.909 169.953V182.71C211.909 182.818 211.821 182.906 211.712 182.906Z" fill="#050505"/>
<path d="M244.096 68.6684V97.482C244.096 102.406 240.105 106.397 235.181 106.397H196.131L186.019 114.03V106.397H180.119C175.199 106.397 171.203 102.406 171.203 97.482V68.6684C171.203 63.7442 175.199 59.7529 180.119 59.7529H235.181C240.105 59.7529 244.096 63.7438 244.096 68.6684Z" fill="#FCFCFC"/>
<path d="M186.021 114.228C185.991 114.228 185.96 114.221 185.933 114.207C185.866 114.174 185.824 114.106 185.824 114.031V106.595H180.12C175.095 106.595 171.008 102.507 171.008 97.4827V68.6691C171.008 63.6448 175.095 59.5571 180.12 59.5571H235.182C240.207 59.5571 244.294 63.6448 244.294 68.6691V97.4827C244.294 102.507 240.207 106.595 235.182 106.595H196.198L186.139 114.188C186.104 114.215 186.062 114.228 186.021 114.228ZM180.12 59.9505C175.313 59.9505 171.401 63.8616 171.401 68.6688V97.4824C171.401 102.29 175.313 106.201 180.12 106.201H186.021C186.129 106.201 186.217 106.289 186.217 106.398V113.635L196.013 106.241C196.048 106.215 196.089 106.201 196.132 106.201H235.182C239.99 106.201 243.901 102.29 243.901 97.4824V68.6688C243.901 63.8616 239.99 59.9505 235.182 59.9505H180.12Z" fill="#050505"/>
<path d="M198.903 82.4045C198.903 84.4012 197.288 86.0162 195.291 86.0162C193.295 86.0162 191.688 84.4012 191.688 82.4045C191.688 80.4078 193.303 78.8008 195.291 78.8008C197.28 78.8008 198.903 80.4158 198.903 82.4045Z" fill="#050505"/>
<path d="M195.293 86.2131C193.197 86.2131 191.492 84.5044 191.492 82.4045C191.492 80.3047 193.197 78.604 195.293 78.604C197.389 78.604 199.101 80.3087 199.101 82.4045C199.101 84.5004 197.393 86.2131 195.293 86.2131ZM195.293 78.9977C193.414 78.9977 191.886 80.5258 191.886 82.4045C191.886 84.2833 193.414 85.8194 195.293 85.8194C197.171 85.8194 198.708 84.2873 198.708 82.4045C198.708 80.5218 197.175 78.9977 195.293 78.9977Z" fill="#050505"/>
<path d="M211.258 82.4045C211.258 84.4012 209.643 86.0162 207.647 86.0162C205.65 86.0162 204.043 84.4012 204.043 82.4045C204.043 80.4078 205.658 78.8008 207.647 78.8008C209.635 78.8008 211.258 80.4158 211.258 82.4045Z" fill="#050505"/>
<path d="M207.644 86.2131C205.549 86.2131 203.844 84.5044 203.844 82.4045C203.844 80.3047 205.548 78.604 207.644 78.604C209.74 78.604 211.453 80.3087 211.453 82.4045C211.453 84.5004 209.744 86.2131 207.644 86.2131ZM207.644 78.9977C205.766 78.9977 204.238 80.5258 204.238 82.4045C204.238 84.2833 205.766 85.8194 207.644 85.8194C209.523 85.8194 211.059 84.2873 211.059 82.4045C211.059 80.5218 209.527 78.9977 207.644 78.9977Z" fill="#050505"/>
<path d="M223.61 82.4045C223.61 84.4012 221.995 86.0162 219.998 86.0162C218.002 86.0162 216.395 84.4012 216.395 82.4045C216.395 80.4078 218.01 78.8008 219.998 78.8008C221.987 78.8008 223.61 80.4158 223.61 82.4045Z" fill="#050505"/>
<path d="M220 86.2131C217.904 86.2131 216.199 84.5044 216.199 82.4045C216.199 80.3047 217.904 78.604 220 78.604C222.095 78.604 223.808 80.3087 223.808 82.4045C223.808 84.5004 222.1 86.2131 220 86.2131ZM220 78.9977C218.121 78.9977 216.593 80.5258 216.593 82.4045C216.593 84.2833 218.121 85.8194 220 85.8194C221.878 85.8194 223.415 84.2873 223.415 82.4045C223.415 80.5218 221.882 78.9977 220 78.9977Z" fill="#050505"/>
<path d="M268.964 230H264.142C264.033 230 263.945 229.912 263.945 229.803C263.945 229.694 264.033 229.606 264.142 229.606H268.964C269.072 229.606 269.16 229.694 269.16 229.803C269.16 229.912 269.072 230 268.964 230Z" fill="#050505"/>
<path d="M261.126 230H46.8179C46.7092 230 46.6211 229.912 46.6211 229.803C46.6211 229.694 46.7092 229.606 46.8179 229.606H261.126C261.235 229.606 261.323 229.694 261.323 229.803C261.323 229.912 261.235 230 261.126 230Z" fill="#050505"/>
<path d="M43.6035 230H4.4898C4.38107 230 4.29297 229.912 4.29297 229.803C4.29297 229.694 4.38107 229.606 4.4898 229.606H43.6035C43.7122 229.606 43.8003 229.694 43.8003 229.803C43.8003 229.912 43.7122 230 43.6035 230Z" fill="#050505"/>
<path d="M2.55022 230H0.196835C0.0880981 230 0 229.912 0 229.803C0 229.694 0.0880981 229.606 0.196835 229.606H2.55022C2.65896 229.606 2.74706 229.694 2.74706 229.803C2.74706 229.912 2.65896 230 2.55022 230Z" fill="#050505"/>
<path d="M65.1595 99.3191C65.1358 99.7719 65.0403 100.23 64.8354 100.64C63.9726 102.346 61.8943 102.465 58.8962 102.237L55.8741 106.808L48.3281 102.575L52.6086 98.2564L53.5524 97.5843H56.6365L55.416 95.0673L63.6483 89.0708L64.244 90.2626C65.0307 92.522 65.3597 95.5777 65.1592 99.3194L65.1595 99.3191Z" fill="#FCFCFC"/>
<path d="M55.875 107.004C55.8423 107.004 55.8093 106.996 55.7788 106.979L48.2332 102.746C48.1796 102.716 48.1433 102.663 48.1346 102.602C48.1263 102.541 48.1467 102.48 48.1901 102.436L52.4705 98.1172L53.4399 97.4232C53.4732 97.3994 53.5129 97.3868 53.5539 97.3868H56.3238L55.2404 95.1526C55.1988 95.067 55.2244 94.9638 55.3017 94.9074L63.5339 88.9109C63.5808 88.8767 63.6408 88.8647 63.6966 88.8789C63.7526 88.8924 63.8001 88.93 63.826 88.9818L64.422 90.1732C65.2454 92.5337 65.5568 95.6064 65.3575 99.3287C65.3298 99.8545 65.214 100.325 65.0131 100.727C64.0502 102.631 61.6269 102.636 58.9981 102.44L56.0401 106.916C56.0025 106.973 55.9399 107.004 55.8756 107.004L55.875 107.004ZM48.6512 102.529L55.8121 106.546L58.7332 102.127C58.7723 102.068 58.8423 102.034 58.9125 102.04C61.9596 102.273 63.8762 102.103 64.6613 100.55C64.8375 100.198 64.9395 99.7799 64.9645 99.3086C65.161 95.6372 64.8566 92.615 64.0601 90.3266L63.5783 89.3659L55.6667 95.1289L56.8154 97.4977C56.845 97.5587 56.8409 97.6308 56.8052 97.6881C56.7692 97.7454 56.706 97.7805 56.6383 97.7805H53.6174L52.7247 98.4163L48.6518 102.529H48.6512Z" fill="#050505"/>
<path d="M74.5531 221.651L78.9949 226.757C80.0916 227.902 79.2799 229.803 77.6944 229.803H53.4835C52.0634 229.803 50.826 228.835 50.4847 227.456L49.6367 223.722L52.3123 221.705L72.1603 220.706L74.5531 221.651Z" fill="#050505"/>
<path d="M77.6963 230H53.4853C51.9713 230 50.6597 228.973 50.2953 227.504L49.4464 223.766C49.4291 223.69 49.4578 223.612 49.52 223.565L52.1953 221.548C52.2267 221.525 52.2646 221.511 52.3037 221.509L72.1519 220.51C72.1812 220.507 72.2083 220.513 72.2342 220.523L74.627 221.469C74.6566 221.48 74.6828 221.499 74.7031 221.523L79.145 226.628C79.7013 227.209 79.8525 228.039 79.5334 228.787C79.214 229.535 78.5098 230 77.6963 230ZM49.8585 223.802L50.6782 227.413C50.9979 228.703 52.1524 229.606 53.485 229.606H77.696C78.3493 229.606 78.9145 229.233 79.1708 228.632C79.4274 228.031 79.3061 227.365 78.8542 226.893L74.4379 221.817L72.1291 220.905L52.3838 221.899L49.8582 223.802H49.8585Z" fill="#050505"/>
<path d="M11.9084 221.996L10.668 223.518V226.273C10.668 228.221 12.2473 229.8 14.1956 229.8H36.1388C37.7831 229.8 38.6668 227.868 37.5915 226.625L34.082 222.564L29.6885 220.393L11.9078 221.995L11.9084 221.996Z" fill="#050505"/>
<path d="M36.1406 229.998H14.1971C12.1434 229.998 10.4727 228.327 10.4727 226.273V223.518C10.4727 223.473 10.4884 223.429 10.517 223.394L11.7575 221.872C11.7907 221.831 11.8394 221.805 11.8924 221.8L29.6728 220.198C29.7088 220.195 29.7452 220.202 29.7775 220.217L34.171 222.388C34.1948 222.4 34.2157 222.416 34.2326 222.436L37.7418 226.497C38.2904 227.131 38.4142 227.999 38.0652 228.761C37.7162 229.524 36.9788 229.998 36.14 229.998H36.1406ZM10.8663 223.588V226.273C10.8663 228.109 12.3606 229.604 14.1971 229.604H36.1406C36.8235 229.604 37.4239 229.218 37.7079 228.597C37.9916 227.976 37.8909 227.27 37.4445 226.753L33.9613 222.723L29.6531 220.594L12.0101 222.184L10.8663 223.588Z" fill="#050505"/>
<path d="M52.4837 95.1558C52.4193 94.7507 52.3103 94.3515 52.1944 93.9578C51.3055 90.9369 51.7179 88.4609 54.071 86.7975C56.7275 84.9721 59.7194 84.3059 63.13 85.0889C63.8631 85.2571 64.5528 85.6381 65.0041 86.24C65.9365 87.4832 65.6091 88.9846 64.2457 90.2623C64.0834 90.4145 63.8958 90.5408 63.7085 90.6606C63.297 90.9237 62.9381 91.2024 62.6375 91.4982C62.1766 91.9516 61.9019 92.5483 61.7069 93.1643C61.4971 93.8272 61.0871 94.2575 60.6183 94.6198C58.5852 93.5432 57.3793 95.8603 59.3433 97.7556C56.9687 100.827 54.1058 100.064 52.3485 97.9623C52.5823 97.28 52.6848 96.4215 52.4837 95.1558Z" fill="#050505"/>
<path d="M55.8123 100.001C54.5293 100.001 53.2149 99.3069 52.1963 98.088C52.1519 98.035 52.1387 97.9629 52.1612 97.8979C52.4211 97.1398 52.4615 96.2783 52.2881 95.186C52.2246 94.7858 52.1143 94.3854 52.0047 94.0127C51.0214 90.672 51.66 88.2595 53.9567 86.6365C56.7478 84.718 59.8476 84.1327 63.1734 84.8964C64.006 85.0876 64.7117 85.5229 65.1606 86.1214C66.1401 87.4272 65.8484 89.029 64.3794 90.4056C64.1982 90.5756 63.9925 90.7118 63.8138 90.8263C63.4088 91.0851 63.0591 91.3583 62.7748 91.638C62.3987 92.0083 62.119 92.5119 61.8935 93.2235C61.6489 93.9966 61.1475 94.459 60.7375 94.775C60.6765 94.8222 60.5936 94.8296 60.5252 94.7932C59.7986 94.4082 59.1264 94.4726 58.7719 94.9611C58.3545 95.5371 58.4629 96.6331 59.4788 97.6133C59.5512 97.6829 59.5592 97.796 59.4979 97.8754C58.4423 99.2403 57.1917 99.9753 55.8801 99.9999C55.8576 100.001 55.8351 100.001 55.8123 100.001V100.001ZM52.5687 97.9185C53.5177 99.0148 54.7049 99.6201 55.8727 99.6069C57.0176 99.5847 58.1235 98.9508 59.0793 97.7704C57.9725 96.6177 57.9695 95.3973 58.4531 94.7301C58.904 94.1085 59.7339 93.9797 60.5933 94.3872C61.0815 93.9908 61.3606 93.602 61.518 93.1046C61.7632 92.3296 62.0747 91.7742 62.4982 91.3574C62.8025 91.058 63.1737 90.7675 63.6016 90.4943C63.7652 90.3895 63.9534 90.2651 64.1102 90.1182C65.4178 88.8925 65.6925 87.4866 64.8457 86.3574C64.4524 85.8331 63.8271 85.4502 63.085 85.2802C59.8269 84.5323 56.9148 85.0815 54.1816 86.9593C52.0416 88.4714 51.4524 90.7426 52.3823 93.9015C52.4957 94.2868 52.61 94.702 52.6771 95.1244C52.853 96.2321 52.8188 97.1241 52.5687 97.9185Z" fill="#050505"/>
<path d="M58.892 102.432C58.8548 102.432 58.8166 102.421 58.783 102.399C58.6924 102.338 58.6681 102.216 58.7285 102.126L60.3478 99.6955C60.4079 99.6053 60.5299 99.5806 60.6207 99.641C60.7113 99.7011 60.7356 99.8234 60.6753 99.9139L59.0559 102.344C59.018 102.401 58.9558 102.432 58.8917 102.432L58.892 102.432Z" fill="#050505"/>
<path d="M57.0819 107.822L56.2921 109.326L45.9258 103.883L47.0064 101.826C47.4121 101.053 48.391 100.785 49.1346 101.247L56.5419 105.838C57.2128 106.256 57.4506 107.121 57.0819 107.822Z" fill="#FCFCFC"/>
<path d="M56.2934 109.523C56.2626 109.523 56.2315 109.516 56.2022 109.5L45.8359 104.057C45.7897 104.033 45.7549 103.991 45.7395 103.941C45.7238 103.891 45.7287 103.837 45.7531 103.791L46.8336 101.734C47.0524 101.317 47.4386 101.007 47.8933 100.883C48.3483 100.759 48.839 100.83 49.2397 101.079L56.647 105.67C57.4026 106.142 57.6706 107.127 57.2579 107.913L56.4678 109.418C56.4326 109.485 56.3643 109.523 56.2931 109.523L56.2934 109.523ZM46.1932 103.8L56.2109 109.06L56.9092 107.73C57.2271 107.125 57.0204 106.366 56.4388 106.004L49.0321 101.413C48.7198 101.219 48.3523 101.166 47.9968 101.263C47.6419 101.36 47.3527 101.592 47.1823 101.917L46.1932 103.8Z" fill="#050505"/>
<path d="M41.7669 142.448V144.092L74.552 221.651L49.6357 223.721L32.0496 173.771L34.0827 222.564L10.668 223.517L11.9602 149.322C12.3388 142.755 13.9165 136.876 17.3006 132.037L25.6058 134.074L41.7669 142.447V142.448Z" fill="#FCFCFC"/>
<path d="M49.6369 223.918C49.5538 223.918 49.4789 223.865 49.4515 223.786L32.3026 175.077L34.2808 222.555C34.2829 222.608 34.2644 222.658 34.229 222.697C34.1936 222.735 34.1443 222.758 34.0922 222.76L10.6776 223.713C10.6218 223.718 10.571 223.696 10.5318 223.658C10.493 223.62 10.4715 223.568 10.4727 223.513L11.7649 149.319C12.1755 142.197 13.9338 136.51 17.1411 131.924C17.1873 131.857 17.2698 131.826 17.3493 131.846L25.6545 133.883L41.8593 142.272C41.9246 142.306 41.9656 142.374 41.9656 142.447V144.051L74.735 221.573C74.7597 221.632 74.7551 221.698 74.7221 221.752C74.6894 221.806 74.6328 221.841 74.5699 221.846L49.6536 223.916C49.648 223.917 49.6425 223.917 49.6372 223.917L49.6369 223.918ZM32.0509 173.573C32.1331 173.573 32.2086 173.625 32.2363 173.705L49.7718 223.512L74.2662 221.476L41.587 144.168C41.5769 144.144 41.5713 144.118 41.5713 144.091V142.567L25.5165 134.249L17.3863 132.26C14.2711 136.765 12.5606 142.352 12.158 149.333L10.8698 223.312L33.8791 222.375L31.854 173.779C31.85 173.681 31.9175 173.596 32.0136 173.577C32.0262 173.575 32.0386 173.573 32.0509 173.573Z" fill="#050505"/>
<path d="M32.0498 173.968C31.9673 173.968 31.8903 173.915 31.8629 173.833L24.7833 152.393C24.2781 150.863 23.378 149.485 22.1807 148.407L20.2019 146.626C20.1212 146.554 20.1144 146.429 20.1874 146.348C20.2607 146.268 20.3852 146.261 20.4656 146.334L22.4444 148.115C23.6925 149.238 24.6308 150.675 25.1572 152.269L32.2368 173.709C32.271 173.813 32.2149 173.924 32.1117 173.958C32.0911 173.965 32.0705 173.968 32.0498 173.968Z" fill="#050505"/>
<path d="M70.6443 115.68L72.0914 115.846L75.1585 117.431C80.7999 114.119 86.7751 109.64 92.9821 104.354C95.3083 102.542 97.468 101.213 99.1588 101.124C101.055 101.265 100.589 102.89 98.487 104.199C99.3766 104.611 99.8836 105.383 99.805 106.706C100.693 107.221 101.157 107.892 100.916 108.826C103.524 111.018 101.916 113.521 99.0297 113.994C95.0668 119.099 90.4007 123.696 85.3874 128.041C83.3165 129.836 80.847 131.151 78.1616 131.698C72.9638 132.756 67.4589 131.259 62.1828 128.363L61.7109 122.161L70.6443 115.68Z" fill="#FCFCFC"/>
<path d="M74.7189 132.236C70.8062 132.236 66.5745 130.998 62.0895 128.536C62.0312 128.504 61.993 128.445 61.9878 128.378L61.5162 122.176C61.511 122.108 61.5415 122.042 61.5969 122.002L70.5302 115.52C70.5703 115.492 70.6205 115.479 70.6682 115.484L72.1154 115.651C72.1391 115.654 72.1619 115.661 72.1832 115.672L75.1532 117.207C80.4638 114.079 86.2558 109.825 92.8554 104.205C95.6234 102.048 97.6213 101.008 99.1495 100.928C100.189 101.004 100.455 101.478 100.523 101.754C100.692 102.444 100.051 103.377 98.8729 104.183C99.6642 104.673 100.046 105.483 100.008 106.598C100.931 107.167 101.309 107.892 101.135 108.754C102.196 109.684 102.625 110.752 102.345 111.772C102.022 112.948 100.767 113.886 99.1384 114.176C95.5902 118.736 91.1335 123.321 85.5165 128.19C83.3343 130.081 80.8048 131.361 78.2009 131.891C77.0711 132.121 75.9085 132.236 74.7177 132.236L74.7189 132.236ZM62.3722 128.242C68.1029 131.368 73.403 132.467 78.1236 131.505C80.6612 130.989 83.1289 129.74 85.2599 127.893C90.8818 123.019 95.3357 118.434 98.8757 113.874C98.9062 113.835 98.9502 113.809 98.9995 113.801C100.514 113.552 101.679 112.714 101.966 111.668C102.212 110.776 101.794 109.82 100.791 108.977C100.733 108.928 100.708 108.85 100.727 108.777C100.927 108 100.603 107.396 99.7077 106.877C99.6433 106.84 99.6054 106.77 99.6097 106.695C99.6784 105.543 99.2844 104.785 98.4059 104.378C98.34 104.348 98.2965 104.284 98.2919 104.212C98.2876 104.14 98.323 104.071 98.3843 104.032C99.7514 103.181 100.253 102.303 100.141 101.848C100.042 101.446 99.4751 101.345 99.1458 101.321C97.727 101.397 95.7996 102.41 93.1046 104.51C86.4554 110.172 80.6159 114.457 75.2598 117.602C75.2013 117.636 75.1298 117.638 75.0698 117.607L72.035 116.038L70.7 115.884L61.9176 122.256L62.3729 128.242H62.3722Z" fill="#050505"/>
<path d="M95.4351 106.205C95.3809 106.205 95.3267 106.183 95.2878 106.139C95.2158 106.057 95.2232 105.933 95.3045 105.861C96.4297 104.863 97.4543 104.257 98.4363 104.008C98.5425 103.981 98.6488 104.045 98.6753 104.15C98.7021 104.256 98.6383 104.363 98.533 104.389C97.6132 104.623 96.6426 105.2 95.566 106.155C95.5284 106.188 95.4816 106.205 95.4354 106.205L95.4351 106.205Z" fill="#050505"/>
<path d="M96.7279 108.784C96.6854 108.784 96.6426 108.77 96.6062 108.742C96.5209 108.674 96.5061 108.551 96.5736 108.465C97.3412 107.49 98.898 106.629 99.7772 106.511C99.8856 106.496 99.9842 106.572 99.9986 106.68C100.013 106.788 99.9377 106.887 99.8301 106.901C99.0419 107.008 97.583 107.82 96.8829 108.709C96.844 108.759 96.7864 108.784 96.7282 108.784L96.7279 108.784Z" fill="#050505"/>
<path d="M98.5913 110.651C98.5448 110.651 98.4983 110.635 98.4607 110.601C98.3794 110.529 98.372 110.405 98.4441 110.323C99.2601 109.403 100.053 108.851 100.867 108.636C100.973 108.607 101.08 108.67 101.108 108.776C101.136 108.881 101.073 108.988 100.968 109.016C100.231 109.211 99.5016 109.724 98.7389 110.585C98.7001 110.628 98.6456 110.651 98.5913 110.651Z" fill="#050505"/>
<path d="M99.0285 114.191C98.9882 114.191 98.9475 114.179 98.9124 114.153C98.8249 114.089 98.8058 113.966 98.8702 113.878L100.291 111.94C100.355 111.852 100.478 111.832 100.567 111.898C100.654 111.962 100.673 112.085 100.609 112.173L99.1875 114.111C99.149 114.163 99.0892 114.191 99.0285 114.191Z" fill="#050505"/>
<path d="M72.4594 115.363C64.1803 110.569 55.7694 106.845 48.1191 103.607C43.0584 101.253 37.2867 102.468 34.0699 107.123L16.9219 131.749C25.4058 138.262 34.0388 143.03 42.9724 144.284L57.1867 126.064L62.0971 128.906L72.4594 115.364V115.363Z" fill="#050505"/>
<path d="M42.9741 144.48C42.9652 144.48 42.9559 144.479 42.9467 144.478C34.9063 143.35 26.355 139.237 16.8034 131.905C16.7202 131.841 16.7018 131.723 16.7618 131.636L33.9102 107.01C37.1103 102.38 42.854 100.94 48.2039 103.429C56.0015 106.729 64.3545 110.441 72.5597 115.193C72.6086 115.221 72.6428 115.269 72.6539 115.325C72.665 115.38 72.6514 115.438 72.6172 115.483L62.2549 129.025C62.1946 129.104 62.0852 129.125 61.9999 129.076L57.238 126.319L43.1293 144.404C43.0918 144.452 43.0342 144.48 42.9741 144.48V144.48ZM17.1928 131.707C26.5838 138.891 34.9926 142.937 42.8891 144.073L57.0331 125.943C57.0941 125.865 57.2022 125.845 57.2873 125.893L62.0476 128.649L72.1688 115.422C64.0443 110.734 55.7754 107.061 48.0447 103.788C42.8687 101.381 37.3213 102.767 34.2339 107.235L17.1928 131.707Z" fill="#050505"/>
<path d="M56.3164 125.671C56.2795 125.671 56.2419 125.661 56.2086 125.639C54.2122 124.326 52.4672 123.439 50.875 122.926C50.7715 122.893 50.7145 122.782 50.7478 122.678C50.7813 122.575 50.8916 122.518 50.9954 122.551C52.6222 123.075 54.398 123.978 56.4249 125.31C56.5154 125.369 56.541 125.491 56.4812 125.582C56.4433 125.639 56.3805 125.671 56.3164 125.671V125.671Z" fill="#FCFCFC"/>
<path d="M42.6109 50.9435C42.5022 50.9435 42.4141 50.8554 42.4141 50.7466V2.78277C42.4141 2.67404 42.5022 2.58594 42.6109 2.58594H63.9602C64.0689 2.58594 64.157 2.67404 64.157 2.78277C64.157 2.89151 64.0689 2.97961 63.9602 2.97961H42.8077V50.7466C42.8077 50.8554 42.7196 50.9435 42.6109 50.9435Z" fill="#050505"/>
<path d="M42.6109 77.9824C42.5022 77.9824 42.4141 77.8943 42.4141 77.7856V59.7535C42.4141 59.6447 42.5022 59.5566 42.6109 59.5566C42.7196 59.5566 42.8077 59.6447 42.8077 59.7535V77.7856C42.8077 77.8943 42.7196 77.9824 42.6109 77.9824Z" fill="#050505"/>
<path d="M76.4331 2.48948C76.4331 3.12034 76.1808 3.69144 75.7652 4.10698C75.3497 4.52252 74.7709 4.78219 74.1404 4.78219C72.8716 4.78219 71.8477 3.75058 71.8477 2.48948C71.8477 1.85154 72.0999 1.28014 72.5155 0.864598C72.931 0.456451 73.5098 0.196777 74.1407 0.196777C74.7715 0.196777 75.35 0.456451 75.7656 0.864598C76.1811 1.28014 76.4334 1.85154 76.4334 2.48948H76.4331Z" fill="#050505"/>
<path d="M74.1419 4.97908C72.769 4.97908 71.6523 3.86214 71.6523 2.48954C71.6523 1.81987 71.9099 1.19333 72.3778 0.725424C72.8475 0.263987 73.4901 0 74.1419 0C74.7937 0 75.4359 0.263988 75.9045 0.724193C76.3736 1.19364 76.6311 1.81987 76.6311 2.48985C76.6311 3.1549 76.3736 3.77898 75.9057 4.24626C75.4402 4.71232 74.7971 4.97939 74.1419 4.97939V4.97908ZM74.1419 0.393669C73.5924 0.393669 73.0502 0.616376 72.6547 1.00512C72.2626 1.39755 72.046 1.92522 72.046 2.48985C72.046 3.6456 72.9861 4.58572 74.1419 4.58572C74.6939 4.58572 75.2351 4.36055 75.6275 3.96811C76.0209 3.57506 76.2374 3.04986 76.2374 2.48985C76.2374 1.92553 76.0209 1.39755 75.6275 1.00389C75.2333 0.616685 74.6911 0.393669 74.1419 0.393669Z" fill="#050505"/>
<path d="M83.976 2.48948C83.976 3.12034 83.7238 3.69144 83.3082 4.10698C82.8927 4.52252 82.3139 4.78219 81.6833 4.78219C80.4145 4.78219 79.3906 3.75058 79.3906 2.48948C79.3906 1.85154 79.6429 1.28014 80.0584 0.864598C80.474 0.456451 81.0528 0.196777 81.6836 0.196777C82.3145 0.196777 82.893 0.456451 83.3085 0.864598C83.7241 1.28014 83.9763 1.85154 83.9763 2.48948H83.976Z" fill="#FCFCFC"/>
<path d="M81.6813 4.97908C80.3083 4.97908 79.1914 3.86214 79.1914 2.48954C79.1914 1.82018 79.4489 1.19364 79.9168 0.725424C80.3869 0.263987 81.0295 0 81.6813 0C82.3331 0 82.9753 0.263988 83.4438 0.724193C83.913 1.19364 84.1705 1.81987 84.1705 2.48985C84.1705 3.1549 83.913 3.77898 83.4451 4.24626C82.9796 4.71232 82.3364 4.97939 81.6813 4.97939V4.97908ZM81.6813 0.393669C81.1317 0.393669 80.5896 0.616376 80.1938 1.00512C79.8016 1.39786 79.5851 1.92522 79.5851 2.48985C79.5851 3.6456 80.5255 4.58572 81.6813 4.58572C82.2333 4.58572 82.7745 4.36055 83.1669 3.96811C83.5603 3.57506 83.7771 3.04986 83.7771 2.48985C83.7771 1.92553 83.5606 1.39755 83.1669 1.00389C82.7726 0.616685 82.2305 0.393669 81.6813 0.393669Z" fill="#050505"/>
<path d="M91.5073 2.48948C91.5073 3.12034 91.255 3.69144 90.8395 4.10698C90.4239 4.52252 89.8451 4.78219 89.2146 4.78219C87.9455 4.78219 86.9219 3.75058 86.9219 2.48948C86.9219 1.85154 87.1742 1.28014 87.5897 0.864598C88.0052 0.456451 88.584 0.196777 89.2149 0.196777C89.8457 0.196777 90.4242 0.456451 90.8398 0.864598C91.2553 1.28014 91.5076 1.85154 91.5076 2.48948H91.5073Z" fill="#050505"/>
<path d="M89.2122 4.97908C87.8393 4.97908 86.7227 3.86214 86.7227 2.48954C86.7227 1.82018 86.9802 1.19364 87.4481 0.725424C87.9181 0.263987 88.5607 0 89.2122 0C89.8637 0 90.5066 0.263988 90.9751 0.724193C91.4442 1.19364 91.7017 1.81987 91.7017 2.48985C91.7017 3.1549 91.4442 3.77898 90.9763 4.24626C90.5109 4.71232 89.8677 4.97939 89.2122 4.97939V4.97908ZM89.2122 0.393669C88.663 0.393669 88.1208 0.616376 87.725 1.00512C87.3329 1.39786 87.1163 1.92522 87.1163 2.48985C87.1163 3.6456 88.0564 4.58572 89.2122 4.58572C89.7642 4.58572 90.3057 4.36055 90.6982 3.96811C91.0915 3.57506 91.3081 3.04986 91.3081 2.48985C91.3081 1.92553 91.0915 1.39755 90.6982 1.00389C90.3039 0.616685 89.7617 0.393669 89.2122 0.393669Z" fill="#050505"/>
<path d="M260.827 81.7197C260.718 81.7197 260.63 81.6316 260.63 81.5228V21.1193H238.521C238.412 21.1193 238.324 21.0312 238.324 20.9224C238.324 20.8137 238.412 20.7256 238.521 20.7256H260.827C260.935 20.7256 261.023 20.8137 261.023 20.9224V81.5228C261.023 81.6316 260.935 81.7197 260.827 81.7197Z" fill="#050505"/>
<path d="M260.822 130.401C260.713 130.401 260.625 130.312 260.625 130.204V90.5303C260.625 90.4216 260.713 90.3335 260.822 90.3335C260.931 90.3335 261.019 90.4216 261.019 90.5303V130.204C261.019 130.312 260.931 130.401 260.822 130.401Z" fill="#050505"/>
<path d="M229.664 20.6296C229.664 21.2605 229.917 21.8316 230.332 22.2471C230.748 22.6627 231.327 22.9223 231.957 22.9223C233.226 22.9223 234.25 21.8907 234.25 20.6296C234.25 19.9917 233.998 19.4203 233.582 19.0047C233.166 18.5966 232.588 18.3369 231.957 18.3369C231.326 18.3369 230.747 18.5966 230.332 19.0047C229.916 19.4203 229.664 19.9917 229.664 20.6296Z" fill="#050505"/>
<path d="M231.954 23.1189C231.299 23.1189 230.656 22.8518 230.19 22.3861C229.722 21.9185 229.465 21.2947 229.465 20.6294C229.465 19.9594 229.722 19.3328 230.19 18.8656C230.66 18.4041 231.303 18.1401 231.954 18.1401C232.606 18.1401 233.249 18.4041 233.717 18.8643C234.186 19.3335 234.444 19.9597 234.444 20.6297C234.444 22.0026 233.327 23.1189 231.954 23.1189ZM231.954 18.5338C231.405 18.5338 230.863 18.7565 230.468 19.1453C230.075 19.5371 229.859 20.0647 229.859 20.6297C229.859 21.19 230.075 21.7149 230.469 22.1082C230.861 22.5007 231.403 22.7259 231.954 22.7259C233.11 22.7259 234.05 21.7857 234.05 20.63C234.05 20.0654 233.834 19.5377 233.44 19.1443C233.046 18.7571 232.504 18.5344 231.954 18.5344V18.5338Z" fill="#050505"/>
<path d="M222.133 20.6296C222.133 21.2605 222.385 21.8316 222.801 22.2471C223.216 22.6627 223.795 22.9223 224.426 22.9223C225.695 22.9223 226.719 21.8907 226.719 20.6296C226.719 19.9917 226.466 19.4203 226.051 19.0047C225.635 18.5966 225.056 18.3369 224.426 18.3369C223.795 18.3369 223.216 18.5966 222.801 19.0047C222.385 19.4203 222.133 19.9917 222.133 20.6296H222.133Z" fill="#FCFCFC"/>
<path d="M224.423 23.1189C223.767 23.1189 223.124 22.8518 222.659 22.3861C222.191 21.9185 221.934 21.2947 221.934 20.6294C221.934 19.9594 222.191 19.3328 222.659 18.8656C223.129 18.4041 223.771 18.1401 224.423 18.1401C225.074 18.1401 225.717 18.4041 226.186 18.8643C226.655 19.3335 226.912 19.9597 226.912 20.6297C226.912 22.0026 225.795 23.1189 224.423 23.1189ZM224.423 18.5338C223.874 18.5338 223.331 18.7565 222.936 19.1453C222.544 19.5371 222.327 20.0647 222.327 20.6297C222.327 21.19 222.544 21.7149 222.937 22.1082C223.33 22.5007 223.871 22.7259 224.423 22.7259C225.579 22.7259 226.519 21.7857 226.519 20.63C226.519 20.0654 226.302 19.5377 225.908 19.1443C225.514 18.7571 224.972 18.5344 224.423 18.5344L224.423 18.5338Z" fill="#050505"/>
<path d="M214.594 20.6296C214.594 21.2605 214.846 21.8316 215.262 22.2471C215.677 22.6627 216.256 22.9223 216.887 22.9223C218.156 22.9223 219.179 21.8907 219.179 20.6296C219.179 19.9917 218.927 19.4203 218.512 19.0047C218.096 18.5966 217.517 18.3369 216.886 18.3369C216.256 18.3369 215.677 18.5966 215.262 19.0047C214.846 19.4203 214.594 19.9917 214.594 20.6296Z" fill="#050505"/>
<path d="M216.888 23.1189C216.232 23.1189 215.59 22.8518 215.124 22.3861C214.658 21.9203 214.398 21.2944 214.398 20.6294C214.398 19.9597 214.656 19.3332 215.124 18.8656C215.594 18.4041 216.236 18.1401 216.888 18.1401C217.54 18.1401 218.182 18.4041 218.651 18.8643C219.12 19.3338 219.378 19.96 219.378 20.6297C219.378 22.0026 218.261 23.1189 216.888 23.1189ZM216.888 18.5338C216.339 18.5338 215.797 18.7565 215.401 19.1453C215.009 19.5374 214.792 20.065 214.792 20.6297C214.792 21.1897 215.009 21.7146 215.402 22.1082C215.795 22.5007 216.336 22.7259 216.888 22.7259C218.044 22.7259 218.984 21.7857 218.984 20.63C218.984 20.0657 218.767 19.538 218.374 19.1443C217.98 18.7571 217.438 18.5344 216.888 18.5344V18.5338Z" fill="#050505"/>
<path d="M239.239 156.516C239.201 156.516 239.163 156.505 239.13 156.483L233.319 152.651C233.231 152.593 233.205 152.478 233.258 152.387L236.782 146.38C236.809 146.334 236.855 146.301 236.907 146.288C236.959 146.276 237.015 146.286 237.06 146.316L242.87 150.141C242.957 150.198 242.984 150.314 242.931 150.405L239.409 156.418C239.381 156.465 239.336 156.498 239.283 156.51C239.269 156.514 239.254 156.516 239.239 156.516ZM233.691 152.425L239.174 156.04L242.497 150.367L237.017 146.758L233.691 152.425Z" fill="#050505"/>
<path d="M14.6459 77.4583C14.5948 77.4583 14.5452 77.4386 14.5079 77.4016C14.4574 77.352 14.4374 77.2787 14.4562 77.21L16.7098 68.8798C16.7276 68.8133 16.7794 68.7612 16.8453 68.7421C16.9112 68.723 16.9827 68.7397 17.0335 68.7868L23.3655 74.6499C23.4175 74.6983 23.4397 74.771 23.4231 74.84C23.4067 74.909 23.3544 74.9641 23.286 74.9835L14.7004 77.4506C14.6826 77.4558 14.6641 77.4583 14.6459 77.4583ZM17.0045 69.2969L14.9272 76.9759L22.8418 74.7017L17.0045 69.2969Z" fill="#050505"/>
<path d="M145.705 6.94928C143.789 6.94928 142.23 5.39062 142.23 3.47464C142.23 1.55866 143.789 0 145.705 0C147.621 0 149.179 1.55866 149.179 3.47464C149.179 5.39062 147.621 6.94928 145.705 6.94928ZM145.705 0.393669C144.006 0.393669 142.624 1.77583 142.624 3.47464C142.624 5.17345 144.006 6.55561 145.705 6.55561C147.404 6.55561 148.786 5.17345 148.786 3.47464C148.786 1.77583 147.404 0.393669 145.705 0.393669Z" fill="#050505"/>
<path d="M105.421 87.4174C105.286 87.4174 105.152 87.3663 105.049 87.2637L101.002 83.2158C100.796 83.0107 100.796 82.6786 101.002 82.4735C101.207 82.2683 101.539 82.2683 101.744 82.4735L105.421 86.1502L116.358 75.2125C116.563 75.0073 116.896 75.0073 117.101 75.2125C117.306 75.4176 117.306 75.7497 117.101 75.9548L105.792 87.2637C105.689 87.3663 105.555 87.4174 105.421 87.4174Z" fill="#050505"/>
<path d="M105.421 130.928C105.286 130.928 105.152 130.877 105.049 130.774L101.002 126.727C100.796 126.521 100.796 126.189 101.002 125.984C101.207 125.779 101.539 125.779 101.744 125.984L105.421 129.661L116.358 118.723C116.563 118.518 116.896 118.518 117.101 118.723C117.306 118.928 117.306 119.26 117.101 119.466L105.792 130.774C105.689 130.877 105.555 130.928 105.421 130.928Z" fill="#FCFCFC"/>
<path d="M105.421 175.037C105.286 175.037 105.152 174.985 105.049 174.883L101.002 170.835C100.796 170.63 100.796 170.298 101.002 170.093C101.207 169.887 101.539 169.887 101.744 170.093L105.421 173.769L116.358 162.832C116.563 162.626 116.896 162.626 117.101 162.832C117.306 163.037 117.306 163.369 117.101 163.574L105.792 174.883C105.689 174.985 105.555 175.037 105.421 175.037Z" fill="#050505"/>
</svg>
