<svg width="60" height="60" viewBox="0 0 60 60" fill="none" xmlns="http://www.w3.org/2000/svg">
<path d="M54.7592 19.1828H47.9387C47.7933 19.1808 47.6501 19.2165 47.5243 19.286C47.3985 19.3555 47.2949 19.4562 47.2244 19.5775C47.1539 19.6987 47.1192 19.8359 47.124 19.9744C47.1288 20.113 47.173 20.2477 47.2517 20.3642C47.7726 21.092 48.1335 21.9129 48.3127 22.7773C48.4919 23.6417 48.4857 24.5317 48.2944 25.3938C47.8742 27.4584 46.6239 29.2845 44.8106 30.4819C44.2586 30.7509 43.8047 30.7041 43.6084 30.2596C43.5593 30.0491 43.498 29.8269 43.4367 29.5812C42.9168 27.733 42.1326 25.9619 41.1059 24.3177C40.5888 23.4995 40.0107 22.7177 39.3763 21.9783C39.045 21.5924 38.6893 21.1947 38.2968 20.8087C37.393 19.9037 36.3987 19.0849 35.3281 18.364C35.3685 18.2261 35.3972 18.0853 35.4139 17.943C35.4262 17.8143 35.4385 17.6739 35.4385 17.5453V1.00608C35.4385 0.877416 35.4262 0.748753 35.4262 0.631785C35.9096 0.384771 36.4252 0.199913 36.9596 0.0820378H51.9622C52.6251 0.0807612 53.2739 0.265214 53.8278 0.612485C54.3818 0.959757 54.8165 1.45455 55.078 2.03539C56.5869 5.48588 58.0998 8.94032 59.6169 12.3987C59.9389 13.1522 60.0601 13.9699 59.9698 14.7789C59.8794 15.588 59.5804 16.3631 59.0992 17.035C58.6181 17.7069 57.9699 18.2547 57.2126 18.6295C56.4553 19.0043 55.6124 19.1944 54.7592 19.1828Z" fill="black"/>
<path d="M32.9849 1.00592V17.5451C32.9889 17.6123 32.9806 17.6795 32.9603 17.744L32.899 17.9428C32.8194 18.1247 32.6846 18.2798 32.5119 18.3882C32.3393 18.4965 32.1366 18.5532 31.9299 18.551H27.5628C27.424 18.552 27.2863 18.5267 27.1579 18.4765C27.0294 18.4263 26.9127 18.3522 26.8145 18.2586C26.7163 18.165 26.6387 18.0537 26.586 17.9312C26.5334 17.8088 26.5068 17.6775 26.5078 17.5451V1.00592C26.5078 0.873817 26.5351 0.743006 26.5881 0.620956C26.6411 0.498907 26.7188 0.38801 26.8168 0.294599C26.9148 0.201189 27.0311 0.127094 27.1591 0.0765459C27.2871 0.0259981 27.4243 -1.2286e-05 27.5628 4.35351e-09H31.9299C32.2097 4.35351e-09 32.478 0.10598 32.6759 0.294627C32.8737 0.483273 32.9849 0.739133 32.9849 1.00592Z" fill="black"/>
<path d="M44.5172 32.9729C44.4153 32.9826 44.3129 32.9865 44.2106 32.9846C43.7544 32.9853 43.3036 32.8904 42.8902 32.7064C42.4768 32.5225 42.1109 32.254 41.8185 31.9202H6.8205C6.49515 31.9202 6.18313 31.7969 5.95308 31.5776C5.72303 31.3582 5.59379 31.0607 5.59379 30.7505C5.59379 30.4403 5.72303 30.1428 5.95308 29.9234C6.18313 29.704 6.49515 29.5808 6.8205 29.5808H40.8862C40.2939 27.6954 39.3778 25.9168 38.1751 24.3173H6.8205C6.49515 24.3173 6.18313 24.194 5.95308 23.9747C5.72303 23.7553 5.59379 23.4578 5.59379 23.1476C5.59379 22.8374 5.72303 22.5399 5.95308 22.3205C6.18313 22.1012 6.49515 21.9779 6.8205 21.9779H36.0652C35.4037 21.3623 34.6943 20.7953 33.943 20.2819C33.3548 20.6787 32.6517 20.8913 31.9312 20.8901H27.5641C26.6342 20.8883 25.7429 20.5353 25.0854 19.9083C24.4279 19.2814 24.0576 18.4315 24.0557 17.5449V14.3984H3.88866C2.86061 14.3985 1.8747 14.788 1.14776 15.4811C0.420818 16.1743 0.0123774 17.1144 0.0122668 18.0946V47.6874L0 59.08C0.00108734 59.2748 0.0667136 59.4644 0.187508 59.6215C0.308303 59.7787 0.478089 59.8955 0.672621 59.9551C0.867153 60.0148 1.07648 60.0143 1.27072 59.9538C1.46496 59.8933 1.63417 59.7758 1.75419 59.6181L10.0467 48.822C10.316 48.4703 10.6686 48.1842 11.0757 47.9871C11.4829 47.7899 11.9331 47.6872 12.3897 47.6874H46.5536C47.0629 47.6883 47.5674 47.5933 48.0382 47.4079C48.5089 47.2225 48.9366 46.9503 49.2968 46.6069C49.6569 46.2635 49.9424 45.8556 50.1369 45.4068C50.3313 44.9579 50.4309 44.4769 50.43 43.9912V26.8321C49.4364 29.7797 47.0197 32.7506 44.5172 32.9729ZM33.9921 40.1079H6.8205C6.49515 40.1079 6.18313 39.9846 5.95308 39.7653C5.72303 39.5459 5.59379 39.2484 5.59379 38.9382C5.59379 38.628 5.72303 38.3305 5.95308 38.1111C6.18313 37.8918 6.49515 37.7685 6.8205 37.7685H33.9921C34.3174 37.7685 34.6294 37.8918 34.8595 38.1111C35.0895 38.3305 35.2188 38.628 35.2188 38.9382C35.2188 39.2484 35.0895 39.5459 34.8595 39.7653C34.6294 39.9846 34.3174 40.1079 33.9921 40.1079ZM43.6217 40.1079H39.1074C38.7821 40.1079 38.4701 39.9846 38.24 39.7653C38.01 39.5459 37.8807 39.2484 37.8807 38.9382C37.8807 38.628 38.01 38.3305 38.24 38.1111C38.4701 37.8918 38.7821 37.7685 39.1074 37.7685H43.6217C43.9471 37.7685 44.2591 37.8918 44.4891 38.1111C44.7192 38.3305 44.8484 38.628 44.8484 38.9382C44.8484 39.2484 44.7192 39.5459 44.4891 39.7653C44.2591 39.9846 43.9471 40.1079 43.6217 40.1079Z" fill="black"/>
</svg>
