<svg width="213" height="36" viewBox="0 0 213 36" fill="none" xmlns="http://www.w3.org/2000/svg">
<path d="M24.6927 11.8091L18.8634 0L13.0341 11.8091L0 13.7037L9.43169 22.8992L7.20483 35.8788L18.8634 29.7511L30.5219 35.8788L28.2951 22.8992L37.7268 13.7037L24.6927 11.8091Z" fill="black"/>
<path d="M68.4192 11.8091L62.5899 0L56.7607 11.8091L43.7266 13.7037L53.1583 22.8992L50.9314 35.8788L62.5899 29.7511L74.2485 35.8788L72.0242 22.8992L81.4559 13.7037L68.4192 11.8091Z" fill="black"/>
<path d="M112.15 11.8091L106.32 0L100.491 11.8091L87.457 13.7037L96.8887 22.8992L94.6619 35.8788L106.32 29.7511L117.979 35.8788L115.755 22.8992L125.186 13.7037L112.15 11.8091Z" fill="white"/>
<path d="M155.88 11.8091L150.051 0L144.222 11.8091L131.188 13.7037L140.619 22.8992L138.392 35.8788L150.051 29.7511L161.709 35.8788L159.485 22.8992L168.917 13.7037L155.88 11.8091Z" fill="white"/>
<path d="M199.611 11.8091L193.781 0L187.952 11.8091L174.918 13.7037L184.35 22.8992L182.123 35.8788L193.781 29.7511L205.44 35.8788L203.216 22.8992L212.647 13.7037L199.611 11.8091Z" fill="white"/>
</svg>
