<svg width="15" height="15" viewBox="0 0 15 15" fill="none" xmlns="http://www.w3.org/2000/svg">
<path d="M14.826 9.01724C14.4995 8.53449 14.1731 8.06897 13.8467 7.58621C13.7742 7.48276 13.7742 7.4138 13.8467 7.31035C14.1731 6.84483 14.4814 6.37931 14.8078 5.91379C15.1886 5.36207 14.9892 4.82759 14.3363 4.60345C13.7923 4.41379 13.2483 4.2069 12.7043 4.01724C12.5955 3.98276 12.5411 3.91379 12.5411 3.7931C12.523 3.22414 12.4867 2.65517 12.4505 2.10345C12.4142 1.5 11.9246 1.15517 11.308 1.31035C10.7278 1.44828 10.1475 1.60345 9.58536 1.75862C9.45842 1.7931 9.38589 1.75862 9.29522 1.67242C8.93255 1.22414 8.55174 0.793104 8.18907 0.362069C7.79014 -0.12069 7.17359 -0.12069 6.75652 0.362069C6.39385 0.793104 6.01305 1.22414 5.66851 1.65517C5.57784 1.77586 5.48718 1.7931 5.34211 1.75862C4.77997 1.60345 4.21783 1.46552 3.81889 1.36207C3.03915 1.18966 2.56768 1.48276 2.53141 2.10345C2.49514 2.67242 2.45888 3.24138 2.44074 3.82759C2.44074 3.94828 2.38634 4 2.27754 4.05173C1.7154 4.25862 1.15326 4.46552 0.59112 4.67242C0.010847 4.89655 -0.170489 5.43104 0.174048 5.93104C0.500452 6.4138 0.826856 6.87931 1.15326 7.36207C1.22579 7.46552 1.22579 7.53448 1.15326 7.65517C0.808722 8.13793 0.482317 8.62069 0.155913 9.12069C-0.152357 9.58621 0.0471107 10.1379 0.591117 10.3448C1.15326 10.5517 1.73353 10.7586 2.29567 10.9655C2.4226 11 2.45887 11.069 2.45887 11.1897C2.477 11.7414 2.54954 12.2759 2.54954 12.8276C2.54954 13.3793 3.05728 13.8793 3.76448 13.6724C4.32662 13.5 4.88876 13.3793 5.4509 13.2241C5.55971 13.1897 5.63224 13.2069 5.70477 13.3103C6.08558 13.7586 6.44825 14.1897 6.82905 14.6379C7.24612 15.1207 7.84453 15.1207 8.24347 14.6379C8.62427 14.1897 8.98695 13.7586 9.36775 13.3103C9.44028 13.2241 9.49468 13.1897 9.62162 13.2241C10.2019 13.3793 10.7822 13.5172 11.3624 13.6724C11.9608 13.8276 12.4686 13.4828 12.4867 12.8966C12.523 12.3276 12.5593 11.7586 12.5774 11.1724C12.5774 11.0345 12.6499 10.9828 12.7587 10.9483C13.3027 10.7586 13.8649 10.5517 14.4089 10.3448C14.9892 10.069 15.1705 9.51724 14.826 9.01724ZM10.492 6.18966L6.86533 9.63793C6.77466 9.72414 6.64772 9.7931 6.52079 9.81035C6.48452 9.81035 6.43012 9.82759 6.39386 9.82759C6.23066 9.82759 6.04932 9.75863 5.92238 9.63793L4.43543 8.22414C4.18156 7.98276 4.18156 7.58621 4.43543 7.34483C4.6893 7.10345 5.10637 7.10345 5.36024 7.34483L6.37572 8.31034L9.53096 5.31035C9.78483 5.06897 10.2019 5.06897 10.4558 5.31035C10.7459 5.55172 10.7459 5.94828 10.492 6.18966Z" fill="#FFD426"/>
</svg>
