<svg width="234" height="230" viewBox="0 0 234 230" fill="none" xmlns="http://www.w3.org/2000/svg">
<path d="M233.134 229.658H223.093C224.902 229.133 226.488 228.018 227.629 226.422C229.266 224.13 229.672 221.292 228.742 218.633L228.679 218.458C227.314 213.923 225.945 209.337 224.576 204.751C220.756 191.95 216.884 178.976 213.054 167.08C213.301 166.207 213.427 165.301 213.427 164.386V128.651C215.007 127.875 216.412 126.978 217.652 125.951C220.469 123.438 223.419 119.935 221.201 115.123C220.894 114.459 220.474 113.782 219.917 113.052C217.694 110.163 215.566 107.651 213.427 105.382V67.9918C213.427 62.4836 208.944 58.002 203.433 58.002H159.741V36.1956C159.741 34.8148 158.615 33.6909 157.231 33.6909H102.808C101.424 33.6909 100.298 34.8148 100.298 36.1956V58.002H43.3882C37.88 58.002 33.3984 62.4836 33.3984 67.9918V88.7382H16.1288C13.7388 88.7382 11.7947 90.6825 11.7947 93.0723V126.574C11.7947 128.964 13.7391 130.908 16.1288 130.908H33.3984V148.542C32.1504 148.326 30.8658 148.21 29.5514 148.219C17.6802 148.287 8.10667 157.965 8.17509 169.841C8.23806 180.766 16.4402 189.736 26.9975 191.047H6.0151C5.9208 191.047 5.84461 191.123 5.84461 191.217V204.068C5.84461 204.162 5.92109 204.239 6.0151 204.239H13.8898V216.806H9.41796C9.32366 216.806 9.24747 216.883 9.24747 216.977V229.658H0.170489C0.0761884 229.658 0 229.734 0 229.828C0 229.922 0.076476 229.999 0.170489 229.999H163.817C163.822 229.999 163.825 230 163.829 230H188.464C188.469 230 188.475 229.999 188.48 229.999H220.483L220.623 230C220.642 230 220.66 230 220.679 230C220.692 230 220.704 229.999 220.717 229.999H233.134C233.229 229.999 233.305 229.922 233.305 229.828C233.305 229.734 233.228 229.658 233.134 229.658L233.134 229.658ZM228.311 218.42C228.087 218.527 227.859 218.629 227.632 218.731C227.436 218.82 227.243 218.911 227.045 218.998C226.729 219.136 226.407 219.268 226.085 219.4C225.955 219.453 225.827 219.51 225.696 219.562C219.257 222.135 211.898 223.418 203.767 223.388L189.666 165.484L188.326 143.659C188.298 143.211 188.369 142.79 188.532 142.441C188.982 141.478 189.937 140.974 191.539 140.854C191.633 140.847 191.703 140.765 191.697 140.671C191.69 140.577 191.605 140.509 191.514 140.514C189.799 140.642 188.723 141.225 188.223 142.296C188.036 142.697 187.954 143.175 187.985 143.679L189.294 164.984C189.252 165.019 189.226 165.069 189.231 165.126L193.505 222.389C191.843 222.568 190.221 222.715 188.634 222.833C188.464 222.846 188.291 222.861 188.123 222.873C187.858 222.891 187.598 222.906 187.335 222.924C187.015 222.944 186.693 222.967 186.377 222.985C186.181 222.996 185.988 223.005 185.794 223.015C185.417 223.035 185.04 223.056 184.669 223.072C184.488 223.08 184.31 223.085 184.13 223.092C183.749 223.107 183.368 223.122 182.992 223.134C182.814 223.139 182.639 223.141 182.463 223.146C182.091 223.155 181.719 223.165 181.352 223.171C181.151 223.173 180.953 223.173 180.753 223.175C180.417 223.179 180.079 223.183 179.747 223.183C179.518 223.183 179.294 223.179 179.067 223.177C178.769 223.175 178.469 223.175 178.175 223.17C177.921 223.166 177.672 223.158 177.42 223.152C177.159 223.145 176.895 223.14 176.637 223.132C176.366 223.123 176.101 223.11 175.835 223.099C175.6 223.089 175.362 223.081 175.13 223.07C174.851 223.056 174.577 223.038 174.301 223.021C174.086 223.008 173.869 222.997 173.656 222.982C173.371 222.963 173.091 222.939 172.81 222.917C172.612 222.901 172.412 222.887 172.216 222.87C171.932 222.846 171.654 222.817 171.374 222.789C171.185 222.77 170.994 222.753 170.808 222.733C170.535 222.704 170.268 222.671 169.999 222.639C169.81 222.616 169.618 222.595 169.431 222.571C169.181 222.539 168.936 222.503 168.688 222.468C168.509 222.443 168.328 222.419 168.15 222.393L168.203 174.216C168.203 174.212 168.205 174.209 168.205 174.205C168.205 174.201 168.203 174.198 168.203 174.194L168.255 126.298C168.339 126.31 168.426 126.317 168.516 126.317L195.196 125.33L196.168 125.292C197.356 127.287 198.566 129.625 199.794 132.258C199.82 132.313 199.845 132.367 199.871 132.422C207.606 149.076 216.048 177.364 224.25 204.849C225.605 209.389 226.96 213.929 228.312 218.42L228.311 218.42ZM189.725 167.167L191.397 174.034H190.237L189.725 167.167ZM166.494 123.05L166.546 123.35H166.188C166.289 123.25 166.389 123.153 166.494 123.05ZM201.319 115.437L203.596 117.607L201.319 120.168V115.436V115.437ZM198.203 123.497C198.214 123.45 198.222 123.4 198.233 123.352C198.255 123.251 198.277 123.149 198.294 123.043C198.305 122.982 198.311 122.917 198.32 122.854C198.333 122.758 198.346 122.663 198.355 122.565C198.362 122.496 198.365 122.424 198.37 122.354C198.375 122.285 198.382 122.218 198.385 122.147L200.288 122.064L204.074 130.243L201.095 131.374C201.093 131.375 201.09 131.374 201.088 131.375L199.957 131.806C198.802 129.348 197.663 127.151 196.542 125.258C197.256 125.131 197.857 124.623 198.08 123.926C198.126 123.787 198.167 123.644 198.203 123.497ZM213.086 164.386C213.086 165.088 213.007 165.785 212.856 166.465C208.93 154.304 205.051 143.302 201.319 134.807V131.653L204.218 130.553L204.566 131.305C204.594 131.367 204.655 131.404 204.721 131.404C204.731 131.404 204.742 131.404 204.752 131.401C207.953 130.793 210.713 129.937 213.086 128.815V164.386ZM220.891 115.266C223.016 119.875 220.155 123.261 217.429 125.692C214.343 128.249 210.217 129.999 204.82 131.041L204.463 130.27C204.462 130.269 204.462 130.267 204.462 130.265L201.304 123.445C201.304 123.445 201.302 123.443 201.302 123.442L200.468 121.64L201.276 120.732C201.276 120.732 201.277 120.73 201.277 120.73L203.85 117.835L206.988 120.515C207.02 120.542 207.06 120.556 207.099 120.556C207.147 120.556 207.195 120.535 207.229 120.496C207.29 120.424 207.281 120.316 207.21 120.255L203.946 117.467C203.946 117.467 203.944 117.466 203.943 117.466L196.89 110.743C196.979 109.661 197.31 107.781 198.518 107.031C198.598 106.982 198.623 106.876 198.574 106.796C198.524 106.716 198.419 106.691 198.339 106.741C197.024 107.556 196.655 109.479 196.553 110.634C196.549 110.638 196.544 110.64 196.539 110.644C196.539 110.644 196.539 110.644 196.539 110.644C196.538 110.645 196.539 110.646 196.538 110.646C196.533 110.651 196.531 110.657 196.527 110.662C196.523 110.668 196.519 110.673 196.516 110.679C196.501 110.705 196.491 110.733 196.491 110.764V110.766C196.508 112.473 196.633 114.034 196.871 115.54C196.978 116.193 197.202 117.188 197.372 117.759C197.854 119.369 198.082 120.788 198.047 121.979C198.034 122.658 197.936 123.277 197.755 123.818C197.547 124.469 196.944 124.922 196.255 124.947L168.574 125.975H168.515C168.376 125.975 168.247 125.957 168.129 125.922C167.625 125.779 167.24 125.35 167.15 124.829L166.918 123.491C166.917 123.489 166.915 123.488 166.915 123.486L166.774 122.682C166.786 122.161 166.937 113.745 165.003 111.302C164.945 111.228 164.837 111.215 164.763 111.274C164.69 111.332 164.677 111.44 164.735 111.514C166.53 113.78 166.446 121.836 166.434 122.625C166.173 122.885 165.913 123.145 165.652 123.398C163.289 125.701 160.075 128.513 156.158 129.824C153.769 130.622 151.312 130.557 149.236 129.643C148.219 129.202 147.346 128.615 146.567 127.849C144.756 126.066 143.592 123.417 143.008 119.749C142.904 119.091 142.831 118.385 142.787 117.591L142.166 105.959C145.139 105.077 148.915 104.735 153.393 104.943C153.667 105.656 154.06 106.291 154.581 106.882L147.095 115.375C147.032 115.446 147.039 115.553 147.11 115.616C147.142 115.645 147.183 115.658 147.223 115.658C147.27 115.658 147.317 115.639 147.351 115.601L154.933 106.998C154.934 106.996 154.935 106.994 154.936 106.993C154.937 106.991 154.939 106.991 154.94 106.989L160.279 100.121C162.651 96.9693 165.182 95.2535 168.244 94.7216C169.035 94.5813 169.887 94.5402 170.927 94.592L185.836 95.3927C189.461 95.6209 192.391 95.9283 195.055 96.3598L196.156 96.5464C196.156 96.5464 196.159 96.5461 196.16 96.5464C196.162 96.5464 196.163 96.5476 196.164 96.5478C202.237 97.2646 207.5 99.9936 212.724 105.132C215.007 107.515 217.271 110.173 219.646 113.258C220.187 113.967 220.594 114.623 220.891 115.265L220.891 115.266ZM140.75 98.3511C140.782 98.4065 140.839 98.4379 140.899 98.4379C140.927 98.4379 140.956 98.4307 140.983 98.4157C141.065 98.3695 141.094 98.2657 141.048 98.1834C140.571 97.3373 140.364 96.4323 140.391 95.3435C140.88 94.5543 141.794 94.2933 143.175 94.5448C143.146 95.9168 143.366 96.8569 143.89 97.5693C143.923 97.6148 143.975 97.6389 144.027 97.6389C144.062 97.6389 144.098 97.6283 144.128 97.6059C144.204 97.5501 144.221 97.4431 144.165 97.3672C143.837 96.9213 143.471 96.1859 143.518 94.4801C143.974 94.0452 144.457 93.8241 144.993 93.8154H145.011C145.829 93.8154 146.616 94.3628 146.974 95.1831C147.187 95.6687 147.399 96.1597 147.612 96.6531C148.784 99.37 149.999 102.172 151.619 104.552C147.941 104.501 144.782 104.853 142.202 105.6C140.867 103.847 139.257 101.565 138.446 99.2895C138.234 98.6923 138.153 98.128 138.205 97.6116C138.338 96.2696 139.148 95.7934 140.048 95.5212C140.047 96.5918 140.27 97.498 140.751 98.3513L140.75 98.3511ZM178.23 93.6329C178.223 93.5831 178.193 93.5392 178.15 93.513C178.107 93.4871 178.054 93.4814 178.006 93.4975C176.956 93.8566 175.665 93.6786 174.794 93.0539C174.345 92.731 173.81 92.1502 173.814 91.215C173.804 88.7462 175.438 86.2188 176.502 84.8307C176.912 85.1168 177.353 85.3511 177.763 85.5443C177.83 86.3807 178.006 86.8096 178.331 86.9304C178.71 87.0727 179.139 86.7084 179.5 86.3424C179.923 85.9733 180.373 85.8761 180.772 86.0684C181.27 86.3091 181.581 86.9381 181.548 87.6175C181.434 88.3975 181.06 89.0107 180.371 89.5475C180.325 89.5831 180.301 89.6401 180.306 89.6981C180.309 89.7321 180.317 89.7617 180.321 89.7947C180.021 89.9626 179.502 90.1147 178.98 89.6113C178.912 89.5461 178.804 89.5481 178.739 89.6156C178.673 89.6835 178.675 89.7916 178.743 89.8568C179.08 90.1817 179.43 90.2976 179.75 90.2976C179.983 90.2976 180.198 90.2358 180.383 90.1489C180.78 91.7914 182.384 92.1088 183.709 92.1577L184.772 94.9953L178.386 94.6524L178.23 93.6329H178.23ZM205.776 74.5028C203.747 74.6667 201.959 73.1424 201.795 71.1129C201.631 69.0745 203.151 67.2955 205.185 67.1316C207.223 66.9677 209.002 68.4829 209.166 70.5215C209.33 72.5507 207.815 74.339 205.776 74.5028ZM194.082 74.5028C192.053 74.6667 190.265 73.1424 190.101 71.1129C189.937 69.0745 191.457 67.2955 193.491 67.1316C195.529 66.9677 197.309 68.4785 197.472 70.5215C197.636 72.5507 196.121 74.339 194.082 74.5028ZM182.093 74.5166C180.055 74.5166 178.394 72.856 178.394 70.8174C178.394 68.7787 180.055 67.1181 182.093 67.1181C184.132 67.1181 185.792 68.7698 185.792 70.8174C185.792 72.865 184.141 74.5166 182.093 74.5166ZM212.967 104.894C207.684 99.6966 202.358 96.9374 196.208 96.2106L195.111 96.0246C192.435 95.591 189.494 95.2826 185.856 95.0534L185.144 95.0152L184.075 92.1597C186.619 92.0763 188.069 90.8631 188.503 88.4487C188.966 85.868 188.031 83.257 186.198 81.4506H213.086V105.02C213.046 104.979 213.007 104.935 212.967 104.894V104.894ZM102.807 34.0322H157.231C158.426 34.0322 159.399 35.0028 159.399 36.1956V69.9983C159.399 71.1914 158.426 72.1617 157.231 72.1617H102.807C101.612 72.1617 100.639 71.1911 100.639 69.9983V58.1736C100.639 58.1736 100.639 58.1728 100.639 58.1725C100.639 58.1722 100.639 58.1719 100.639 58.1713V36.1956C100.639 35.0025 101.612 34.0322 102.807 34.0322ZM12.1351 126.574V93.072C12.1351 90.8706 13.9263 89.0791 16.1279 89.0791H129.252C131.454 89.0791 133.245 90.8703 133.245 93.072V126.574C133.245 128.776 131.454 130.567 129.252 130.567H121.321C121.227 130.567 121.151 130.643 121.151 130.737V140.586L116.318 135.531C116.315 135.529 116.313 135.526 116.311 135.524L111.621 130.619C111.589 130.586 111.545 130.567 111.498 130.567H16.1279C13.9263 130.567 12.1351 128.776 12.1351 126.574V126.574ZM121.198 141.13C121.231 141.164 121.276 141.182 121.322 141.182C121.343 141.182 121.365 141.178 121.385 141.17C121.45 141.144 121.492 141.082 121.492 141.012V135.818H135.643V163.364H113.921V135.818H116.119L121.198 141.13ZM80.6006 130.908V163.535C80.6006 163.629 80.6771 163.705 80.7711 163.705H102.839C102.933 163.705 103.01 163.629 103.01 163.535V130.908H111.425L115.793 135.477H113.75C113.656 135.477 113.58 135.553 113.58 135.647V163.535C113.58 163.629 113.656 163.705 113.75 163.705H135.813C135.908 163.705 135.984 163.629 135.984 163.535V135.647C135.984 135.553 135.908 135.477 135.813 135.477H121.492V130.908H129.252C131.642 130.908 133.586 128.964 133.586 126.574V93.0723C133.586 90.6825 131.642 88.7382 129.252 88.7382H33.7391V81.4512H175.042C175.016 81.544 174.99 81.6366 174.969 81.7341C174.767 83.0436 175.392 83.9636 176.229 84.6278C174.942 86.3007 173.464 88.7574 173.473 91.215C173.472 91.4703 173.512 91.7158 173.583 91.9507H155.42C155.326 91.9507 155.25 92.0272 155.25 92.1212C155.25 92.2152 155.326 92.292 155.42 92.292H173.714C173.903 92.691 174.198 93.0461 174.595 93.331C175.513 93.9905 176.799 94.1978 177.923 93.881L178.039 94.6342L170.945 94.2533C169.878 94.1998 169.001 94.243 168.186 94.3876C165.355 94.8795 162.97 96.3512 160.756 98.9807H155.42C155.326 98.9807 155.25 99.0572 155.25 99.1512C155.25 99.2452 155.326 99.3217 155.42 99.3217H160.471C160.316 99.514 160.162 99.7115 160.009 99.9156L155.646 105.528H155.42C155.326 105.528 155.25 105.605 155.25 105.699C155.25 105.781 155.309 105.846 155.386 105.863L154.797 106.62C154.297 106.043 153.929 105.42 153.674 104.722C153.651 104.657 153.591 104.613 153.522 104.61C153.016 104.585 152.523 104.571 152.034 104.56C150.364 102.167 149.123 99.2967 147.925 96.5188C147.712 96.0252 147.5 95.5335 147.287 95.0474C146.875 94.1047 145.963 93.4753 145.01 93.4753H144.989C144.375 93.4854 143.806 93.7346 143.294 94.2168C141.732 93.9195 140.688 94.2231 140.108 95.1463C139.135 95.416 138.027 95.9464 137.865 97.5783C137.808 98.1449 137.895 98.7593 138.124 99.4045C138.938 101.689 140.53 103.962 141.867 105.724C141.837 105.757 141.815 105.797 141.818 105.845L142.446 117.612C142.491 118.417 142.565 119.134 142.671 119.804C143.261 123.511 144.443 126.204 146.277 128.038V163.536C146.277 163.63 146.353 163.706 146.447 163.706H167.871L167.86 174.035H113.917V167.314C113.917 167.312 113.917 167.309 113.917 167.306V164.02C113.917 163.926 113.841 163.85 113.747 163.85H76.3675C76.2732 163.85 76.197 163.926 76.197 164.02V174.035H50.731C51.022 172.604 51.1769 171.12 51.1683 169.596C51.1594 167.551 50.8569 165.576 50.3153 163.706H70.3061C70.4004 163.706 70.4766 163.63 70.4766 163.536V135.648C70.4766 135.554 70.4001 135.478 70.3061 135.478H48.2381C48.1438 135.478 48.0676 135.554 48.0676 135.648V158.602C44.9709 153.486 39.8031 149.768 33.7322 148.605C33.7348 148.594 33.7391 148.583 33.7391 148.57V130.909H80.6006V130.908ZM113.576 167.213L95.0585 182.108L76.5382 166.849V164.191H113.576V167.213ZM76.5382 167.292L88.1067 176.823L76.5382 187.042V167.291V167.292ZM88.3735 177.042L94.9489 182.46C94.9803 182.486 95.0188 182.499 95.0573 182.499C95.095 182.499 95.133 182.486 95.1643 182.461L101.901 177.042L113.3 187.25H76.8188L88.3735 177.042ZM102.17 176.825L113.576 167.651V174.199C113.576 174.201 113.575 174.203 113.575 174.205C113.575 174.207 113.576 174.208 113.576 174.21V187.039L102.17 176.825V176.825ZM50.2144 163.375C49.7434 161.842 49.1032 160.385 48.3189 159.023C48.3718 158.994 48.4089 158.94 48.4089 158.875V135.818H70.1356V163.364H50.2676C50.2486 163.364 50.2313 163.369 50.2144 163.375ZM11.6323 169.818C11.5734 159.854 19.6087 151.732 29.5686 151.677C39.5334 151.618 47.6553 159.653 47.7145 169.618C47.7692 179.578 39.7381 187.705 29.7736 187.759C19.8088 187.814 11.6869 179.783 11.6323 169.818ZM6.18501 191.388H38.7724V203.898H22.6764V193.594C22.6764 193.5 22.5999 193.423 22.5059 193.423C22.4119 193.423 22.3354 193.5 22.3354 193.594V203.898H18.1491V197.643C18.1491 197.548 18.0726 197.472 17.9786 197.472C17.8846 197.472 17.8081 197.548 17.8081 197.643V203.898H6.18559V191.388H6.18501ZM63.4687 229.657H52.6147V220.599C52.6147 220.505 52.5382 220.429 52.4442 220.429C52.3502 220.429 52.2737 220.505 52.2737 220.599V229.657H42.5168V217.148H63.469V229.657H63.4687ZM30.7221 216.749H30.3808V206.445C30.3808 206.35 30.4573 206.274 30.5513 206.274C30.6453 206.274 30.7218 206.351 30.7218 206.445V216.749H30.7221ZM26.1939 216.749H25.8527V210.494C25.8527 210.399 25.9291 210.323 26.0234 210.323C26.1177 210.323 26.1939 210.4 26.1939 210.494V216.749ZM21.3248 206.445C21.3248 206.35 21.4013 206.274 21.4953 206.274C21.5893 206.274 21.6658 206.351 21.6658 206.445V216.749H21.3245V206.445H21.3248ZM56.9163 216.749V207.691C56.9163 207.596 56.9928 207.52 57.0868 207.52C57.1808 207.52 57.2573 207.596 57.2573 207.691V216.749H56.916H56.9163ZM47.1591 204.239V216.749H46.8178V204.239H47.1591ZM60.0659 203.898H49.2121V194.84C49.2121 194.745 49.1357 194.669 49.0416 194.669C48.9476 194.669 48.8712 194.745 48.8712 194.84V203.898H39.1139V191.388H60.0662V203.898H60.0659ZM9.58788 217.148H42.1753V229.657H26.0792V219.354C26.0792 219.259 26.0027 219.183 25.9084 219.183C25.8141 219.183 25.738 219.26 25.738 219.354V229.657H21.5514V223.403C21.5514 223.309 21.4749 223.232 21.3809 223.232C21.2869 223.232 21.2104 223.309 21.2104 223.403V229.657H9.58816L9.58788 217.148ZM63.81 229.658V217.09H69.5724C69.6667 217.09 69.7429 217.013 69.7429 216.919V204.068C69.7429 203.974 69.6664 203.898 69.5724 203.898H60.4071V191.217C60.4071 191.123 60.3307 191.047 60.2366 191.047H32.3603C41.4275 189.914 48.7277 183.144 50.6614 174.368C50.6741 174.371 50.6861 174.376 50.6997 174.376H76.197V187.421C76.197 187.462 76.2137 187.499 76.2381 187.528C76.2395 187.53 76.2384 187.532 76.2398 187.534C76.241 187.535 76.2424 187.535 76.2436 187.536C76.2571 187.551 76.2732 187.562 76.291 187.571C76.2942 187.573 76.2964 187.576 76.2996 187.577C76.3203 187.586 76.343 187.592 76.3675 187.592H113.745C113.745 187.592 113.746 187.592 113.746 187.592C113.751 187.592 113.755 187.589 113.76 187.589C113.779 187.587 113.797 187.585 113.814 187.578C113.816 187.576 113.818 187.574 113.82 187.573C113.839 187.564 113.856 187.552 113.871 187.537C113.871 187.536 113.873 187.536 113.873 187.535C113.874 187.534 113.873 187.532 113.875 187.531C113.9 187.501 113.917 187.463 113.917 187.421V174.376H167.86L167.808 222.467L162.753 227.234C162.258 227.689 162.101 228.361 162.346 228.988C162.453 229.263 162.626 229.488 162.839 229.659H63.8097L63.81 229.658ZM192.581 228.168C193.631 227.005 194.14 225.444 193.979 223.889L193.856 222.656C193.855 222.639 193.847 222.623 193.841 222.608C193.852 222.583 193.859 222.557 193.857 222.528L190.263 174.376H191.48L203.451 223.532L200.866 227.85C200.615 228.269 200.609 228.774 200.85 229.2C200.958 229.392 201.11 229.543 201.286 229.658H190.358C191.201 229.351 191.969 228.847 192.581 228.168Z" fill="black"/>
<path d="M34.7574 115.538C34.7928 115.538 34.8281 115.527 34.8577 115.506C34.9101 115.467 34.9362 115.403 34.9256 115.339L33.999 109.953L37.9162 106.14C37.9625 106.094 37.9794 106.027 37.9593 105.965C37.9392 105.903 37.886 105.858 37.8216 105.849L32.414 105.065L29.9921 100.163C29.934 100.046 29.7431 100.047 29.6859 100.163L27.2686 105.065L21.861 105.849C21.7968 105.858 21.7434 105.903 21.7232 105.965C21.7031 106.027 21.7198 106.095 21.7664 106.14L25.679 109.953L24.7567 115.339C24.7457 115.403 24.7719 115.468 24.8245 115.506C24.8768 115.544 24.9464 115.549 25.0039 115.519L29.8385 112.976L34.678 115.519C34.7028 115.532 34.7304 115.538 34.7574 115.538Z" fill="black"/>
<path d="M46.492 109.955L45.5683 115.341C45.5574 115.405 45.5835 115.47 45.6362 115.508C45.6882 115.546 45.7583 115.551 45.8156 115.521L50.6522 112.978L55.4888 115.521C55.5135 115.534 55.5411 115.541 55.5682 115.541C55.6035 115.541 55.6389 115.53 55.6685 115.508C55.7211 115.47 55.7473 115.405 55.7364 115.341L54.8129 109.955L58.7258 106.141C58.7721 106.096 58.789 106.028 58.7689 105.966C58.7488 105.904 58.6956 105.859 58.6312 105.85L53.2239 105.064L50.8054 100.164C50.7476 100.048 50.557 100.048 50.4992 100.164L48.0811 105.064L42.6735 105.85C42.6091 105.859 42.5556 105.904 42.5357 105.966C42.5156 106.028 42.5323 106.096 42.5789 106.141L46.4918 109.955H46.492Z" fill="black"/>
<path d="M67.3079 109.953L66.3859 115.339C66.3749 115.403 66.4011 115.468 66.4537 115.506C66.5057 115.544 66.5753 115.549 66.6334 115.519L71.4677 112.976L76.3072 115.519C76.332 115.532 76.3596 115.538 76.3866 115.538C76.422 115.538 76.4573 115.527 76.4869 115.506C76.5393 115.467 76.5654 115.403 76.5548 115.339L75.6279 109.953L79.5405 106.14C79.5868 106.094 79.6037 106.027 79.5836 105.965C79.5635 105.903 79.51 105.858 79.4459 105.849L74.0383 105.065L71.621 100.163C71.5632 100.047 71.3726 100.047 71.3148 100.163L68.8975 105.065L63.4899 105.849C63.4258 105.858 63.3723 105.903 63.3522 105.965C63.332 106.027 63.3487 106.094 63.3953 106.14L67.3079 109.953Z" fill="black"/>
<path d="M88.1207 109.955L87.1972 115.341C87.1863 115.405 87.2124 115.47 87.2651 115.508C87.3171 115.546 87.3872 115.551 87.4445 115.521L92.2811 112.978L97.1177 115.521C97.1427 115.534 97.17 115.541 97.1971 115.541C97.2324 115.541 97.2678 115.53 97.2971 115.508C97.3497 115.47 97.3759 115.405 97.365 115.341L96.4412 109.955L100.354 106.141C100.401 106.096 100.417 106.028 100.397 105.966C100.377 105.904 100.324 105.859 100.26 105.85L94.8522 105.064L92.434 100.164C92.4053 100.106 92.3458 100.069 92.2811 100.069C92.2164 100.069 92.1569 100.106 92.1281 100.164L89.7097 105.064L84.3024 105.85C84.238 105.859 84.1845 105.904 84.1647 105.966C84.1445 106.028 84.1612 106.096 84.2078 106.141L88.1207 109.955Z" fill="black"/>
<path d="M108.933 109.953L108.006 115.339C107.995 115.403 108.022 115.468 108.074 115.506C108.127 115.543 108.196 115.549 108.254 115.519L113.093 112.976L117.928 115.519C117.953 115.532 117.98 115.538 118.007 115.538C118.043 115.538 118.078 115.527 118.108 115.506C118.16 115.468 118.186 115.403 118.175 115.339L117.253 109.953L121.166 106.14C121.212 106.094 121.229 106.027 121.209 105.965C121.189 105.903 121.135 105.858 121.071 105.849L115.664 105.065L113.246 100.163C113.188 100.047 112.998 100.047 112.94 100.163L110.522 105.065L105.115 105.849C105.051 105.858 104.997 105.903 104.977 105.965C104.957 106.027 104.974 106.094 105.02 106.14L108.933 109.953Z" fill="black"/>
<path d="M200.159 91.9502H185.792C185.697 91.9502 185.621 92.0267 185.621 92.1207C185.621 92.2147 185.698 92.2912 185.792 92.2912H200.159C200.253 92.2912 200.33 92.2147 200.33 92.1207C200.33 92.0267 200.253 91.9502 200.159 91.9502Z" fill="black"/>
<path d="M118.723 67.381C120.145 67.381 121.54 67.1651 122.868 66.7396C127.397 65.2912 130.887 61.5203 131.977 56.8987C131.988 56.8548 131.98 56.8082 131.956 56.7697C131.932 56.7311 131.894 56.7035 131.85 56.6935L118.705 53.6376L118.028 40.3358C118.026 40.2904 118.005 40.2475 117.971 40.2171C117.938 40.1866 117.894 40.1711 117.847 40.1742C110.702 40.6279 105.105 46.597 105.105 53.7635C105.105 61.2722 111.214 67.381 118.723 67.381ZM131.373 57.8021C131.343 57.8967 131.306 57.9884 131.273 58.0821C131.214 58.2543 131.156 58.4271 131.09 58.5961C131.045 58.7097 130.993 58.8198 130.946 58.9319C130.884 59.0774 130.825 59.224 130.758 59.3669C130.703 59.4854 130.64 59.5998 130.582 59.7165C130.515 59.8488 130.451 59.983 130.38 60.113C130.315 60.2317 130.243 60.3462 130.174 60.4629C130.102 60.5859 130.033 60.711 129.956 60.8315C129.883 60.9485 129.802 61.0612 129.725 61.1759C129.647 61.2912 129.572 61.4085 129.49 61.5215C129.408 61.6345 129.321 61.7426 129.236 61.8527C129.151 61.9622 129.07 62.0738 128.982 62.1804C128.893 62.2885 128.798 62.3917 128.706 62.497C128.616 62.6002 128.528 62.7057 128.434 62.8063C128.338 62.9092 128.237 63.0067 128.138 63.1065C128.042 63.2036 127.948 63.3028 127.849 63.3971C127.747 63.4932 127.641 63.584 127.537 63.6772C127.434 63.7689 127.332 63.8629 127.227 63.9514C127.12 64.0408 127.009 64.1245 126.899 64.2108C126.79 64.2964 126.683 64.3841 126.571 64.4663C126.459 64.5489 126.343 64.6256 126.228 64.7047C126.114 64.7837 126 64.8648 125.883 64.9404C125.766 65.0155 125.646 65.0851 125.527 65.1564C125.406 65.2285 125.287 65.303 125.164 65.3714C125.044 65.4387 124.919 65.5005 124.796 65.564C124.67 65.6293 124.545 65.6963 124.417 65.7575C124.292 65.817 124.164 65.8705 124.038 65.9263C123.907 65.9838 123.776 66.0433 123.643 66.0965C123.515 66.1479 123.383 66.1934 123.253 66.2408C123.144 66.2808 123.034 66.3213 122.923 66.3584L118.8 54.0105L131.605 56.9873C131.537 57.2624 131.459 57.5344 131.373 57.8029L131.373 57.8021ZM117.696 40.527L118.37 53.7834C118.371 53.7903 118.377 53.7949 118.378 53.8015C118.379 53.8107 118.376 53.8199 118.379 53.8288L122.597 66.461C121.352 66.8417 120.051 67.0401 118.723 67.0401C111.402 67.0401 105.447 61.0845 105.447 53.7638C105.447 46.8348 110.813 41.0534 117.697 40.5273L117.696 40.527Z" fill="black"/>
<path d="M119.864 52.5364L133.151 55.7754C133.164 55.7788 133.178 55.7803 133.192 55.7803C133.227 55.7803 133.261 55.7694 133.291 55.7487C133.331 55.7196 133.357 55.6748 133.361 55.625C134.254 45.6988 129.34 39.9657 119.151 39.046C119.102 39.042 119.052 39.0589 119.017 39.0934C118.981 39.1279 118.962 39.1765 118.965 39.226L119.734 52.3806C119.739 52.4556 119.791 52.5186 119.864 52.5364H119.864Z" fill="black"/>
<path d="M136.893 43.1545H155.204C155.298 43.1545 155.375 43.078 155.375 42.984C155.375 42.89 155.298 42.8135 155.204 42.8135H136.893C136.799 42.8135 136.723 42.89 136.723 42.984C136.723 43.078 136.799 43.1545 136.893 43.1545Z" fill="black"/>
<path d="M136.893 49.8971H155.204C155.298 49.8971 155.375 49.8206 155.375 49.7266C155.375 49.6326 155.298 49.5562 155.204 49.5562H136.893C136.799 49.5562 136.723 49.6326 136.723 49.7266C136.723 49.8206 136.799 49.8971 136.893 49.8971Z" fill="black"/>
<path d="M136.893 56.6398H155.204C155.298 56.6398 155.375 56.5633 155.375 56.4693C155.375 56.3753 155.298 56.2988 155.204 56.2988H136.893C136.799 56.2988 136.723 56.3753 136.723 56.4693C136.723 56.5633 136.799 56.6398 136.893 56.6398Z" fill="black"/>
<path d="M136.893 63.382H150.246C150.34 63.382 150.417 63.3055 150.417 63.2115C150.417 63.1175 150.34 63.041 150.246 63.041H136.893C136.799 63.041 136.723 63.1175 136.723 63.2115C136.723 63.3055 136.799 63.382 136.893 63.382Z" fill="black"/>
<path d="M30.0774 179.055L30.0685 177.456C31.1184 177.39 32.0332 177.16 32.8124 176.765C33.5903 176.37 34.1921 175.853 34.6164 175.212C35.0408 174.571 35.2504 173.854 35.2461 173.058C35.242 172.277 35.0879 171.628 34.7849 171.112C34.4813 170.596 34.0777 170.174 33.5731 169.846C33.068 169.519 32.507 169.259 31.8909 169.067C31.2737 168.876 30.6498 168.707 30.0184 168.56L29.9888 163.2C30.6044 163.211 31.1863 163.271 31.7351 163.381C32.2834 163.491 32.7983 163.627 33.2801 163.789C33.3402 163.804 33.4006 163.822 33.4604 163.845C33.5205 163.867 33.5809 163.878 33.6407 163.877C33.9259 163.876 34.1472 163.773 34.3036 163.57C34.46 163.366 34.5377 163.152 34.5365 162.926C34.5351 162.656 34.4695 162.454 34.3416 162.32C34.2131 162.185 34.0662 162.088 33.9008 162.029C33.3592 161.837 32.7615 161.675 32.1074 161.544C31.4539 161.412 30.7438 161.334 29.9782 161.308L29.9693 159.754C29.9684 159.559 29.9031 159.394 29.7752 159.26C29.6467 159.126 29.4776 159.059 29.2672 159.06C29.0723 159.061 28.911 159.13 28.7842 159.266C28.6571 159.401 28.5944 159.566 28.5959 159.762L28.6048 161.36C27.5091 161.457 26.5911 161.725 25.8502 162.164C25.1096 162.604 24.5496 163.155 24.1701 163.818C23.7912 164.481 23.6034 165.195 23.6074 165.961C23.6118 166.682 23.7575 167.285 24.0459 167.771C24.3337 168.258 24.7227 168.662 25.2123 168.981C25.7019 169.301 26.2441 169.568 26.8387 169.783C27.4326 169.997 28.0378 170.186 28.6548 170.347L28.6841 175.527C27.8581 175.487 27.1253 175.378 26.4865 175.202C25.8471 175.025 25.302 174.841 24.8503 174.648C24.7149 174.589 24.5717 174.559 24.4219 174.56C24.1367 174.562 23.9119 174.657 23.7477 174.846C23.5833 175.035 23.5019 175.257 23.5039 175.512C23.5048 175.707 23.5698 175.891 23.698 176.062C23.8265 176.234 23.9734 176.357 24.1393 176.432C24.7112 176.668 25.3767 176.886 26.1366 177.084C26.8956 177.283 27.7486 177.409 28.6948 177.464L28.7037 179.063C28.7051 179.258 28.7695 179.419 28.8978 179.547C29.0257 179.673 29.1878 179.736 29.3831 179.735C29.5932 179.734 29.7617 179.669 29.8888 179.541C30.0153 179.412 30.0785 179.251 30.0777 179.056L30.0774 179.055ZM31.6322 171.185C32.1135 171.363 32.4978 171.589 32.7848 171.866C33.0714 172.142 33.2163 172.498 33.2183 172.933C33.2232 173.804 32.9265 174.433 32.3279 174.819C31.7293 175.205 30.9726 175.438 30.0572 175.519L30.0302 170.677C30.6167 170.838 31.1503 171.008 31.6322 171.185ZM27.1308 167.72C26.6794 167.528 26.3212 167.278 26.0567 166.972C25.7922 166.665 25.6585 166.272 25.6559 165.791C25.6519 165.086 25.9264 164.521 26.4796 164.097C27.0324 163.674 27.7443 163.4 28.6146 163.275L28.6422 168.229C28.0858 168.082 27.5819 167.913 27.1305 167.72L27.1308 167.72Z" fill="black"/>
<path d="M229.96 72.3848C229.865 72.3848 229.789 72.4612 229.789 72.5553V83.9159C229.789 84.0102 229.866 84.0863 229.96 84.0863C230.054 84.0863 230.13 84.0099 230.13 83.9159V72.5553C230.13 72.4609 230.054 72.3848 229.96 72.3848Z" fill="black"/>
<path d="M209.14 2.58736H229.788V64.7485C229.788 64.8428 229.865 64.919 229.959 64.919C230.053 64.919 230.129 64.8426 230.129 64.7485V2.41658C230.129 2.32228 230.053 2.24609 229.959 2.24609H209.139C209.045 2.24609 208.969 2.32257 208.969 2.41658C208.969 2.5106 209.045 2.58707 209.139 2.58707L209.14 2.58736Z" fill="black"/>
<path d="M203.46 4.15439C204.56 4.15439 205.447 3.26026 205.447 2.1669C205.447 1.61403 205.229 1.11867 204.869 0.758427C204.508 0.404801 204.007 0.179688 203.46 0.179688C202.913 0.179688 202.412 0.404801 202.051 0.758427C201.691 1.11867 201.473 1.61374 201.473 2.1669C201.473 2.71372 201.691 3.2088 202.051 3.56904C202.412 3.92928 202.913 4.15439 203.46 4.15439Z" fill="black"/>
<path d="M196.916 4.31568C198.105 4.31568 199.073 3.34766 199.073 2.15769C199.073 1.57723 198.85 1.03414 198.444 0.627614C198.038 0.22885 197.481 0 196.916 0C196.35 0 195.794 0.22885 195.387 0.628764C194.981 1.03414 194.758 1.57723 194.758 2.15769C194.758 2.73413 194.981 3.27492 195.387 3.6803C195.79 4.08424 196.347 4.31568 196.916 4.31568ZM195.627 0.871128C195.969 0.534464 196.439 0.341263 196.916 0.341263C197.392 0.341263 197.862 0.534465 198.204 0.869978C198.544 1.21095 198.732 1.66837 198.732 2.15769C198.732 3.15935 197.917 3.97441 196.916 3.97441C196.437 3.97441 195.968 3.77949 195.628 3.43909C195.287 3.0984 195.099 2.64328 195.099 2.15769C195.099 1.66837 195.287 1.21095 195.627 0.871128Z" fill="black"/>
<path d="M190.39 4.1539C191.49 4.1539 192.377 3.25977 192.377 2.16641C192.377 1.61326 192.158 1.11818 191.798 0.757939C191.438 0.404025 190.936 0.179199 190.39 0.179199C189.843 0.179199 189.341 0.404313 188.981 0.757939C188.621 1.11818 188.402 1.61326 188.402 2.16641C188.402 2.71323 188.621 3.20831 188.981 3.56855C189.341 3.92879 189.843 4.1539 190.39 4.1539Z" fill="black"/>
<path d="M6.7408 83.5326C6.8351 83.5326 6.91129 83.4562 6.91129 83.3621V72.0015C6.91129 71.9072 6.83481 71.8311 6.7408 71.8311C6.64679 71.8311 6.57031 71.9075 6.57031 72.0015V83.3621C6.57031 83.4564 6.64679 83.5326 6.7408 83.5326Z" fill="black"/>
<path d="M6.7408 64.3644C6.8351 64.3644 6.91129 64.2879 6.91129 64.1939V21.6921H27.5605C27.6548 21.6921 27.731 21.6156 27.731 21.5216C27.731 21.4276 27.6545 21.3511 27.5605 21.3511H6.7408C6.6465 21.3511 6.57031 21.4276 6.57031 21.5216V64.1942C6.57031 64.2885 6.64679 64.3647 6.7408 64.3647V64.3644Z" fill="black"/>
<path d="M33.2489 23.2545C33.7955 23.2545 34.2972 23.0294 34.6574 22.6691C35.0176 22.3092 35.2361 21.8138 35.2361 21.267C35.2361 20.7141 35.0176 20.2188 34.6574 19.8585C34.2972 19.5049 33.7955 19.2798 33.2489 19.2798C32.7024 19.2798 32.2004 19.5049 31.8405 19.8585C31.4805 20.2188 31.2617 20.7138 31.2617 21.267C31.2617 22.3604 32.1492 23.2545 33.2489 23.2545Z" fill="black"/>
<path d="M39.783 23.4253C40.3511 23.4253 40.9086 23.1939 41.3119 22.79C41.7173 22.3852 41.9407 21.8444 41.9407 21.2674C41.9407 20.6866 41.7173 20.1435 41.3108 19.7373C40.9048 19.3382 40.3479 19.1094 39.783 19.1094C39.218 19.1094 38.6609 19.3382 38.2538 19.7384C37.8484 20.1438 37.625 20.6869 37.625 21.2674C37.625 22.4573 38.593 23.4253 39.783 23.4253ZM38.4941 19.9808C38.8368 19.6438 39.3069 19.4506 39.7833 19.4506C40.2597 19.4506 40.7292 19.6438 41.071 19.9796C41.412 20.3203 41.5997 20.7777 41.5997 21.2674C41.5997 21.753 41.412 22.2081 41.071 22.5487C40.7309 22.8892 40.2617 23.0841 39.7833 23.0841C38.7816 23.0841 37.9666 22.269 37.9666 21.2674C37.9666 20.778 38.1543 20.3206 38.4941 19.9808Z" fill="black"/>
<path d="M46.3114 23.255C46.858 23.255 47.3597 23.0299 47.7199 22.6696C48.0801 22.3097 48.2986 21.8143 48.2986 21.2675C48.2986 20.7146 48.0801 20.2193 47.7199 19.859C47.3597 19.5054 46.858 19.2803 46.3114 19.2803C45.7649 19.2803 45.2632 19.5054 44.903 19.859C44.543 20.2193 44.3242 20.7143 44.3242 21.2675C44.3242 22.3608 45.2117 23.255 46.3117 23.255H46.3114Z" fill="black"/>
<path d="M223.673 65.88C223.626 65.876 223.581 65.8924 223.546 65.924L219.079 69.9849C219.012 70.0459 219.004 70.1488 219.062 70.219L222.881 74.89C222.911 74.9262 222.954 74.9486 223.001 74.9521C223.005 74.9521 223.009 74.9527 223.013 74.9527C223.056 74.9527 223.097 74.9369 223.128 74.9081L227.596 70.8414C227.663 70.7802 227.67 70.6775 227.613 70.6071L223.793 65.9418C223.763 65.9059 223.72 65.8834 223.673 65.8797L223.673 65.88ZM223.032 74.5349L219.429 70.1287L223.643 66.2974L227.246 70.6985L223.032 74.5349H223.032Z" fill="black"/>
<path d="M122.987 18.3896C123.003 18.3896 123.019 18.3873 123.035 18.383L130.476 16.2446C130.536 16.2276 130.581 16.1799 130.595 16.1201C130.609 16.06 130.59 15.9973 130.545 15.9553L125.057 10.8732C125.013 10.8326 124.95 10.8174 124.893 10.8346C124.836 10.851 124.791 10.8965 124.776 10.954L122.822 18.1745C122.806 18.2341 122.823 18.2976 122.867 18.3407C122.9 18.3726 122.943 18.3899 122.987 18.3899L122.987 18.3896ZM125.032 11.3153L130.092 16.0002L123.231 17.9716L125.032 11.3153Z" fill="black"/>
<path d="M17.4648 63.0305C17.4648 64.8619 18.955 66.3517 20.7863 66.3517C22.6177 66.3517 24.1076 64.8619 24.1076 63.0305C24.1076 61.1991 22.6177 59.709 20.7863 59.709C18.955 59.709 17.4648 61.1991 17.4648 63.0305ZM23.7663 63.0305C23.7663 64.6735 22.4294 66.0104 20.7863 66.0104C19.1433 66.0104 17.8061 64.6735 17.8061 63.0305C17.8061 61.3874 19.143 60.0502 20.7863 60.0502C22.4297 60.0502 23.7663 61.3874 23.7663 63.0305Z" fill="black"/>
</svg>
