<svg width="230" height="230" viewBox="0 0 230 230" fill="none" xmlns="http://www.w3.org/2000/svg">
<g clip-path="url(#clip0_2454_4537)">
<path d="M196.043 148.631H15.9069C15.7534 148.631 15.6289 148.507 15.6289 148.354V27.1864C15.6289 27.0331 15.7534 26.9087 15.9069 26.9087H196.043C196.196 26.9087 196.321 27.0331 196.321 27.1864V148.354C196.321 148.507 196.196 148.631 196.043 148.631ZM16.1848 148.076H195.765V27.4642H16.1848V148.076Z" fill="black"/>
<path d="M59.7824 141.576H25.8912C25.7378 141.576 25.6133 141.451 25.6133 141.298C25.6133 141.144 25.7378 141.02 25.8912 141.02H59.7824C59.9358 141.02 60.0603 141.144 60.0603 141.298C60.0603 141.451 59.9358 141.576 59.7824 141.576Z" fill="black"/>
<path d="M188.795 141.576H90.3365C90.1831 141.576 90.0586 141.451 90.0586 141.298C90.0586 141.145 90.1831 141.02 90.3365 141.02H188.517V34.5213H178.649C178.496 34.5213 178.372 34.3969 178.372 34.2436C178.372 34.0902 178.496 33.9658 178.649 33.9658H188.795C188.949 33.9658 189.073 34.0902 189.073 34.2436V141.298C189.073 141.451 188.949 141.576 188.795 141.576Z" fill="black"/>
<path d="M153.897 34.5213H119.895C119.742 34.5213 119.617 34.3969 119.617 34.2436C119.617 34.0902 119.742 33.9658 119.895 33.9658H153.897C154.05 33.9658 154.175 34.0902 154.175 34.2436C154.175 34.3969 154.05 34.5213 153.897 34.5213Z" fill="black"/>
<path d="M134.4 186.873H77.5475C77.394 186.873 77.2695 186.749 77.2695 186.596V148.354C77.2695 148.201 77.394 148.076 77.5475 148.076H134.4C134.554 148.076 134.678 148.201 134.678 148.354V186.596C134.678 186.749 134.554 186.873 134.4 186.873ZM77.8267 186.318H134.124V148.632H77.8267V186.318Z" fill="black"/>
<path d="M170.049 204.318H41.8994C41.7888 204.318 41.6881 204.252 41.6441 204.151C41.6001 204.049 41.6202 203.932 41.6957 203.85L43.0892 202.351C52.5534 192.162 65.9617 186.317 79.8743 186.317H132.075C145.988 186.317 159.395 192.162 168.859 202.351L170.252 203.85C170.328 203.931 170.348 204.049 170.304 204.151C170.26 204.252 170.159 204.318 170.049 204.318ZM42.5371 203.762H169.411L168.451 202.729C159.092 192.652 145.833 186.873 132.075 186.873H79.8743C66.1164 186.873 52.8577 192.652 43.4967 202.729L42.5371 203.762Z" fill="black"/>
<path d="M0.277344 25.6206C0.277344 100.692 44.064 115.136 44.064 115.136C44.064 115.136 87.8508 96.1275 87.8508 25.6206L44.064 0.277832L0.277344 25.6206Z" fill="white"/>
<path d="M44.0647 115.414C44.0357 115.414 44.0055 115.408 43.9779 115.4C43.8672 115.363 32.8309 111.614 21.9594 98.709C15.5816 91.1378 10.5005 81.9391 6.85822 71.3691C2.30662 58.1661 0 42.775 0 25.6205C0 25.5212 0.0528233 25.4295 0.138347 25.3804L43.9251 0.0377049C44.0118 -0.0125683 44.1175 -0.0125683 44.203 0.0377049L87.9897 25.3804C88.0752 25.4307 88.1281 25.5212 88.1281 25.6205C88.1281 41.7343 85.8214 56.4782 81.2711 69.4449C77.6288 79.8238 72.549 89.093 66.1737 96.9934C55.3097 110.457 44.2848 115.343 44.1753 115.391C44.1401 115.406 44.1024 115.414 44.0647 115.414ZM0.555902 25.7801C0.58986 64.351 12.426 86.5164 22.3581 98.3206C32.5769 110.465 42.9239 114.431 44.0508 114.837C45.1639 114.323 55.5273 109.312 65.7624 96.6163C75.697 84.2944 87.5382 62.007 87.5722 25.7801L44.0647 0.598251L0.555902 25.7801Z" fill="black"/>
<path d="M44.0664 105.383C44.0664 105.383 80.4164 89.602 80.4164 31.0689L44.0664 10.0308V105.384V105.383Z" fill="#DFE3E8"/>
<path d="M44.0654 105.66C44.0365 105.66 44.0075 105.655 43.9786 105.646C43.8868 105.616 34.7119 102.501 25.6779 91.7761C20.3792 85.4857 16.1584 77.8442 13.1324 69.0639C9.35297 58.0993 7.4375 45.3161 7.4375 31.0699C7.4375 30.9707 7.49032 30.8789 7.57585 30.8299L43.9258 9.78929C44.0591 9.71262 44.2289 9.75787 44.3056 9.88984C44.3823 10.0231 44.3371 10.1927 44.2037 10.2694L7.99214 31.2296C8.02484 63.2184 17.8399 81.597 26.0766 91.389C35.01 102.008 44.0616 105.09 44.1522 105.12C44.2981 105.168 44.3773 105.325 44.3295 105.471C44.2905 105.587 44.1824 105.662 44.0654 105.662V105.66Z" fill="black"/>
<path d="M29.8997 56.5162V34.4186C29.8997 29.1813 34.1733 24.9194 39.4255 24.9194H49.0205C54.2726 24.9194 58.5462 29.1813 58.5462 34.4186V56.5162C58.5462 58.0595 57.2923 59.3101 55.7441 59.3101H32.7006C31.1536 59.3101 29.8984 58.0595 29.8984 56.5162H29.8997ZM52.9432 34.4186C52.9432 32.2618 51.1837 30.5073 49.0205 30.5073H39.4255C37.2622 30.5073 35.5027 32.2618 35.5027 34.4186V53.7222H52.942V34.4186H52.9432Z" fill="black"/>
<path d="M55.7447 59.5878H32.7012C31.0033 59.5878 29.6211 58.2103 29.6211 56.5161V34.4185C29.6211 29.0279 34.0193 24.6416 39.4248 24.6416H49.0198C54.4254 24.6416 58.8236 29.0279 58.8236 34.4185V56.5161C58.8236 58.2103 57.4413 59.5878 55.7435 59.5878H55.7447ZM39.4261 25.1971C34.3261 25.1971 30.1783 29.3334 30.1783 34.4185V56.5161C30.1783 57.9036 31.3102 59.0323 32.7025 59.0323H55.746C57.1382 59.0323 58.2702 57.9036 58.2702 56.5161V34.4185C58.2702 29.3334 54.121 25.1971 49.0223 25.1971H39.4274H39.4261ZM52.9438 53.9999H35.5046C35.3512 53.9999 35.2266 53.8755 35.2266 53.7222V34.4185C35.2266 32.1084 37.1107 30.2295 39.4274 30.2295H49.0223C51.339 30.2295 53.223 32.1084 53.223 34.4185V53.7222C53.223 53.8755 53.0985 53.9999 52.9451 53.9999H52.9438ZM35.7813 53.4444H52.6646V34.4185C52.6646 32.4151 51.0296 30.785 49.0198 30.785H39.4248C37.415 30.785 35.78 32.4151 35.78 34.4185V53.4444H35.7813Z" fill="black"/>
<path d="M66.1059 48.5151C66.1222 48.9538 66.1323 49.3949 66.1323 49.8398C66.1323 65.1229 56.2518 77.5115 44.0622 77.5115C31.8727 77.5115 21.9922 65.1229 21.9922 49.8398C21.9922 49.3962 22.0022 48.955 22.0186 48.5151H66.1059Z" fill="black"/>
<path d="M44.0629 77.7892C31.7399 77.7892 21.7148 65.251 21.7148 49.8398C21.7148 49.42 21.7236 48.9826 21.7413 48.505C21.7463 48.3554 21.8695 48.2373 22.0192 48.2373H66.1065C66.2562 48.2373 66.3782 48.3554 66.3845 48.505C66.4021 48.9826 66.4109 49.42 66.4109 49.8398C66.4109 65.251 56.3858 77.7892 44.0629 77.7892ZM22.2871 48.7928C22.2758 49.1611 22.2695 49.5054 22.2695 49.8398C22.2695 64.9456 32.0456 77.2336 44.0616 77.2336C56.0776 77.2336 65.8537 64.9444 65.8537 49.8398C65.8537 49.5067 65.8474 49.1611 65.8361 48.7928H22.2871Z" fill="black"/>
<path d="M39.6992 68.2748L41.9115 59.2407C40.7871 58.5557 40.035 57.324 40.035 55.9151C40.035 53.7609 41.7857 52.0151 43.9465 52.0151C46.1072 52.0151 47.8579 53.7609 47.8579 55.9151C47.8579 57.3252 47.1058 58.5557 45.9814 59.2407L48.1937 68.2748H39.6992Z" fill="white"/>
<path d="M187.851 34.5781H126.926V80.3242H187.851V34.5781Z" fill="#DFE3E8"/>
<path d="M173.433 211.265H156.27L158.922 194.607H176.086L173.433 211.265Z" fill="white"/>
<path d="M173.434 211.543H156.27C156.188 211.543 156.111 211.507 156.058 211.445C156.006 211.383 155.983 211.301 155.996 211.221L158.648 194.563C158.669 194.428 158.786 194.329 158.922 194.329H176.086C176.168 194.329 176.245 194.364 176.297 194.427C176.35 194.489 176.373 194.57 176.36 194.651L173.708 211.309C173.686 211.443 173.569 211.543 173.434 211.543ZM156.596 210.987H173.196L175.76 194.885H159.16L156.596 210.987Z" fill="black"/>
<path d="M212.695 191.6L205.375 207.115L191.43 197.613L198.749 182.099L212.695 191.6Z" fill="white"/>
<path d="M205.374 207.393C205.318 207.393 205.264 207.376 205.216 207.345L191.27 197.843C191.157 197.766 191.116 197.618 191.176 197.495L198.495 181.981C198.531 181.908 198.595 181.852 198.674 181.831C198.752 181.81 198.836 181.824 198.904 181.87L212.851 191.372C212.964 191.448 213.004 191.597 212.945 191.72L205.625 207.234C205.59 207.308 205.526 207.362 205.447 207.384C205.423 207.39 205.398 207.394 205.374 207.394V207.393ZM191.78 197.516L205.262 206.701L212.341 191.696L198.86 182.511L191.78 197.516Z" fill="black"/>
<path d="M179.21 199.927L156.359 199.393L168.305 88.8545L194.307 92.5043L179.21 199.927Z" fill="black"/>
<path d="M159.515 170.179L157.992 184.246L179.212 199.927L180.765 188.193L159.515 170.179Z" fill="black"/>
<path d="M152.659 89.4251L130.593 135.482C126.471 144.085 129.031 154.399 136.696 160.082L193.422 202.133L206.788 183.647L156.834 143.045L177.679 99.7726L152.659 89.4238V89.4251Z" fill="black"/>
<path d="M193.423 202.412C193.364 202.412 193.306 202.393 193.257 202.358L136.531 160.307C128.775 154.557 126.173 144.067 130.343 135.364L152.41 89.307C152.476 89.1688 152.642 89.1097 152.781 89.1763C152.919 89.243 152.978 89.4088 152.911 89.5471L130.845 135.604C126.789 144.068 129.321 154.27 136.863 159.862L193.363 201.746L206.41 183.701L156.661 143.264C156.561 143.182 156.53 143.044 156.585 142.928L167.528 120.213C167.595 120.074 167.762 120.016 167.899 120.083C168.038 120.15 168.096 120.316 168.029 120.454L157.181 142.972L206.963 183.436C207.078 183.529 207.099 183.695 207.014 183.814L193.648 202.3C193.604 202.36 193.539 202.4 193.466 202.412C193.452 202.414 193.438 202.416 193.423 202.416V202.412Z" fill="white"/>
<path d="M135.333 222.464V219.081C135.333 216.556 137.177 214.416 139.657 214.064L146.588 213.078C147.689 212.922 148.733 212.489 149.624 211.818L151.204 210.723C154.629 208.35 155.47 205.033 155.665 204.674H178.204L179.653 222.244L135.332 222.463L135.333 222.464Z" fill="#DFE3E8"/>
<path d="M179.767 222.115C180.384 222.115 180.886 222.619 180.887 223.242L180.901 227.892C180.901 228.569 180.357 229.118 179.686 229.118H135.331C134.276 229.118 133.422 228.256 133.422 227.192V224.041C133.422 222.978 134.277 222.116 135.331 222.116H179.765L179.767 222.115Z" fill="black"/>
<path d="M135.323 222.393C135.177 222.393 135.053 222.278 135.046 222.131L134.904 219.655C134.743 216.844 136.705 214.406 139.467 213.983L147.793 212.709C148.074 212.666 148.356 212.793 148.512 213.032L152.806 219.615C152.89 219.743 152.854 219.916 152.724 220C152.596 220.083 152.423 220.048 152.339 219.918L148.045 213.335C148.009 213.278 147.942 213.248 147.876 213.258L139.55 214.533C137.072 214.912 135.313 217.1 135.457 219.624L135.599 222.1C135.608 222.253 135.491 222.384 135.338 222.393C135.333 222.393 135.326 222.393 135.321 222.393H135.323Z" fill="black"/>
<path d="M155.666 214.217C155.618 214.217 155.569 214.204 155.525 214.178L150.977 211.503C150.845 211.425 150.801 211.256 150.878 211.122C150.956 210.99 151.125 210.946 151.259 211.024L155.806 213.699C155.938 213.777 155.983 213.947 155.906 214.08C155.854 214.168 155.761 214.217 155.666 214.217Z" fill="black"/>
<path d="M171.16 222.34C172.604 216.459 176.758 213.967 178.908 213.047L179.716 222.138C179.963 222.138 171.16 222.34 171.16 222.34Z" fill="#020202"/>
<path d="M211.216 187.289L224.502 194.208L210.564 216.307C209.309 218.297 207.274 219.655 204.96 220.047L190.858 222.439C189.547 214.855 194.389 212.357 196.988 211.571C198.054 211.248 198.97 210.56 199.582 209.626L198.312 205.326L211.215 187.288L211.216 187.289Z" fill="#DFE3E8"/>
<path d="M190.856 222.718C190.722 222.718 190.605 222.623 190.581 222.488C189.359 215.408 193.416 212.618 197.037 211.525C197.367 211.425 197.685 211.287 197.982 211.114C198.114 211.037 198.285 211.081 198.362 211.214C198.44 211.348 198.394 211.517 198.261 211.594C197.925 211.789 197.568 211.945 197.197 212.056C192.313 213.533 190.215 217.108 191.129 222.394C191.155 222.545 191.053 222.689 190.902 222.714C190.886 222.717 190.871 222.718 190.854 222.718H190.856Z" fill="black"/>
<path d="M190.858 222.44L204.96 220.049C207.273 219.657 209.309 218.298 210.564 216.308L224.502 194.21L224.701 193.898C225.136 193.252 225.991 193.046 226.676 193.421L229.207 194.999C229.985 195.426 230.237 196.425 229.757 197.168L214.539 220.69C212.719 223.502 209.811 225.419 206.516 225.977L191.898 228.457C191.104 228.591 190.348 228.053 190.21 227.254L189.67 224.132C189.532 223.333 190.064 222.576 190.858 222.44Z" fill="#020202"/>
<path d="M220.492 200.563C218.498 199.061 217.044 196.823 216.583 194.163C216.346 192.783 216.397 191.422 216.694 190.143L224.501 194.208L220.492 200.564V200.563Z" fill="#020202"/>
<path d="M205.97 215.798C205.926 215.798 205.881 215.788 205.839 215.765L198.023 211.612C197.887 211.54 197.835 211.372 197.908 211.236C197.98 211.1 198.148 211.049 198.284 211.122L206.101 215.275C206.237 215.347 206.288 215.515 206.215 215.651C206.165 215.745 206.069 215.798 205.97 215.798Z" fill="black"/>
<path d="M206.978 210.912C206.957 210.912 206.935 210.91 206.914 210.905L202.479 209.858C202.33 209.823 202.238 209.673 202.273 209.524C202.308 209.374 202.457 209.282 202.608 209.318L207.042 210.365C207.192 210.4 207.284 210.549 207.249 210.699C207.218 210.827 207.104 210.912 206.978 210.912Z" fill="black"/>
<path d="M211.599 79.4756L199.787 56.7546C197.07 51.53 191.94 47.9882 186.088 47.2995L170.238 45.4331L160.862 47.5471C153.678 49.1672 147.21 53.0646 142.423 58.6587L118.402 86.73L133.675 101.141L147.118 86.9136L146.55 94.7298H199.031L198.906 93.1298C201.506 94.2182 204.548 94.2019 207.256 92.8232C212.144 90.3359 214.088 84.3597 211.598 79.4744L211.599 79.4756Z" fill="white"/>
<path d="M207.256 93.101C207.154 93.101 207.057 93.0457 207.008 92.949C206.939 92.812 206.993 92.6448 207.129 92.5757C209.427 91.4056 211.131 89.4122 211.928 86.9614C212.726 84.5106 212.519 81.8964 211.35 79.6002L199.537 56.8804C196.861 51.7312 191.819 48.2523 186.052 47.5723L170.203 45.706C170.051 45.6884 169.941 45.5501 169.959 45.398C169.976 45.246 170.114 45.1366 170.267 45.1542L186.117 47.0206C192.067 47.7207 197.267 51.3114 200.029 56.624L211.841 79.345C213.08 81.7757 213.298 84.5395 212.454 87.1311C211.611 89.7227 209.808 91.8316 207.378 93.0684C207.338 93.0885 207.295 93.0985 207.252 93.0985L207.256 93.101Z" fill="black"/>
<path d="M146.551 95.0077C146.545 95.0077 146.537 95.0077 146.531 95.0077C146.377 94.9963 146.263 94.8631 146.274 94.711L148.702 61.3032C148.713 61.1499 148.849 61.0343 148.998 61.0468C149.152 61.0581 149.266 61.1914 149.255 61.3434L146.828 94.7513C146.818 94.8971 146.696 95.0089 146.551 95.0089V95.0077Z" fill="black"/>
<path d="M168.602 51.456L173.152 55.7267L178.155 45.9686L172.21 44.8262L168.602 51.456Z" fill="black"/>
<path d="M168.617 51.452L162.977 55.4713L163.745 46.8972L167.79 45.0547L168.617 51.452Z" fill="black"/>
<path d="M189.242 79.6239C189.14 79.6239 189.043 79.5686 188.994 79.4718L182.577 66.8834C182.508 66.7464 182.562 66.5792 182.698 66.5101C182.835 66.4397 183.002 66.495 183.071 66.632L189.488 79.2204C189.557 79.3574 189.503 79.5246 189.367 79.5937C189.327 79.6138 189.284 79.6239 189.242 79.6239Z" fill="black"/>
<path d="M100.849 58.4414C100.18 59.0987 99.1042 59.0899 98.4464 58.4213L94.7111 54.598L93.1276 56.154L92.2221 55.234C90.7757 53.7635 91.0411 51.9147 91.0449 51.9398C91.1782 50.0093 93.5188 48.5451 95.028 50.0784L100.869 56.0408C101.527 56.7095 101.518 57.7841 100.849 58.4414Z" fill="#DFE3E8"/>
<path d="M96.4261 58.7305C95.757 59.3878 94.6817 59.379 94.0239 58.7104L92.3009 56.9496L90.7175 58.5055L89.8119 57.5855C88.3656 56.115 88.6309 54.2662 88.6347 54.2914C88.768 52.3609 91.1086 50.8967 92.6178 52.43L96.4463 56.3312C97.104 56.9998 97.0952 58.0744 96.4261 58.7317V58.7305Z" fill="#DFE3E8"/>
<path d="M110.198 54.6785L110.349 48.647C110.386 47.2079 110.983 45.8405 112.013 44.835L112.299 44.556C113.097 43.7767 113.114 42.4985 112.334 41.6992L112.164 41.5258C111.384 40.7277 110.105 40.7113 109.305 41.4906L107.49 43.2602C106.458 44.2669 105.86 45.6368 105.827 47.0784L105.659 54.0765L99.5317 47.7986L89.6211 57.4599L95.4128 63.3921L107.882 76.4267L117.22 70.3323L109.363 62.4155C109.854 59.8642 110.133 57.2764 110.198 54.6785Z" fill="#DFE3E8"/>
<path d="M101.898 70.1724L107.88 76.4251L117.218 70.3308L111.874 64.9478L101.898 70.1724Z" fill="black"/>
<path d="M104.443 57.2811C103.774 57.9384 102.698 57.9296 102.04 57.2609L97.1329 52.2374L95.5495 53.7933L94.644 52.8733C93.1976 51.4029 93.463 49.5541 93.4667 49.5792C93.6001 47.6474 95.9406 46.1845 97.4499 47.7178L104.463 54.8818C105.121 55.5504 105.112 56.625 104.443 57.2823V57.2811Z" fill="#DFE3E8"/>
<path d="M105.936 53.9357C105.267 54.593 104.192 54.5842 103.534 53.9156L99.5118 49.7982L97.9284 51.3542L97.0229 50.4342C95.5765 48.9637 95.8419 47.1149 95.8457 47.14C95.979 45.2095 98.3195 43.7453 99.8288 45.2786L105.958 51.5351C106.615 52.2038 106.607 53.2784 105.937 53.9357H105.936Z" fill="#DFE3E8"/>
<path d="M104.672 54.6293C104.235 54.6293 103.798 54.4848 103.434 54.1932C103.315 54.0964 103.296 53.9217 103.393 53.8023C103.488 53.6829 103.663 53.6641 103.784 53.7608C104.345 54.212 105.156 54.1718 105.669 53.6666C105.939 53.4014 106.09 53.0457 106.094 52.6661C106.097 52.2866 105.952 51.9296 105.687 51.6594L99.6283 45.4733C98.9101 44.7443 98.119 44.8876 97.7115 45.0384C96.8387 45.3614 96.1847 46.2324 96.1218 47.1587C96.1105 47.312 95.9784 47.4277 95.825 47.4164C95.6716 47.4063 95.5559 47.2731 95.5672 47.1198C95.6451 45.9823 96.4476 44.9128 97.5191 44.5169C98.4284 44.1813 99.3415 44.3874 100.026 45.0837L106.084 51.2698C106.454 51.6456 106.655 52.1433 106.651 52.6712C106.646 53.199 106.437 53.693 106.06 54.0625C105.677 54.4383 105.176 54.6293 104.673 54.6293H104.672Z" fill="black"/>
<path d="M103.25 58.0467C102.77 58.0467 102.289 57.872 101.909 57.5213L100.66 56.2419C100.553 56.1325 100.555 55.9566 100.665 55.8485C100.775 55.7417 100.951 55.7429 101.059 55.8535L102.298 57.1229C102.845 57.6282 103.705 57.6143 104.247 57.0827C104.518 56.8175 104.669 56.4618 104.672 56.0823C104.675 55.7027 104.53 55.3457 104.265 55.0755L97.252 47.9116C96.7389 47.39 96.0811 47.2279 95.4007 47.4541C94.5567 47.7344 93.8814 48.5551 93.7606 49.4487C93.7405 49.6008 93.5996 49.7076 93.4475 49.6862C93.2953 49.6661 93.1884 49.5254 93.2098 49.3733C93.3607 48.2597 94.1706 47.2769 95.2258 46.9262C96.1062 46.6334 96.9891 46.8508 97.6494 47.522L104.662 54.6859C105.032 55.0617 105.233 55.5594 105.23 56.0873C105.225 56.6152 105.016 57.1091 104.638 57.4786C104.254 57.8569 103.753 58.0467 103.252 58.0467H103.25Z" fill="black"/>
<path d="M99.6556 59.2054C99.1437 59.2054 98.6318 59.0081 98.2457 58.616L96.4736 56.8023C96.3667 56.693 96.368 56.517 96.4787 56.409C96.5881 56.3021 96.7642 56.3034 96.8723 56.414L98.6444 58.2276C99.1928 58.7856 100.093 58.7932 100.653 58.2439C100.923 57.9775 101.074 57.6231 101.078 57.2435C101.082 56.8639 100.937 56.507 100.671 56.2368L94.8298 50.2731C94.3167 49.7515 93.6589 49.5894 92.9772 49.8156C92.1321 50.0972 91.4579 50.9179 91.3385 51.8127C91.3183 51.9648 91.1775 52.0716 91.0266 52.0515C90.8744 52.0314 90.7675 51.8907 90.7876 51.7398C90.9373 50.6263 91.7472 49.6409 92.8024 49.2903C93.6841 48.9974 94.5682 49.2136 95.2285 49.8848L101.069 55.8484C101.439 56.2242 101.64 56.7219 101.635 57.2498C101.631 57.7776 101.421 58.2716 101.044 58.6411C100.661 59.0181 100.159 59.2067 99.6581 59.2067L99.6556 59.2054Z" fill="black"/>
<path d="M107.88 76.7031C107.806 76.7031 107.733 76.6729 107.679 76.6164L95.2048 63.4925L89.6131 57.7777C88.2661 56.409 88.2925 54.7236 88.3617 54.2699H88.3566C88.4346 53.1325 89.237 52.0617 90.3086 51.667C91.2179 51.3314 92.131 51.5376 92.8152 52.2338L96.6436 56.135C97.0134 56.5108 97.2146 57.0085 97.2108 57.5364C97.207 58.0643 96.997 58.5582 96.6197 58.9277C95.8424 59.6906 94.5885 59.6806 93.8251 58.9038L92.2278 57.27C92.1209 57.1606 92.1222 56.9847 92.2316 56.8766C92.341 56.7697 92.5171 56.771 92.6253 56.8816L94.2225 58.5142C94.7709 59.071 95.6727 59.0798 96.2311 58.5306C96.5015 58.2641 96.6524 57.9097 96.6562 57.5301C96.66 57.1506 96.5153 56.7936 96.2487 56.5234L92.4203 52.6222C91.7034 51.8932 90.911 52.0365 90.5035 52.1873C89.6307 52.5103 88.9779 53.3813 88.9138 54.3076C88.9138 54.3214 88.9113 54.3353 88.9075 54.3491C88.8924 54.4685 88.7201 56.076 90.0118 57.3881L95.6073 63.1067L107.925 76.0646L116.783 70.2832L109.166 62.6077C109.102 62.5424 109.073 62.4494 109.091 62.3601C109.578 59.8314 109.857 57.2436 109.921 54.6696L110.072 48.6381C110.11 47.1173 110.731 45.6958 111.82 44.6338L112.106 44.3548C112.794 43.6836 112.808 42.5789 112.136 41.8914L111.966 41.7179C111.295 41.0305 110.189 41.0166 109.501 41.6878L107.686 43.4574C106.7 44.4189 106.138 45.7059 106.105 47.0834L105.961 51.1467C105.956 51.2963 105.832 51.4144 105.683 51.4144C105.679 51.4144 105.676 51.4144 105.673 51.4144C105.519 51.4094 105.4 51.2799 105.405 51.1266L105.548 47.0658C105.585 45.5463 106.205 44.1223 107.296 43.059L109.111 41.2894C110.019 40.4046 111.477 40.4222 112.364 41.3296L112.533 41.503C113.419 42.4105 113.4 43.8671 112.493 44.7519L112.208 45.0309C111.223 45.9912 110.662 47.2769 110.627 48.6506L110.476 54.6821C110.412 57.2385 110.139 59.8075 109.663 62.3199L117.417 70.1336C117.476 70.1927 117.505 70.2756 117.496 70.3586C117.487 70.4415 117.442 70.5157 117.372 70.5622L108.033 76.6566C107.987 76.6867 107.934 76.7018 107.881 76.7018L107.88 76.7031Z" fill="black"/>
<path d="M143.09 88.8906L127.366 104.604L101.355 75.4589L114.075 62.7485L143.09 88.8906Z" fill="white"/>
<path d="M127.366 104.881C127.366 104.881 127.361 104.881 127.359 104.881C127.282 104.879 127.211 104.846 127.159 104.788L101.149 75.6436C101.05 75.5343 101.055 75.3659 101.16 75.2628L113.88 62.5512C113.985 62.4469 114.153 62.4419 114.263 62.5412L143.278 88.6832C143.334 88.7348 143.367 88.8064 143.369 88.8818C143.372 88.9585 143.342 89.0314 143.288 89.0854L127.564 104.798C127.512 104.851 127.441 104.88 127.368 104.88L127.366 104.881ZM101.738 75.4702L127.379 104.199L142.688 88.9007L114.086 63.1306L101.74 75.4702H101.738Z" fill="black"/>
<path d="M138.435 84.9743C138.368 84.9743 138.302 84.9505 138.249 84.9027L114.086 63.1319L101.553 75.6562C101.445 75.7643 101.269 75.7643 101.159 75.6562C101.051 75.5481 101.051 75.3721 101.159 75.2628L113.88 62.5512C113.984 62.4469 114.153 62.4431 114.262 62.5412L138.621 84.4892C138.735 84.5922 138.744 84.7682 138.641 84.8813C138.586 84.9416 138.51 84.9731 138.435 84.9731V84.9743Z" fill="black"/>
<path d="M146.578 86.5781L121.129 107.587L150.518 143.138L175.967 122.129L146.578 86.5781Z" fill="white"/>
<path d="M150.519 143.409C150.51 143.409 150.502 143.409 150.493 143.409C150.42 143.402 150.352 143.367 150.305 143.31L120.915 107.761C120.869 107.704 120.846 107.631 120.853 107.557C120.859 107.484 120.895 107.416 120.952 107.37L146.4 86.3593C146.457 86.3128 146.53 86.2902 146.604 86.2964C146.677 86.304 146.745 86.3392 146.791 86.3957L176.181 121.945C176.279 122.063 176.263 122.238 176.143 122.336L150.695 143.347C150.645 143.388 150.582 143.411 150.518 143.411L150.519 143.409ZM121.52 107.619L150.556 142.741L175.575 122.085L146.54 86.9626L121.519 107.619H121.52Z" fill="black"/>
<path d="M135.795 91.4643L127.969 97.9248L131.697 102.434L139.523 95.9739L135.795 91.4643Z" fill="black"/>
<path d="M131.96 97.7612C130.527 97.7612 129.359 96.5961 129.359 95.1633C129.359 93.7305 130.525 92.5654 131.96 92.5654C133.395 92.5654 134.561 93.7305 134.561 95.1633C134.561 96.5961 133.395 97.7612 131.96 97.7612ZM131.96 93.1209C130.833 93.1209 129.917 94.0372 129.917 95.1633C129.917 96.2894 130.833 97.2056 131.96 97.2056C133.087 97.2056 134.004 96.2894 134.004 95.1633C134.004 94.0372 133.087 93.1209 131.96 93.1209Z" fill="black"/>
<path d="M201.484 80.4346L170.768 89.1067L171.325 91.2433L157.576 95.3368C155.022 96.0972 152.786 97.6682 151.206 99.8136L147.837 104.389C147.209 105.241 146.717 106.186 146.378 107.189L144.455 112.887C144.174 113.719 144.622 114.622 145.455 114.902L145.724 114.992C146.556 115.273 147.459 114.826 147.74 113.994L146.638 117.261C146.349 118.119 146.81 119.049 147.669 119.34L147.844 119.399C148.703 119.688 149.634 119.227 149.924 118.368L150.268 117.353C149.979 118.211 150.44 119.14 151.299 119.429L151.474 119.488C152.333 119.777 153.264 119.316 153.554 118.457L154.548 115.515C154.258 116.374 154.72 117.302 155.579 117.592L155.754 117.651C156.613 117.94 157.544 117.478 157.834 116.62L159.524 111.61C159.846 110.658 160.586 109.903 161.532 109.563L163.757 108.764C163.914 108.707 164.07 108.645 164.223 108.581C164.274 108.56 164.323 108.536 164.373 108.515C164.475 108.469 164.577 108.424 164.677 108.375C164.736 108.346 164.793 108.316 164.851 108.286C164.94 108.239 165.029 108.193 165.117 108.145C165.178 108.113 165.236 108.077 165.295 108.042C165.379 107.993 165.462 107.943 165.544 107.891C165.603 107.855 165.661 107.817 165.719 107.778C165.799 107.725 165.878 107.671 165.956 107.615C166.013 107.575 166.068 107.536 166.124 107.494C166.202 107.436 166.278 107.376 166.355 107.316C166.408 107.274 166.461 107.233 166.511 107.191C166.589 107.126 166.666 107.059 166.742 106.991C166.789 106.95 166.835 106.91 166.882 106.868C166.966 106.79 167.049 106.709 167.131 106.628C167.165 106.594 167.2 106.562 167.234 106.528C167.349 106.411 167.459 106.291 167.567 106.169C167.586 106.148 167.604 106.124 167.624 106.103C167.712 106.001 167.798 105.898 167.882 105.792C167.917 105.747 167.951 105.701 167.986 105.654C168.05 105.57 168.115 105.484 168.175 105.398C168.213 105.344 168.249 105.29 168.286 105.236C168.341 105.154 168.395 105.071 168.448 104.988C168.484 104.93 168.52 104.871 168.555 104.812C168.604 104.729 168.653 104.646 168.699 104.562C168.733 104.5 168.766 104.44 168.799 104.377C168.844 104.292 168.887 104.205 168.93 104.118C168.96 104.055 168.99 103.994 169.019 103.93C169.033 103.9 169.049 103.869 169.062 103.839L174.212 102.305L174.738 104.324L206.068 93.2882L201.488 80.4346H201.484Z" fill="#020202"/>
<path d="M149.663 105.409L146.637 114.374C146.348 115.232 146.809 116.163 147.668 116.453L147.843 116.512C148.702 116.801 149.633 116.34 149.923 115.481L152.949 106.516C153.288 105.513 153.78 104.568 154.408 103.716L160.213 95.8358L156.928 94.7285L151.123 102.609C150.496 103.461 150.003 104.406 149.664 105.409H149.663Z" fill="#DFE3E8"/>
<path d="M152.945 106.516L150.262 114.465C149.973 115.323 150.434 116.253 151.293 116.543L151.468 116.603C152.327 116.892 153.258 116.43 153.548 115.572L156.231 107.624C156.569 106.621 157.061 105.676 157.69 104.824L163.494 96.9432L160.209 95.8359L154.405 103.716C153.777 104.568 153.286 105.514 152.946 106.516H152.945Z" fill="#DFE3E8"/>
<path d="M156.232 107.624L154.543 112.628C154.254 113.487 154.716 114.417 155.575 114.707L155.749 114.766C156.608 115.055 157.539 114.594 157.83 113.736L159.52 108.726C159.842 107.773 160.582 107.019 161.527 106.678L163.752 105.879C166.402 104.926 168.471 102.817 169.37 100.151L169.741 99.0495L163.494 96.9443L157.69 104.825C157.062 105.677 156.571 106.622 156.231 107.625L156.232 107.624Z" fill="#DFE3E8"/>
<path d="M157.576 92.4509C155.022 93.2113 152.786 94.7824 151.206 96.9278L147.837 101.503C147.209 102.355 146.717 103.3 146.378 104.303L144.455 110.001C144.174 110.833 144.621 111.736 145.455 112.016L145.724 112.107C146.556 112.387 147.46 111.941 147.74 111.107L149.663 105.409C150.001 104.406 150.493 103.461 151.122 102.609L156.678 95.0664L169.048 100.95L199.033 92.0236L183.626 84.6963L157.576 92.4509Z" fill="#DFE3E8"/>
<path d="M148.363 116.876C148.161 116.876 147.954 116.844 147.752 116.776L147.577 116.717C147.092 116.553 146.698 116.21 146.47 115.752C146.243 115.293 146.207 114.773 146.371 114.287L149.397 105.322C149.745 104.291 150.248 103.324 150.895 102.447L155.387 96.3487C155.479 96.2255 155.653 96.1991 155.776 96.2896C155.899 96.3801 155.926 96.5548 155.835 96.678L151.343 102.776C150.73 103.607 150.253 104.523 149.924 105.501L146.898 114.466C146.782 114.81 146.806 115.18 146.968 115.507C147.131 115.832 147.41 116.076 147.754 116.193L147.929 116.252C148.275 116.369 148.644 116.344 148.971 116.181C149.296 116.019 149.54 115.74 149.657 115.396L152.683 106.43C153.032 105.398 153.536 104.431 154.181 103.554L158.548 97.6256C158.638 97.5025 158.812 97.4761 158.937 97.5666C159.06 97.657 159.086 97.8317 158.996 97.9549L154.629 103.883C154.018 104.714 153.54 105.63 153.21 106.607L150.184 115.573C149.914 116.373 149.165 116.878 148.364 116.878L148.363 116.876Z" fill="black"/>
<path d="M151.996 116.967C151.789 116.967 151.582 116.933 151.381 116.865L151.206 116.806C150.72 116.642 150.327 116.299 150.099 115.841C149.871 115.382 149.836 114.862 150 114.376L152.682 106.428C153.031 105.396 153.535 104.429 154.18 103.553L158.547 97.6241C158.639 97.5009 158.811 97.4745 158.936 97.565C159.059 97.6555 159.085 97.8302 158.995 97.9534L154.628 103.882C154.017 104.713 153.539 105.629 153.209 106.607L150.527 114.555C150.287 115.266 150.67 116.042 151.383 116.282L151.558 116.341C151.903 116.456 152.272 116.433 152.599 116.27C152.925 116.108 153.169 115.829 153.286 115.485L155.969 107.537C156.317 106.505 156.822 105.537 157.467 104.661L161.959 98.5629C162.051 98.4398 162.225 98.4134 162.348 98.5039C162.471 98.5943 162.498 98.769 162.407 98.8922L157.914 104.99C157.303 105.821 156.825 106.737 156.496 107.714L153.813 115.662C153.65 116.147 153.306 116.541 152.847 116.768C152.578 116.901 152.289 116.969 151.997 116.969L151.996 116.967Z" fill="black"/>
<path d="M156.274 115.129C156.068 115.129 155.861 115.095 155.659 115.027L155.485 114.968C154.482 114.63 153.941 113.541 154.28 112.538L155.969 107.533C156.317 106.501 156.822 105.535 157.467 104.657L161.959 98.5592C162.051 98.4361 162.225 98.4097 162.348 98.5002C162.471 98.5907 162.498 98.7654 162.407 98.8885L157.914 104.987C157.302 105.817 156.825 106.734 156.496 107.711L154.807 112.716C154.566 113.428 154.95 114.203 155.663 114.443L155.838 114.502C156.55 114.742 157.326 114.359 157.566 113.646L159.256 108.637C159.607 107.597 160.401 106.788 161.433 106.417L163.658 105.618C165.941 104.797 167.816 103.056 168.804 100.842C168.836 100.767 168.9 100.712 168.978 100.688L198.26 91.9634L183.603 84.9918L157.657 92.7162C155.176 93.4553 152.965 95.0087 151.431 97.0913L148.062 101.665C147.449 102.496 146.972 103.412 146.642 104.39L144.719 110.088C144.607 110.42 144.631 110.776 144.787 111.09C144.943 111.404 145.212 111.639 145.544 111.751L145.813 111.841C146.5 112.073 147.245 111.703 147.477 111.017L149.4 105.318C149.748 104.287 150.253 103.319 150.898 102.443L154.492 97.5638C154.584 97.4407 154.758 97.4143 154.881 97.5048C155.004 97.5953 155.031 97.77 154.94 97.8931L151.346 102.772C150.733 103.603 150.256 104.519 149.927 105.497L148.004 111.195C147.674 112.172 146.612 112.697 145.636 112.368L145.366 112.278C144.894 112.118 144.51 111.784 144.289 111.337C144.067 110.89 144.033 110.384 144.193 109.911L146.116 104.212C146.464 103.181 146.969 102.213 147.614 101.336L150.983 96.762C152.589 94.5826 154.904 92.9563 157.498 92.1833L183.548 84.4287C183.613 84.4086 183.683 84.4149 183.746 84.4438L199.153 91.7711C199.257 91.8201 199.32 91.9282 199.31 92.0438C199.301 92.1582 199.224 92.2562 199.113 92.2889L169.259 101.184C168.197 103.48 166.232 105.282 163.847 106.139L161.622 106.939C160.749 107.253 160.08 107.935 159.783 108.812L158.093 113.822C157.93 114.307 157.586 114.701 157.127 114.928C156.858 115.061 156.569 115.128 156.277 115.128L156.274 115.129Z" fill="black"/>
<path d="M169.072 101.191C169.043 101.191 169.013 101.186 168.982 101.176C168.837 101.127 168.759 100.97 168.808 100.824L169.921 97.5263C169.97 97.3805 170.127 97.3026 170.273 97.3516C170.419 97.4006 170.497 97.5577 170.448 97.7035L169.335 101.001C169.296 101.117 169.187 101.19 169.072 101.19V101.191Z" fill="black"/>
<path d="M202.101 78.0772L170.77 86.2271L174.734 101.445L206.065 93.2956L202.101 78.0772Z" fill="white"/>
<path d="M174.734 101.718C174.685 101.718 174.638 101.705 174.595 101.68C174.531 101.642 174.484 101.582 174.465 101.51L170.501 86.2926C170.466 86.1544 170.539 86.0124 170.673 85.9621L201.374 74.5362C201.517 74.4822 201.678 74.5563 201.731 74.6996C201.785 74.8429 201.711 75.0038 201.567 75.0566L171.102 86.3944L174.933 101.099L207.187 92.5554C207.335 92.5165 207.487 92.6044 207.526 92.7527C207.565 92.9011 207.477 93.0531 207.329 93.0921L174.805 101.708C174.781 101.714 174.757 101.716 174.733 101.716L174.734 101.718Z" fill="black"/>
<path d="M174.089 45.8895L168.599 51.456L166.32 40.2941L172.682 38.9971L174.089 45.8895Z" fill="#DFE3E8"/>
<path d="M168.6 51.7339C168.574 51.7339 168.548 51.7302 168.521 51.7226C168.423 51.6937 168.349 51.612 168.327 51.5115L166.048 40.3496C166.018 40.1988 166.115 40.053 166.265 40.0215L172.625 38.7245C172.698 38.7094 172.772 38.7245 172.834 38.7647C172.895 38.8049 172.938 38.869 172.953 38.9407L174.361 45.8331C174.379 45.9236 174.352 46.0179 174.286 46.0832L168.798 51.6497C168.745 51.7038 168.673 51.7327 168.6 51.7327V51.7339ZM166.65 40.5104L168.769 50.8894L173.788 45.8004L172.465 39.3253L166.65 40.5117V40.5104Z" fill="black"/>
<path d="M173.155 41.3222L172.68 38.9971L166.32 40.2941L167.368 45.4258C167.944 45.4232 169.076 45.3365 170.258 44.6603C172.108 43.6021 172.991 41.8073 173.155 41.3209V41.3222Z" fill="black"/>
<path d="M173.151 37.1544L168.002 36.9445L163.266 39.1L161.629 32.2239L171.404 28.8267L173.151 37.1544Z" fill="black"/>
<path d="M169.297 43.4871C172.023 42.9315 173.735 40.0407 173.12 37.0305C172.506 34.0203 169.798 32.0305 167.072 32.5862C164.346 33.1418 162.635 36.0325 163.249 39.0428C163.864 42.053 166.572 44.0428 169.297 43.4871Z" fill="#DFE3E8"/>
<path d="M168.382 43.8484C165.863 43.8484 163.55 41.8877 162.978 39.0888C162.334 35.9328 164.145 32.8901 167.016 32.3044C169.891 31.7187 172.747 33.8101 173.393 36.966C174.037 40.1219 172.226 43.1647 169.354 43.7503C169.028 43.8169 168.704 43.8484 168.382 43.8484ZM167.988 32.7619C167.703 32.7619 167.415 32.7908 167.127 32.8486C164.556 33.3727 162.939 36.1226 163.521 38.9781C164.105 41.8337 166.67 43.7302 169.241 43.2061C171.812 42.682 173.429 39.9321 172.847 37.0766C172.329 34.5415 170.247 32.7619 167.988 32.7619Z" fill="black"/>
<path d="M166.602 41.3978C166.963 41.6629 167.408 41.82 167.889 41.8175C168.965 41.8112 169.85 41.0169 170.006 39.9863L166.602 41.3978Z" fill="white"/>
<path d="M170.698 27.4016C170.482 27.4456 170.277 27.516 170.085 27.6027C169.649 26.3283 168.328 25.544 166.972 25.8205C165.528 26.1146 164.59 27.5034 164.84 28.945C164.49 28.7954 164.093 28.7477 163.692 28.8294C162.64 29.0443 161.961 30.0699 162.176 31.1206C162.204 31.2538 162.244 31.382 162.297 31.5027C162.127 31.5052 161.955 31.5215 161.782 31.5567C160.292 31.8609 159.33 33.315 159.634 34.8044C159.939 36.2937 161.394 37.2552 162.884 36.951C164.375 36.6469 165.337 35.1927 165.032 33.7034C165.026 33.6745 165.017 33.6468 165.011 33.6179C165.679 33.8466 166.622 33.8856 167.626 33.6807C168.564 33.4897 169.366 33.1227 169.897 32.6904C170.469 33.0046 171.15 33.1265 171.84 32.9857C173.385 32.6703 174.381 31.1646 174.065 29.6212C173.749 28.0778 172.243 27.0824 170.7 27.3978L170.698 27.4016ZM166.025 30.7523C166.025 30.7523 166.036 30.7586 166.041 30.7624C166.036 30.7649 166.03 30.7662 166.025 30.7687C166.025 30.7636 166.025 30.7586 166.025 30.7536V30.7523Z" fill="black"/>
<path d="M80.3686 143.734L6.5594 187.357L2.26562 180.121L76.0748 136.498L80.3686 143.734Z" fill="#DFE3E8"/>
<path d="M75.9685 141.414C76.4917 142.296 76.1999 143.435 75.3157 143.956C74.4316 144.479 73.2908 144.187 72.7676 143.305C72.2444 142.423 72.5362 141.284 73.4204 140.763C74.3045 140.24 75.4453 140.531 75.9685 141.414Z" fill="white"/>
<path d="M69.1062 147.327C70.1335 147.327 70.9664 146.496 70.9664 145.471C70.9664 144.445 70.1335 143.614 69.1062 143.614C68.0789 143.614 67.2461 144.445 67.2461 145.471C67.2461 146.496 68.0789 147.327 69.1062 147.327Z" fill="white"/>
<path d="M63.8406 150.438C64.8679 150.438 65.7007 149.607 65.7007 148.581C65.7007 147.556 64.8679 146.725 63.8406 146.725C62.8133 146.725 61.9805 147.556 61.9805 148.581C61.9805 149.607 62.8133 150.438 63.8406 150.438Z" fill="white"/>
<path d="M31.7044 230C31.6805 230 31.6579 229.997 31.6353 229.991C31.5636 229.972 31.502 229.926 31.4655 229.863L16.0763 203.574L2.02783 180.265C1.9901 180.202 1.97878 180.125 1.99639 180.054C2.014 179.982 2.06053 179.92 2.12468 179.883L75.9339 136.259C76.0659 136.181 76.2357 136.225 76.3149 136.357L83.2662 148.07C83.3442 148.202 83.3014 148.373 83.1694 148.451C83.0386 148.528 82.8675 148.486 82.7883 148.354L75.9791 136.88L2.64788 180.218L16.553 203.29L31.8025 229.341L75.017 203.801C75.1491 203.723 75.3201 203.767 75.3981 203.899C75.4761 204.031 75.432 204.202 75.3 204.28L31.8453 229.962C31.8025 229.987 31.7535 230.001 31.7044 230.001V230Z" fill="black"/>
<path d="M75.1603 204.318C75.0648 204.318 74.9729 204.269 74.9214 204.181C74.8434 204.049 74.8874 203.878 75.0195 203.8L105.134 186.001L82.8738 148.494C82.7958 148.362 82.8386 148.192 82.9706 148.114C83.1014 148.036 83.2725 148.078 83.3517 148.21L105.754 185.956C105.792 186.02 105.802 186.095 105.784 186.167C105.766 186.238 105.72 186.3 105.656 186.336L75.3012 204.276C75.2572 204.303 75.2081 204.315 75.1603 204.315V204.318Z" fill="#020202"/>
</g>
<defs>
<clipPath id="clip0_2454_4537">
<rect width="230" height="230" fill="white"/>
</clipPath>
</defs>
</svg>
