<svg width="66" height="60" viewBox="0 0 66 60" fill="none" xmlns="http://www.w3.org/2000/svg">
<path fill-rule="evenodd" clip-rule="evenodd" d="M24.0609 3.10802e-05H3.58272C1.60948 3.10802e-05 0 1.60951 0 3.58275V13.9976C0 15.9708 1.60948 17.5803 3.58272 17.5803H14.1644L19.4354 21.9147C19.7325 22.1602 20.1235 22.2087 20.472 22.042C20.8206 21.8783 21.0297 21.5479 21.0297 21.16V17.5803H24.0607C26.034 17.5803 27.6435 15.9708 27.6435 13.9975V3.58272C27.6435 1.60948 26.0341 3.10802e-05 24.0609 3.10802e-05ZM45.1116 16.6923C45.242 16.2922 45.5754 16.0073 45.9906 15.9436L49.1672 15.4405L50.6312 12.5731C50.8222 12.2003 51.198 11.9669 51.6163 11.9669C52.0346 11.9669 52.4134 12.2003 52.6014 12.5731L54.0653 15.4405L57.2419 15.9436C57.6572 16.0103 57.9906 16.2922 58.1209 16.6923C58.2513 17.0894 58.1482 17.5198 57.8512 17.8138L55.5748 20.0901L56.078 23.2697C56.1447 23.685 55.978 24.0881 55.6355 24.3367C55.296 24.5852 54.8595 24.6185 54.4836 24.4276L51.6163 22.9697L48.7489 24.4276C48.373 24.6185 47.9366 24.5852 47.5971 24.3367C47.2576 24.0881 47.0909 23.688 47.1545 23.2697L47.6577 20.0901L45.3814 17.8138C45.0874 17.5198 44.9843 17.0894 45.1116 16.6923ZM46.2786 17.0712L48.6883 19.4809C48.8308 19.6234 48.8823 19.8234 48.8459 20.0053L48.3185 23.3425L51.3557 21.7966C51.5284 21.7087 51.7224 21.7148 51.8831 21.7966C52.8955 22.3119 53.9078 22.8272 54.9202 23.3425L54.3898 19.978C54.3625 19.7962 54.4231 19.6113 54.5504 19.4809L56.9602 17.0712L53.5957 16.5378C53.4108 16.5074 53.2532 16.3953 53.1683 16.2286L51.6225 13.1976L50.0766 16.2286C49.9827 16.4135 49.8008 16.5287 49.6068 16.5438L46.2848 17.0712L46.2786 17.0712ZM8.16619 6.64162C8.16619 5.80809 8.47536 5.05635 8.97248 4.51683C9.45745 3.98942 10.1273 3.66204 10.8608 3.66204C11.3852 3.66204 11.8702 3.82572 12.2794 4.10761C12.7128 4.40768 13.0674 4.8381 13.2887 5.35037C13.3796 5.56255 13.5888 5.69894 13.8161 5.69894C14.0404 5.69894 14.2556 5.56861 14.3496 5.35037C14.5739 4.83812 14.9255 4.40775 15.3589 4.10761C15.7681 3.82572 16.2561 3.66204 16.7775 3.66204C17.514 3.66204 18.1808 3.9894 18.6658 4.51683C19.1629 5.05636 19.4721 5.80809 19.4721 6.64162C19.4721 8.23899 16.7472 10.9821 14.9589 12.7826C14.5315 13.21 14.1556 13.5889 13.8828 13.8859C13.8677 13.9041 13.8374 13.9192 13.8131 13.9192C13.7859 13.9192 13.7646 13.9041 13.7434 13.8859C13.4706 13.5889 13.0948 13.21 12.6674 12.7826C10.8791 10.9821 8.15417 8.24202 8.15417 6.64162H8.16619ZM11.855 13.601C9.93326 11.6671 7.00226 8.71488 7.00226 6.64162C7.00226 5.50803 7.42662 4.47741 8.11769 3.72877C8.81787 2.96798 9.78777 2.49517 10.8608 2.49517C11.6247 2.49517 12.3369 2.73462 12.9402 3.14987C13.2736 3.38023 13.5706 3.66213 13.8222 3.98643C14.0738 3.6621 14.3738 3.38022 14.7042 3.14987C15.3074 2.73462 16.0197 2.49517 16.7835 2.49517C17.8565 2.49517 18.8264 2.96498 19.5267 3.72877C20.2147 4.47744 20.6421 5.50803 20.6421 6.64162C20.6421 8.71488 17.7111 11.6641 15.7894 13.601C15.4378 13.9556 15.0831 14.3072 14.7436 14.674C14.5133 14.9316 14.1677 15.0831 13.8222 15.0831C13.4675 15.0831 13.1402 14.9316 12.9007 14.674C12.6249 14.3739 12.2642 14.0132 11.858 13.601H11.855ZM33.3147 35.094H45.3753C47.0878 35.094 48.4882 36.4944 48.4882 38.2069C48.4882 39.9195 47.0878 41.3198 45.3753 41.3198H43.9477C45.6602 41.3198 47.0606 42.7202 47.0606 44.4327C47.0606 46.1452 45.6602 47.5456 43.9477 47.5456H42.217C43.9295 47.5456 45.3298 48.9459 45.3298 50.6585C45.3298 52.371 43.9295 53.7714 42.217 53.7714H40.6377C42.3503 53.7714 43.7506 55.1717 43.7506 56.8842C43.7506 58.5968 42.3503 59.9971 40.6377 59.9971H26.122C23.7305 59.9971 21.1359 59.9941 19.4173 58.2633C19.5477 57.8572 19.6204 57.4268 19.6204 56.9782V38.0768C19.6204 37.2493 19.3779 36.4764 18.9627 35.8278C20.2145 34.1274 21.4996 33.2786 22.8212 32.0177C24.5065 30.4052 26.3949 26.5012 26.4919 23.9129C26.5798 21.5396 27.486 20.4181 28.6076 20.1513C30.7718 19.6391 32.5268 22.1518 32.8147 24.4918C33.133 27.0895 32.1388 28.411 31.9963 30.2781C31.9236 31.2269 31.8175 32.1665 31.866 33.685C31.8902 34.47 32.5359 35.0914 33.3179 35.0914L33.3147 35.094ZM18.4568 38.0767V56.9781C18.4568 58.6421 17.0989 60 15.4348 60H11.6248C9.96073 60 8.60282 58.6421 8.60282 56.9781V38.0767C8.60282 36.4126 9.96073 35.0547 11.6248 35.0547H15.4348C17.0989 35.0547 18.4568 36.4126 18.4568 38.0767ZM13.5313 53.1503C12.4462 53.1503 11.5672 54.0293 11.5672 55.1144C11.5672 56.1995 12.4462 57.0785 13.5313 57.0785C14.6164 57.0785 15.4954 56.1995 15.4954 55.1144C15.4954 54.0293 14.6164 53.1503 13.5313 53.1503ZM41.3747 9.62406C39.4015 9.62406 37.792 11.2335 37.792 13.2068V23.6216C37.792 25.5949 39.4015 27.2043 41.3747 27.2043H49.3344V30.784C49.3344 31.169 49.5436 31.4994 49.8922 31.666C50.2407 31.8297 50.6287 31.7812 50.9288 31.5388L56.1998 27.2044H61.8558C63.829 27.2044 65.4385 25.5949 65.4385 23.6216V13.2068C65.4385 11.2336 63.829 9.62409 61.8558 9.62409L41.3747 9.62406Z" fill="black"/>
</svg>
