<svg width="39" height="39" viewBox="0 0 39 39" fill="none" xmlns="http://www.w3.org/2000/svg">
<g clip-path="url(#clip0_2238_4620)">
<path d="M37.6505 36.5145H36.4384V14.0909C36.4384 13.4634 35.9296 12.9546 35.302 12.9546H30.7567C30.1292 12.9546 29.6204 13.4634 29.6204 14.0909V36.5145H27.3477V21.6665C27.3477 21.0389 26.8389 20.5301 26.2114 20.5301H21.6661C21.0385 20.5301 20.5297 21.0389 20.5297 21.6665V36.5145H18.2571V25.833C18.2571 25.2055 17.7483 24.6967 17.1207 24.6967H12.5754C11.9478 24.6967 11.4391 25.2055 11.4391 25.833V36.5145H9.16641V28.5602C9.16641 27.9327 8.65763 27.4239 8.03008 27.4239H3.48475C2.85719 27.4239 2.34842 27.9327 2.34842 28.5602V36.5145H1.13633C0.508774 36.5145 0 37.0233 0 37.6509C0 38.2784 0.508774 38.7872 1.13633 38.7872H37.6505C38.278 38.7872 38.7868 38.2784 38.7868 37.6509C38.7868 37.0233 38.278 36.5145 37.6505 36.5145Z" fill="url(#paint0_linear_2238_4620)"/>
<path d="M1.13633 24.4165C8.2284 24.4165 15.9192 21.8695 22.7922 17.2445C28.175 13.6223 32.6621 8.99491 35.4493 4.25663L36.5529 8.37523C36.689 8.88294 37.3458 9.32156 37.9446 9.17869C38.555 9.03309 38.9105 8.39318 38.7481 7.78699L36.8873 0.842485C36.7248 0.236365 36.102 -0.123473 35.4956 0.0390224L28.5511 1.8998C27.9449 2.06222 27.5852 2.68531 27.7476 3.29151C27.9101 3.8977 28.5329 4.25754 29.1393 4.09497L33.6131 2.89621C31.0128 7.41472 26.7153 11.8652 21.5234 15.359C15.0215 19.7343 7.78122 22.1439 1.13633 22.1439C0.508774 22.1439 0 22.6526 0 23.2802C0 23.9077 0.508774 24.4165 1.13633 24.4165Z" fill="url(#paint1_linear_2238_4620)"/>
</g>
<defs>
<linearGradient id="paint0_linear_2238_4620" x1="0" y1="25.8709" x2="38.7868" y2="25.8709" gradientUnits="userSpaceOnUse">
<stop stop-color="#FFE26E"/>
<stop offset="1" stop-color="#FFCD05"/>
</linearGradient>
<linearGradient id="paint1_linear_2238_4620" x1="0" y1="12.2083" x2="38.7874" y2="12.2083" gradientUnits="userSpaceOnUse">
<stop stop-color="#FFE26E"/>
<stop offset="1" stop-color="#FFCD05"/>
</linearGradient>
<clipPath id="clip0_2238_4620">
<rect width="38.7873" height="38.7873" fill="white"/>
</clipPath>
</defs>
</svg>
