<svg width="60" height="60" viewBox="0 0 60 60" fill="none" xmlns="http://www.w3.org/2000/svg">
<path d="M9.42271 42.3889L17.2571 34.5546C16.7485 33.1318 16.4717 31.5998 16.4717 30.0033C16.4717 22.5294 22.5293 16.4783 29.9967 16.4783C31.5933 16.4783 33.1254 16.7551 34.548 17.2637L39.8975 11.9142C36.7754 10.9292 33.4472 10.4014 30.0032 10.4014C16.7679 10.4014 5.36076 18.2035 0.120702 29.4626C-0.0402339 29.8038 -0.0402339 30.2029 0.120702 30.5505C2.27717 35.1789 5.47657 39.2281 9.42271 42.3889Z" fill="black"/>
<path d="M50.5763 17.6182L42.742 25.4525C43.2505 26.8752 43.5273 28.4073 43.5273 30.0038C43.5273 37.4776 37.4697 43.5288 30.0023 43.5288C28.4058 43.5288 26.8737 43.252 25.4511 42.7434L20.1016 48.093C23.2237 49.0779 26.5518 49.6058 29.9958 49.6058C43.2312 49.6058 54.6383 41.8036 59.8783 30.5445C60.0393 30.2033 60.0393 29.8042 59.8783 29.4566C57.7219 24.8281 54.5225 20.7789 50.5763 17.6182Z" fill="black"/>
<path d="M30.0014 38.6617C34.7844 38.6617 38.6597 34.7864 38.6597 30.0034C38.6597 29.8553 38.6532 29.7008 38.6469 29.5527L29.5508 38.6488C29.6988 38.6552 29.8469 38.6617 30.0014 38.6617Z" fill="black"/>
<path d="M30.0021 21.3516C25.2191 21.3516 21.3438 25.2269 21.3438 30.0099C21.3438 30.158 21.3502 30.3125 21.3566 30.4605L30.4527 21.3644C30.2982 21.3516 30.1501 21.3516 30.0021 21.3516Z" fill="black"/>
<path d="M11.5138 43.934L7.44538 48.0025C6.19008 49.2578 6.19008 51.2984 7.44538 52.5537C8.07625 53.1846 8.90024 53.4936 9.72423 53.4936C10.5482 53.4936 11.3722 53.1782 12.0031 52.5537L17.4363 47.1205L22.9853 41.5715L26.5967 37.9601L37.9653 26.5916L41.5767 22.9801L48.4905 16.0664L52.5588 11.998C53.8141 10.7427 53.8141 8.702 52.5588 7.4467C51.928 6.81583 51.104 6.50684 50.2801 6.50684C49.4561 6.50684 48.632 6.82227 48.0012 7.4467L42.5681 12.8799L37.019 18.4289L33.4076 22.0403L22.0391 33.4088L18.4277 37.0203L11.5138 43.934Z" fill="black"/>
</svg>
