<svg xmlns="http://www.w3.org/2000/svg" width="1200" height="630" viewBox="0 0 1200 630" fill="none" role="img" aria-label="Get Reviews Buzz">
  <defs>
    <linearGradient id="bg" x1="0" y1="0" x2="1200" y2="630" gradientUnits="userSpaceOnUse">
      <stop offset="0" stop-color="#0f172a"/>
      <stop offset="1" stop-color="#1e293b"/>
    </linearGradient>
  </defs>
  <rect width="1200" height="630" fill="url(#bg)"/>
  <g transform="translate(600 270)" fill="#facc15">
    <g transform="translate(-260 0)">
      <path d="M0-34 8.5-11 33-11 13.5 3.5 21 27 0 13 -21 27 -13.5 3.5 -33-11 -8.5-11Z"/>
    </g>
    <g transform="translate(-130 -8) scale(1.25)">
      <path d="M0-34 8.5-11 33-11 13.5 3.5 21 27 0 13 -21 27 -13.5 3.5 -33-11 -8.5-11Z"/>
    </g>
    <g transform="translate(0 -12) scale(1.45)">
      <path d="M0-34 8.5-11 33-11 13.5 3.5 21 27 0 13 -21 27 -13.5 3.5 -33-11 -8.5-11Z"/>
    </g>
    <g transform="translate(130 -8) scale(1.25)">
      <path d="M0-34 8.5-11 33-11 13.5 3.5 21 27 0 13 -21 27 -13.5 3.5 -33-11 -8.5-11Z"/>
    </g>
    <g transform="translate(260 0)">
      <path d="M0-34 8.5-11 33-11 13.5 3.5 21 27 0 13 -21 27 -13.5 3.5 -33-11 -8.5-11Z"/>
    </g>
  </g>
  <text x="600" y="400" text-anchor="middle" font-family="Poppins, Arial, sans-serif" font-size="56" font-weight="700" fill="#ffffff">Get Reviews Buzz</text>
  <text x="600" y="452" text-anchor="middle" font-family="Poppins, Arial, sans-serif" font-size="24" font-weight="400" fill="#94a3b8">Reviews &amp; Online Reputation Management</text>
</svg>
