<svg width="87" height="87" viewBox="0 0 87 87" fill="none" xmlns="http://www.w3.org/2000/svg">
<rect width="86.8711" height="86.8711" rx="43.4356" fill="white"/>
<rect x="0.241309" y="0.241309" width="86.3885" height="86.3885" rx="43.1942" stroke="#FFCF09" stroke-opacity="0.5" stroke-width="0.482617"/>
<path d="M60.1026 40.2178H43.4362V47.0709H52.9599C52.5416 49.2749 51.2868 51.141 49.4046 52.3958C47.828 53.4576 45.8171 54.1011 43.4362 54.1011C38.8353 54.1011 34.9261 50.9962 33.5265 46.8135H33.5055L33.5265 46.7975C33.1725 45.7357 32.9634 44.6096 32.9634 43.4352C32.9634 42.2609 33.1725 41.1348 33.5265 40.073C34.9261 35.8903 38.8353 32.7855 43.4362 32.7855C46.0423 32.7855 48.3589 33.6864 50.2089 35.4238L55.2764 30.3563C52.2038 27.4928 48.2141 25.7393 43.4362 25.7393C36.5187 25.7393 30.5503 29.7128 27.6385 35.5042C26.432 37.8851 25.7402 40.5717 25.7402 43.4352C25.7402 46.2988 26.432 48.9853 27.6385 51.3662V51.3823C30.5503 57.1576 36.5187 61.1312 43.4362 61.1312C48.2141 61.1312 52.2198 59.5546 55.1477 56.852C58.4939 53.7632 60.4243 49.2266 60.4243 43.8374C60.4243 42.5826 60.3117 41.3761 60.1026 40.2178Z" fill="#FC4C53"/>
<mask id="mask0_1800_1485" style="mask-type:luminance" maskUnits="userSpaceOnUse" x="25" y="25" width="36" height="37">
<path d="M60.1026 40.2178H43.4362V47.0709H52.9599C52.5416 49.2749 51.2868 51.141 49.4046 52.3958C47.828 53.4576 45.8171 54.1011 43.4362 54.1011C38.8353 54.1011 34.9261 50.9962 33.5265 46.8135H33.5055L33.5265 46.7975C33.1725 45.7357 32.9634 44.6096 32.9634 43.4352C32.9634 42.2609 33.1725 41.1348 33.5265 40.073C34.9261 35.8903 38.8353 32.7855 43.4362 32.7855C46.0423 32.7855 48.3589 33.6864 50.2089 35.4238L55.2764 30.3563C52.2038 27.4928 48.2141 25.7393 43.4362 25.7393C36.5187 25.7393 30.5503 29.7128 27.6385 35.5042C26.432 37.8851 25.7402 40.5717 25.7402 43.4352C25.7402 46.2988 26.432 48.9853 27.6385 51.3662V51.3823C30.5503 57.1576 36.5187 61.1312 43.4362 61.1312C48.2141 61.1312 52.2198 59.5546 55.1477 56.852C58.4939 53.7632 60.4243 49.2266 60.4243 43.8374C60.4243 42.5826 60.3117 41.3761 60.1026 40.2178Z" fill="white"/>
</mask>
<g mask="url(#mask0_1800_1485)">
<path d="M29.9952 62.8055C36.8853 62.8055 42.4708 55.2652 42.4708 45.9638C42.4708 36.6624 36.8853 29.1221 29.9952 29.1221C23.1051 29.1221 17.5195 36.6624 17.5195 45.9638C17.5195 55.2652 23.1051 62.8055 29.9952 62.8055Z" fill="url(#paint0_radial_1800_1485)"/>
<path d="M51.5118 79.8914C65.4106 78.1553 75.6096 68.1965 74.292 57.6479C72.9743 47.0993 60.639 39.9553 46.7402 41.6915C32.8414 43.4276 22.6424 53.3863 23.96 63.9349C25.2777 74.4835 37.613 81.6275 51.5118 79.8914Z" fill="url(#paint1_radial_1800_1485)"/>
<path d="M41.9961 37.4512L42.786 46.4536L43.7882 52.4815L55.6316 63.498L69.4779 37.9241L41.9961 37.4512Z" fill="url(#paint2_linear_1800_1485)"/>
</g>
<defs>
<radialGradient id="paint0_radial_1800_1485" cx="0" cy="0" r="1" gradientUnits="userSpaceOnUse" gradientTransform="translate(29.9967 45.9634) scale(12.4755 16.84)">
<stop offset="0.368" stop-color="#FFCF09"/>
<stop offset="0.718" stop-color="#FFCF09" stop-opacity="0.7"/>
<stop offset="1" stop-color="#FFCF09" stop-opacity="0"/>
</radialGradient>
<radialGradient id="paint1_radial_1800_1485" cx="0" cy="0" r="1" gradientUnits="userSpaceOnUse" gradientTransform="translate(49.1265 60.7914) rotate(-7.12) scale(25.3607 19.2479)">
<stop offset="0.383" stop-color="#34A853"/>
<stop offset="0.706" stop-color="#34A853" stop-opacity="0.7"/>
<stop offset="1" stop-color="#34A853" stop-opacity="0"/>
</radialGradient>
<linearGradient id="paint2_linear_1800_1485" x1="62.0295" y1="34.2434" x2="43.674" y2="56.7864" gradientUnits="userSpaceOnUse">
<stop offset="0.671" stop-color="#4285F4"/>
<stop offset="0.885" stop-color="#4285F4" stop-opacity="0"/>
</linearGradient>
</defs>
</svg>
